<?xml version="1.0" encoding="UTF-8" standalone="no"?>
<!-- Created with Inkscape (http://www.inkscape.org/) -->

<svg
   width="382mm"
   height="382mm"
   viewBox="0 0 382 382"
   version="1.1"
   id="svg1"
   xml:space="preserve"
   inkscape:version="1.3.2 (091e20ef0f, 2023-11-25, custom)"
   sodipodi:docname="BadriLogo.svg"
   xmlns:inkscape="http://www.inkscape.org/namespaces/inkscape"
   xmlns:sodipodi="http://sodipodi.sourceforge.net/DTD/sodipodi-0.dtd"
   xmlns="http://www.w3.org/2000/svg"
   xmlns:svg="http://www.w3.org/2000/svg"><sodipodi:namedview
     id="namedview1"
     pagecolor="#ffffff"
     bordercolor="#000000"
     borderopacity="0.25"
     inkscape:showpageshadow="2"
     inkscape:pageopacity="0.0"
     inkscape:pagecheckerboard="0"
     inkscape:deskcolor="#d1d1d1"
     inkscape:document-units="mm"
     inkscape:zoom="0.26016034"
     inkscape:cx="1145.4475"
     inkscape:cy="1118.541"
     inkscape:window-width="1920"
     inkscape:window-height="1048"
     inkscape:window-x="0"
     inkscape:window-y="0"
     inkscape:window-maximized="1"
     inkscape:current-layer="layer1" /><defs
     id="defs1"><clipPath
       clipPathUnits="userSpaceOnUse"
       id="clipPath1356"><rect
         style="fill:#000000;fill-opacity:1;stroke:none;stroke-width:2.99998;stroke-linecap:round;stroke-linejoin:round;stroke-miterlimit:4;stroke-dasharray:none;stroke-opacity:1"
         id="rect1358"
         width="960"
         height="1080"
         x="-11764.021"
         y="987.14502" /></clipPath><clipPath
       clipPathUnits="userSpaceOnUse"
       id="clipPath1362"><rect
         style="fill:#000000;fill-opacity:1;stroke:none;stroke-width:2.99998;stroke-linecap:round;stroke-linejoin:round;stroke-miterlimit:4;stroke-dasharray:none;stroke-opacity:1"
         id="rect1364"
         width="960"
         height="1080"
         x="-12724.021"
         y="987.14502" /></clipPath></defs><g
     inkscape:label="Layer 1"
     inkscape:groupmode="layer"
     id="layer1"
     transform="translate(3769.8235,399.66656)"><g
       id="g1325"
       transform="matrix(0.75562842,0,0,0.75562842,7080.1542,-1362.6208)"
       style="stroke-width:1.32341"><path
         id="path1236"
         style="fill:#88e5e6;fill-opacity:1;stroke-width:37.3881;stroke-linecap:round;stroke-linejoin:round"
         d="m -13926.624,1411.3494 h -75.042 c -9.714,0 -19.875,8.0151 -22.782,17.971 -2.906,9.956 2.576,17.9713 12.29,17.9713 h 46.752 c 8.64,0 12.612,10.3881 8.87,23.2025 l -3.239,11.0932 c -3.723,12.7525 -13.688,23.1153 -22.311,23.2024 h -96.619 c -9.715,0 -20.923,11.5987 -25.13,26.0068 l -12.285,42.0801 c -4.207,14.4081 0.228,26.0067 9.943,26.0067 l 124.91,-0.033 c 6.622,-0.6937 14.999,-12.0161 19.074,-25.9743 l 0.406,-1.389 c -4.18,14.3844 0.252,25.9572 9.956,25.9572 h 39.397 c 9.715,0 20.922,-11.5998 25.129,-26.0082 l 11.864,-40.6386 14.368,-49.2107 c -3.742,12.8143 -13.78,23.2024 -22.419,23.2024 h -58.824 l 19.686,-67.4318 c 4.1,-14.0444 2.285,-25.4146 -4.026,-25.9807 z m -355.426,18.4197 -0.03,0.03 c -6.642,0.5661 -15.095,11.938 -19.196,25.9821 l -39.566,135.5187 c -4.206,14.4084 -2.187,26.0086 4.525,26.0086 l 94.482,-0.03 c 8.639,0 12.612,10.3884 8.871,23.2027 l 26.663,-91.2583 c 4.207,-14.4087 -0.228,-26.0086 -9.941,-26.0086 h -64.949 c -8.574,-0.087 -12.487,-10.4509 -8.763,-23.2042 l 3.237,-11.0897 c 3.74,-12.8143 13.778,-23.2042 22.419,-23.2042 h 102.065 c 8.64,0 12.612,10.3878 8.871,23.2024 l 12.02,-41.1719 c 2.906,-9.9563 -2.574,-17.9725 -12.289,-17.9728 h -100.175 z m 176.829,0 c -6.711,0 -15.494,11.6077 -19.699,26.0082 l -16.5,56.5176 c -3.722,12.7528 -13.688,23.1154 -22.311,23.2025 h -2.381 c -9.714,0 -20.921,11.6014 -25.128,26.01 l -12.285,42.0768 c -4.207,14.4084 0.228,26.0101 9.941,26.0101 h 30.035 c 6.713,0 15.503,-11.6002 19.71,-26.0086 l 43.153,-147.8084 7.593,-26.0082 h -11.612 l -0.03,0.03 c -0.156,-0.03 -0.321,-0.03 -0.487,-0.03 z m 184.638,181.4055 c -9.715,3e-4 -19.875,8.016 -22.782,17.9728 -2.906,9.956 2.574,17.971 12.288,17.971 h 4.142 c 9.715,0 19.876,-8.0162 22.782,-17.9728 2.907,-9.9565 -2.575,-17.971 -12.289,-17.971 z m -385.703,19.8474 h -28.371 c -9.714,0 -19.875,8.0132 -22.782,17.9695 -2.906,9.9562 2.574,17.9728 12.288,17.9728 h 28.371 c 9.714,0 19.874,-8.0142 22.782,-17.9698 -2.907,9.9562 2.573,17.9713 12.288,17.9713 h 4.14 c 9.715,0 19.875,-8.0151 22.782,-17.9713 2.907,-9.9566 -2.573,-17.971 -12.287,-17.971 h -4.141 c -9.715,0 -19.876,8.0138 -22.782,17.9695 2.906,-9.9563 -2.573,-17.971 -12.288,-17.971 z" /><path
         id="path1241"
         style="fill:#e68892;fill-opacity:1;stroke-width:37.3881;stroke-linecap:round;stroke-linejoin:round"
         d="m -13919.553,1387.3244 h -75.041 c -9.715,0 -19.876,8.0151 -22.782,17.971 -2.907,9.956 2.575,17.9713 12.289,17.9713 h 46.752 c 8.64,0 12.612,10.3881 8.87,23.2025 l -3.239,11.0932 c -3.723,12.7525 -13.687,23.1154 -22.311,23.2024 h -96.619 c -9.715,0 -20.923,11.5987 -25.13,26.0068 l -12.285,42.0801 c -4.207,14.4081 0.228,26.0067 9.943,26.0067 l 124.91,-0.033 c 6.622,-0.6937 14.999,-12.0161 19.075,-25.9743 l 0.405,-1.389 c -4.18,14.3844 0.252,25.9572 9.957,25.9572 h 39.396 c 9.715,0 20.922,-11.5998 25.129,-26.0082 l 11.865,-40.6386 14.367,-49.2107 c -3.742,12.8143 -13.779,23.2024 -22.419,23.2024 h -58.824 l 19.687,-67.4318 c 4.099,-14.0444 2.285,-25.4146 -4.027,-25.9806 z m -355.426,18.4197 -0.03,0.03 c -6.642,0.5661 -15.095,11.938 -19.195,25.9822 l -39.567,135.5186 c -4.206,14.4084 -2.187,26.0086 4.526,26.0086 l 94.481,-0.03 c 8.639,0 12.612,10.3884 8.872,23.2027 l 26.662,-91.2583 c 4.207,-14.4087 -0.228,-26.0086 -9.941,-26.0086 h -64.949 c -8.573,-0.087 -12.487,-10.4509 -8.763,-23.2042 l 3.237,-11.0897 c 3.741,-12.8143 13.778,-23.2042 22.419,-23.2042 h 102.065 c 8.64,0 12.613,10.3878 8.871,23.2024 l 12.02,-41.1719 c 2.906,-9.9563 -2.574,-17.9725 -12.288,-17.9728 h -100.176 z m 176.829,0 c -6.711,0 -15.494,11.6077 -19.698,26.0082 l -16.5,56.5176 c -3.723,12.7528 -13.689,23.1154 -22.312,23.2025 h -2.381 c -9.714,0 -20.921,11.6014 -25.128,26.0101 l -12.285,42.0767 c -4.207,14.4084 0.228,26.0101 9.942,26.0101 h 30.034 c 6.713,0 15.503,-11.6002 19.71,-26.0086 l 43.153,-147.8084 7.593,-26.0082 h -11.611 l -0.03,0.03 c -0.157,-0.03 -0.321,-0.03 -0.488,-0.03 z m 184.638,181.4055 c -9.714,3e-4 -19.875,8.016 -22.782,17.9728 -2.906,9.956 2.574,17.971 12.288,17.971 h 4.143 c 9.714,0 19.875,-8.0162 22.782,-17.9728 2.906,-9.9565 -2.576,-17.971 -12.29,-17.971 z m -385.703,19.8474 h -28.37 c -9.715,0 -19.876,8.0132 -22.783,17.9695 -2.906,9.9562 2.574,17.9728 12.289,17.9728 h 28.37 c 9.714,0 19.874,-8.0142 22.782,-17.9698 -2.907,9.9562 2.573,17.9713 12.288,17.9713 h 4.141 c 9.714,0 19.874,-8.0151 22.782,-17.9713 2.906,-9.9566 -2.574,-17.971 -12.288,-17.971 h -4.141 c -9.714,0 -19.876,8.0138 -22.782,17.9695 2.906,-9.9563 -2.573,-17.971 -12.288,-17.971 z" /><path
         id="path1250"
         style="fill:#8e505d;fill-opacity:0.752941;stroke-width:141.311;stroke-linecap:round;stroke-linejoin:round"
         d="m -4645.4004,1782.9375 c -2.283,6.9148 -5.0403,13.6171 -8.1894,20.0156 -0.7711,7.5947 -2.3161,15.5976 -4.7344,23.8789 l -0.4746,1.6231 c 0.5583,-1.6886 1.0976,-3.3869 1.5976,-5.0996 z m -1245.8594,62.9297 c -0.5711,1.7233 -1.1223,3.4545 -1.6328,5.2031 l -11.7871,40.3789 c 2.2819,-6.906 5.0364,-13.5989 8.1817,-19.9883 0.7712,-7.595 2.3188,-15.5979 4.7363,-23.8769 z m 559.3828,52.9336 c -0.2763,0.8326 -0.5503,1.6665 -0.8378,2.4941 l -12.629,43.2598 c 0.5633,-1.702 1.1054,-3.4121 1.6094,-5.1387 z m 836.1622,368.9336 c -26.5716,8e-4 -54.0187,15.8743 -71.3262,38.9082 h 75.4004 c 16.3361,0 33.7853,-8.693 49.5273,-23.1231 -8.6216,-9.8578 -21.7177,-15.7851 -37.9492,-15.7851 z m -1565,75.0136 c -18.9484,0 -38.335,8.0787 -54.1817,21.0567 4.1623,11.2803 11.327,17.916 21.1797,17.916 l 188.8379,-0.061 c -3.8548,-23.0363 -22.0321,-38.9122 -48.6094,-38.9122 z m 239.7734,0.01 c -26.5725,0 -54.025,15.871 -71.332,38.9023 l 135.5859,-0.043 c -3.8739,-23.009 -22.0484,-38.8594 -48.6035,-38.8594 z"
         transform="matrix(0.26458333,0,0,0.26458333,-12724.021,987.14502)" /><path
         id="path1243"
         style="fill:#000000;fill-opacity:1;stroke-width:37.3881;stroke-linecap:round;stroke-linejoin:round"
         d="m -13923.089,1399.3366 h -75.041 c -9.715,0 -19.876,8.0151 -22.782,17.971 -2.906,9.956 2.575,17.9713 12.29,17.9713 h 46.751 c 8.64,0 12.612,10.3881 8.871,23.2025 l -3.239,11.0932 c -3.723,12.7525 -13.688,23.1153 -22.312,23.2024 h -96.619 c -9.714,0 -20.923,11.5987 -25.13,26.0068 l -12.285,42.0801 c -4.206,14.4081 0.228,26.0067 9.944,26.0067 l 124.909,-0.033 c 6.623,-0.6937 15,-12.0161 19.075,-25.9743 l 0.405,-1.389 c -4.18,14.3844 0.252,25.9572 9.957,25.9572 h 39.397 c 9.714,0 20.922,-11.5998 25.128,-26.0082 l 11.865,-40.6386 14.367,-49.2107 c -3.741,12.8143 -13.779,23.2024 -22.418,23.2024 h -58.824 l 19.686,-67.4318 c 4.1,-14.0444 2.285,-25.4146 -4.026,-25.9806 z m -355.426,18.4197 -0.03,0.03 c -6.642,0.5661 -15.094,11.938 -19.195,25.9821 l -39.566,135.5187 c -4.207,14.4084 -2.188,26.0086 4.525,26.0086 l 94.482,-0.03 c 8.639,0 12.611,10.3884 8.871,23.2027 l 26.663,-91.2583 c 4.206,-14.4087 -0.229,-26.0086 -9.942,-26.0086 h -64.949 c -8.573,-0.087 -12.486,-10.4509 -8.763,-23.2042 l 3.237,-11.0897 c 3.741,-12.8143 13.779,-23.2042 22.419,-23.2042 h 102.066 c 8.639,0 12.612,10.3878 8.87,23.2024 l 12.02,-41.1719 c 2.907,-9.9563 -2.573,-17.9725 -12.288,-17.9728 h -100.176 z m 176.829,0 c -6.711,0 -15.494,11.6077 -19.698,26.0082 l -16.5,56.5176 c -3.723,12.7528 -13.688,23.1154 -22.312,23.2025 h -2.38 c -9.715,0 -20.922,11.6014 -25.129,26.01 l -12.285,42.0768 c -4.206,14.4084 0.228,26.0101 9.942,26.0101 h 30.034 c 6.713,0 15.504,-11.6002 19.71,-26.0086 l 43.153,-147.8084 7.594,-26.0082 h -11.612 l -0.03,0.03 c -0.156,-0.03 -0.321,-0.03 -0.487,-0.03 z m 184.639,181.4055 c -9.715,3e-4 -19.876,8.016 -22.782,17.9728 -2.907,9.956 2.573,17.971 12.288,17.971 h 4.142 c 9.714,0 19.875,-8.0162 22.782,-17.9728 2.906,-9.9565 -2.575,-17.971 -12.29,-17.971 z m -385.704,19.8474 h -28.37 c -9.714,0 -19.876,8.0132 -22.782,17.9695 -2.907,9.9562 2.573,17.9728 12.288,17.9728 h 28.37 c 9.715,0 19.874,-8.0142 22.782,-17.9698 -2.907,9.9562 2.573,17.9713 12.289,17.9713 h 4.14 c 9.715,0 19.875,-8.0151 22.782,-17.9713 2.907,-9.9566 -2.573,-17.971 -12.288,-17.971 h -4.141 c -9.714,0 -19.875,8.0138 -22.782,17.9695 2.907,-9.9563 -2.572,-17.971 -12.288,-17.971 z" /></g></g></svg>
