<?xml version="1.0" encoding="UTF-8" standalone="no"?>
<!-- Created with Inkscape (http://www.inkscape.org/) -->

<svg
   width="150.12956mm"
   height="44.030499mm"
   viewBox="0 0 150.12956 44.030499"
   version="1.1"
   id="svg1"
   inkscape:version="1.4.2 (ebf0e94, 2025-05-08)"
   sodipodi:docname="colorMean-Blue.svg"
   xml:space="preserve"
   xmlns:inkscape="http://www.inkscape.org/namespaces/inkscape"
   xmlns:sodipodi="http://sodipodi.sourceforge.net/DTD/sodipodi-0.dtd"
   xmlns="http://www.w3.org/2000/svg"
   xmlns:svg="http://www.w3.org/2000/svg"><sodipodi:namedview
     id="namedview1"
     pagecolor="#ffffff"
     bordercolor="#000000"
     borderopacity="0.25"
     inkscape:showpageshadow="2"
     inkscape:pageopacity="0.0"
     inkscape:pagecheckerboard="0"
     inkscape:deskcolor="#d1d1d1"
     inkscape:document-units="mm"
     inkscape:zoom="0.52032068"
     inkscape:cx="127.8058"
     inkscape:cy="-112.43067"
     inkscape:window-width="1920"
     inkscape:window-height="1048"
     inkscape:window-x="0"
     inkscape:window-y="0"
     inkscape:window-maximized="1"
     inkscape:current-layer="layer1" /><defs
     id="defs1" /><g
     inkscape:label="Layer 1"
     inkscape:groupmode="layer"
     id="layer1"
     transform="translate(-29.89793,-126.47069)"><g
       id="g7"
       transform="matrix(0.98939332,0,0,0.98902715,1.1890018,1.6293169)"
       style="stroke-width:1.01091"><path
         id="path7"
         style="fill:#faf7eb;fill-opacity:1;fill-rule:evenodd;stroke:none;stroke-width:0.126363;stroke-linecap:round;stroke-dasharray:none;stroke-opacity:1"
         inkscape:transform-center-y="56.997313"
         d="m 51.033284,126.47069 c -2.899245,10.81936 -10.493587,18.92788 -22.016585,22.01523 11.522998,3.08737 19.11734,11.19589 22.016585,22.01526 h 17.799507 v -44.03049 z"
         sodipodi:nodetypes="cccccc"
         inkscape:transform-center-x="-1.014567e-05" /><path
         id="path6"
         style="fill:#efe6c3;fill-opacity:1;fill-rule:evenodd;stroke:none;stroke-width:0.126363;stroke-linecap:round;stroke-dasharray:none;stroke-opacity:1"
         inkscape:transform-center-y="56.997313"
         d="m 68.832791,126.47069 c -2.899246,10.81936 -10.493586,18.92788 -22.016585,22.01523 11.522999,3.08737 19.117339,11.19589 22.016585,22.01526 h 17.799507 v -44.03049 z"
         sodipodi:nodetypes="cccccc"
         inkscape:transform-center-x="-9.8539982e-06" /><path
         id="path5"
         style="fill:#e4d69b;fill-opacity:1;fill-rule:evenodd;stroke:none;stroke-width:0.126363;stroke-linecap:round;stroke-dasharray:none;stroke-opacity:1"
         inkscape:transform-center-y="56.997313"
         d="m 86.632298,126.47069 c -2.899246,10.81936 -10.493587,18.92788 -22.016586,22.01523 11.522999,3.08737 19.11734,11.19589 22.016586,22.01526 h 17.799512 v -44.03049 z"
         sodipodi:nodetypes="cccccc"
         inkscape:transform-center-x="-8.0346897e-06" /><path
         id="path4"
         style="fill:#d9c673;fill-opacity:1;fill-rule:evenodd;stroke:none;stroke-width:0.126363;stroke-linecap:round;stroke-dasharray:none;stroke-opacity:1"
         inkscape:transform-center-y="56.997313"
         d="m 104.43181,126.47069 c -2.89924,10.81936 -10.493592,18.92788 -22.01659,22.01523 11.522998,3.08737 19.11735,11.19589 22.01659,22.01526 h 17.79952 v -44.03049 z"
         sodipodi:nodetypes="cccccc"
         inkscape:transform-center-x="-1.3742958e-05" /><path
         id="path3"
         style="fill:#ceb54b;fill-opacity:1;fill-rule:evenodd;stroke:none;stroke-width:0.126363;stroke-linecap:round;stroke-dasharray:none;stroke-opacity:1"
         inkscape:transform-center-y="56.997313"
         d="m 122.23133,126.47069 c -2.89926,10.81936 -10.4936,18.92788 -22.01659,22.01523 11.52299,3.08737 19.11733,11.19589 22.01659,22.01526 h 17.7995 v -44.03049 z"
         sodipodi:nodetypes="cccccc"
         inkscape:transform-center-x="-1.0923527e-05" /><path
         id="path2"
         style="fill:#b49b31;fill-opacity:1;fill-rule:evenodd;stroke:none;stroke-width:0.126363;stroke-linecap:round;stroke-dasharray:none;stroke-opacity:1"
         inkscape:transform-center-y="56.997313"
         d="m 140.03083,126.47069 c -2.89924,10.81936 -10.49359,18.92788 -22.01659,22.01523 11.523,3.08737 19.11735,11.19589 22.01659,22.01526 h 17.79951 v -44.03049 z"
         sodipodi:nodetypes="cccccc"
         inkscape:transform-center-x="-6.6317349e-06" /><path
         id="path38"
         style="fill:#8c7826;fill-opacity:1;fill-rule:evenodd;stroke-width:2.02183;stroke-linecap:round"
         inkscape:transform-center-y="56.374093"
         d="m 157.83031,126.71143 c -2.86754,10.70106 -10.37885,18.72092 -21.77585,21.77452 11.397,3.05361 18.90831,11.07347 21.77585,21.77454 2.8676,-10.70107 10.37892,-18.72093 21.77591,-21.77454 -11.39699,-3.0536 -18.90831,-11.07346 -21.77591,-21.77452 z"
         sodipodi:nodetypes="ccccc"
         inkscape:transform-center-x="-1.2333511e-05" /><path
         id="path1"
         style="fill:none;fill-opacity:1;fill-rule:evenodd;stroke:#c8ab37;stroke-width:0.252728;stroke-linecap:round;stroke-dasharray:none;stroke-opacity:1"
         inkscape:transform-center-y="56.374093"
         d="m 157.83031,126.71143 c -2.86754,10.70106 -10.37885,18.72092 -21.77585,21.77452 11.397,3.05361 18.90831,11.07347 21.77585,21.77454 2.8676,-10.70107 10.37892,-18.72093 21.77591,-21.77454 -11.39699,-3.0536 -18.90831,-11.07346 -21.77591,-21.77452 z"
         sodipodi:nodetypes="ccccc"
         inkscape:transform-center-x="-1.2333511e-05" /></g></g></svg>
