<?xml version="1.0" encoding="UTF-8" standalone="no"?>
<!-- Created with Inkscape (http://www.inkscape.org/) -->

<svg
   width="210.00002mm"
   height="297.00003mm"
   viewBox="0 0 210.00002 297.00003"
   version="1.1"
   id="svg1"
   xml:space="preserve"
   inkscape:export-filename="BCF.png"
   inkscape:export-xdpi="72"
   inkscape:export-ydpi="72"
   xmlns:inkscape="http://www.inkscape.org/namespaces/inkscape"
   xmlns:sodipodi="http://sodipodi.sourceforge.net/DTD/sodipodi-0.dtd"
   xmlns="http://www.w3.org/2000/svg"
   xmlns:svg="http://www.w3.org/2000/svg"><sodipodi:namedview
     id="namedview1"
     pagecolor="#505050"
     bordercolor="#eeeeee"
     borderopacity="1"
     inkscape:showpageshadow="0"
     inkscape:pageopacity="0"
     inkscape:pagecheckerboard="0"
     inkscape:deskcolor="#505050"
     inkscape:document-units="mm"
     showguides="false"><sodipodi:guide
       position="13.113025,767.98992"
       orientation="1,0"
       id="guide3360"
       inkscape:locked="false" /><sodipodi:guide
       position="196.76198,770.76076"
       orientation="1,0"
       id="guide3361"
       inkscape:locked="false" /><inkscape:page
       x="0"
       y="1.7928865e-21"
       width="210.00002"
       height="297.00003"
       id="page2"
       margin="0"
       bleed="0" /></sodipodi:namedview><defs
     id="defs1"><clipPath
       clipPathUnits="userSpaceOnUse"
       id="clipPath3367"><rect
         style="opacity:0.550315;fill:#ffffff;fill-opacity:1;fill-rule:evenodd;stroke:#c8ab37;stroke-width:0.25;stroke-linejoin:round;stroke-dasharray:none;stroke-opacity:1"
         id="rect3368"
         width="76.271065"
         height="17.903606"
         x="-164.34843"
         y="581.11713" /></clipPath></defs><g
     inkscape:label="Layer 1"
     inkscape:groupmode="layer"
     id="layer1"
     transform="translate(298.07736,-809.68993)"><rect
       style="opacity:1;fill:#ffffff;fill-rule:evenodd;stroke:none;stroke-width:5;stroke-linejoin:round"
       id="rect3560"
       width="210"
       height="297"
       x="88.07737"
       y="809.68994"
       transform="scale(-1,1)"
       inkscape:export-filename="EN-C4.svg"
       inkscape:export-xdpi="72"
       inkscape:export-ydpi="72" /><g
       inkscape:label="Layer 1"
       id="g3585"
       transform="matrix(0.3938601,0,0,0.3938601,-105.23661,1057.2271)"
       style="stroke-width:2.53896"><path
         style="font-weight:300;font-size:10.074px;line-height:1.25;font-family:Alexandria;-inkscape-font-specification:'Alexandria Light';letter-spacing:0px;fill:#c8ab37;stroke-width:0.671768"
         d="m -169.85575,94.878746 h 0.99997 v 6.656914 h -2.98561 v -1.11424 h 1.98564 z m -1.98564,6.656914 q -0.17142,0 -0.22857,-0.15713 -0.0571,-0.15713 -0.0571,-0.41428 0,-0.25713 0.0571,-0.39998 0.0572,-0.14285 0.22857,-0.14285 z m 2.48563,-8.342574 q -0.29999,0 -0.51427,-0.21427 -0.21427,-0.21428 -0.21427,-0.51428 0,-0.31426 0.21427,-0.51426 0.21428,-0.21428 0.51427,-0.21428 0.31427,0 0.51427,0.21428 0.21428,0.2 0.21428,0.51426 0,0.3 -0.21428,0.51428 -0.2,0.21427 -0.51427,0.21427 z m -0.4714,-3.14275 q -0.27142,0 -0.65713,-0.0428 -0.3857,-0.0572 -0.72854,-0.17143 l 0.18571,-0.52855 q 0.25713,0.0858 0.59998,0.14285 0.34284,0.0572 0.61426,0.0572 0.21428,0 0.41428,-0.0286 0.21428,-0.0428 0.39998,-0.12861 -0.34285,-0.24285 -0.4857,-0.52856 -0.14285,-0.2857 -0.14285,-0.55713 0,-0.29998 0.14285,-0.55711 0.14285,-0.27143 0.3857,-0.42856 0.25713,-0.15715 0.58569,-0.15715 0.41428,0 0.71426,0.27143 0.3,0.27141 0.3,0.81426 0,0.57141 -0.35713,0.99996 -0.34285,0.41427 -0.87141,0.62855 -0.52854,0.21427 -1.09995,0.21427 z m 1.3428,-0.99996 q 0.2,-0.17143 0.31428,-0.38571 0.12862,-0.22855 0.12862,-0.47141 0,-0.27141 -0.12862,-0.39998 -0.11429,-0.12861 -0.32856,-0.12861 -0.24285,0 -0.41427,0.17142 -0.17143,0.17143 -0.17143,0.42856 0,0.24285 0.15715,0.44285 0.17142,0.1857 0.44283,0.34284 z m -5.39981,12.485284 v -1.11424 h 2.0428 v 1.11424 z m -12.17101,0 q -0.17142,0 -0.22857,-0.15713 -0.0571,-0.15713 -0.0571,-0.41428 0,-0.25713 0.0571,-0.39998 0.0572,-0.14285 0.22857,-0.14285 z m 11.67103,0 v -3.014184 q 0,-1.05711 -0.35713,-1.81422 -0.34284,-0.75712 -0.99997,-1.1571 -0.65712,-0.39999 -1.58566,-0.39999 -0.79996,0 -1.47137,0.31427 -0.67141,0.3 -1.19997,0.84283 -0.52855,0.54284 -0.89996,1.2571 -0.37141,0.69998 -0.57141,1.49995 -0.2,0.79998 -0.21428,1.614234 h -0.89997 q 0.0143,-0.59997 0.14286,-1.314234 0.12861,-0.71426 0.3857,-1.4571 0.27141,-0.75711 0.68569,-1.44282 0.42855,-0.68568 0.99996,-1.22852 0.58569,-0.55713 1.34281,-0.87139 0.75713,-0.32858 1.69994,-0.32858 0.99997,0 1.74281,0.35714 0.74283,0.35713 1.22852,0.98568 0.4857,0.62856 0.71426,1.4428 0.24285,0.79999 0.24285,1.69995 v 3.014184 z m -11.67103,0 v -1.11424 h 0.52855 q 0.67141,0 1.02854,-0.1143 0.37142,-0.12861 0.51427,-0.428554 0.14286,-0.31428 0.14286,-0.85712 v -3.3856 h 0.99996 v 3.3856 q 0,0.85712 -0.2857,1.414244 -0.28571,0.55712 -0.87141,0.82855 -0.58569,0.27141 -1.52852,0.27141 z m 4.69984,0 q -0.8714,0 -1.41423,-0.27141 -0.54285,-0.27143 -0.81426,-0.82854 -0.25713,-0.557134 -0.25713,-1.414244 h 0.99996 q 0,0.54283 0.11429,0.85711 0.12862,0.299984 0.44284,0.428564 0.32856,0.11429 0.92854,0.11429 h 7.95688 v 1.11424 z m 9.51397,0 v -1.11424 q 0.17141,0 0.22856,0.15714 0.0571,0.14285 0.0571,0.39998 0,0.24286 -0.0571,0.39999 -0.0572,0.15713 -0.22856,0.15713 z m -5.48554,-9.185404 q -0.29998,0 -0.51426,-0.21428 -0.21428,-0.21428 -0.21428,-0.51426 0,-0.31428 0.21428,-0.51428 0.21428,-0.21428 0.51426,-0.21428 0.31428,0 0.51427,0.21428 0.21428,0.2 0.21428,0.51428 0,0.29998 -0.21428,0.51426 -0.19999,0.21428 -0.51427,0.21428 z m -10.89961,9.185404 v -1.11424 h 2.17136 v 1.11424 z m 2.17136,0 v -1.11424 q 0.1857,0 0.22856,0.15714 0.0571,0.14285 0.0571,0.39998 0,0.24286 -0.0571,0.39999 -0.0428,0.15713 -0.22856,0.15713 z m -2.17136,0 q -0.17142,0 -0.22856,-0.15713 -0.0571,-0.15713 -0.0571,-0.41428 0,-0.25713 0.0571,-0.39998 0.0572,-0.14285 0.22856,-0.14285 z m -2.17133,0 v -1.11424 h 2.17135 v 1.11424 z m 2.17135,0 v -1.11424 q 0.18571,0 0.22857,0.15714 0.0571,0.14285 0.0571,0.39998 0,0.24286 -0.0571,0.39999 -0.0428,0.15713 -0.22857,0.15713 z m -2.17135,0 q -0.17142,0 -0.22857,-0.15713 -0.0572,-0.15713 -0.0572,-0.41428 0,-0.25713 0.0572,-0.39998 0.0572,-0.14285 0.22857,-0.14285 z m -2.17133,0 v -1.11424 h 2.17135 v 1.11424 z m 2.17135,0 v -1.11424 q 0.18572,0 0.22857,0.15714 0.0571,0.14285 0.0571,0.39998 0,0.24286 -0.0571,0.39999 -0.0428,0.15713 -0.22857,0.15713 z m -2.17135,0 q -0.17142,0 -0.22857,-0.15713 -0.0571,-0.15713 -0.0571,-0.41428 0,-0.25713 0.0571,-0.39998 0.0572,-0.14285 0.22857,-0.14285 z m -2.17134,0 v -1.11424 h 2.17136 v 1.11424 z m 2.17136,0 v -1.11424 q 0.1857,0 0.22855,0.15714 0.0572,0.14285 0.0572,0.39998 0,0.24286 -0.0572,0.39999 -0.0428,0.15713 -0.22855,0.15713 z m -2.17136,0 q -0.17143,0 -0.22856,-0.15713 -0.0572,-0.15713 -0.0572,-0.41428 0,-0.25713 0.0572,-0.39998 0.0572,-0.14285 0.22856,-0.14285 z m -2.17133,0 v -1.11424 h 2.17134 v 1.11424 z m 2.17134,0 v -1.11424 q 0.18572,0 0.22857,0.15714 0.0572,0.14285 0.0572,0.39998 0,0.24286 -0.0572,0.39999 -0.0428,0.15713 -0.22857,0.15713 z m -2.17134,0 q -0.17143,0 -0.22857,-0.15713 -0.0571,-0.15713 -0.0571,-0.41428 0,-0.25713 0.0571,-0.39998 0.0571,-0.14285 0.22857,-0.14285 z m -2.17133,0 v -1.11424 h 2.17134 v 1.11424 z m 2.17134,0 v -1.11424 q 0.18572,0 0.22858,0.15714 0.0571,0.14285 0.0571,0.39998 0,0.24286 -0.0571,0.39999 -0.0428,0.15713 -0.22858,0.15713 z m -2.17134,0 q -0.17143,0 -0.22857,-0.15713 -0.0572,-0.15713 -0.0572,-0.41428 0,-0.25713 0.0572,-0.39998 0.0571,-0.14285 0.22857,-0.14285 z m -2.17134,0 v -1.11424 h 2.17135 v 1.11424 z m 2.17135,0 v -1.11424 q 0.18571,0 0.22856,0.15714 0.0572,0.14285 0.0572,0.39998 0,0.24286 -0.0572,0.39999 -0.0428,0.15713 -0.22856,0.15713 z m -2.17135,0 q -0.17143,0 -0.22856,-0.15713 -0.0572,-0.15713 -0.0572,-0.41428 0,-0.25713 0.0572,-0.39998 0.0571,-0.14285 0.22856,-0.14285 z m -2.17133,0 v -1.11424 h 2.17135 v 1.11424 z m 2.17135,0 v -1.11424 q 0.18571,0 0.22856,0.15714 0.0572,0.14285 0.0572,0.39998 0,0.24286 -0.0572,0.39999 -0.0428,0.15713 -0.22856,0.15713 z m -2.17135,0 q -0.17143,0 -0.22856,-0.15713 -0.0572,-0.15713 -0.0572,-0.41428 0,-0.25713 0.0572,-0.39998 0.0571,-0.14285 0.22856,-0.14285 z m -2.17133,0 v -1.11424 h 2.17134 v 1.11424 z m 2.17134,0 v -1.11424 q 0.18572,0 0.22857,0.15714 0.0572,0.14285 0.0572,0.39998 0,0.24286 -0.0572,0.39999 -0.0428,0.15713 -0.22857,0.15713 z m -2.17134,0 q -0.17143,0 -0.22858,-0.15713 -0.0571,-0.15713 -0.0571,-0.41428 0,-0.25713 0.0571,-0.39998 0.0572,-0.14285 0.22858,-0.14285 z m -5.4141,4.72842 q -1.78565,0 -3.07132,-0.51428 -1.27139,-0.51426 -1.9428,-1.5285 -0.6714,-0.99997 -0.6714,-2.47136 0,-0.42856 0.0572,-0.87139 0.0571,-0.45713 0.15715,-0.957124 l 0.94282,0.200004 q -0.0856,0.48569 -0.12862,0.87139 -0.0428,0.38571 -0.0428,0.69999 0,1.69993 1.17139,2.57134 1.18567,0.88569 3.49988,0.88569 1.38567,0 2.38564,-0.28571 0.99996,-0.2857 1.5428,-0.78569 0.55713,-0.4857 0.55713,-1.09996 0,-0.41428 -0.22857,-0.68569 -0.22856,-0.27143 -0.68569,-0.51428 -0.45713,-0.22856 -1.1571,-0.48569 l 0.32856,-1.04283 q 0.49998,0.17143 0.98567,0.4 0.4857,0.21428 0.88569,0.52854 0.39998,0.31428 0.62855,0.74283 0.22856,0.44286 0.22856,1.05712 0,0.67141 -0.2857,1.18567 -0.27142,0.52855 -0.7714,0.91426 -0.49998,0.39998 -1.18568,0.65711 -0.6714,0.25714 -1.48566,0.38571 -0.81426,0.14285 -1.71423,0.14285 z m 3.89987,-4.72842 q -1.58566,0 -2.38564,-0.78569 l 0.68569,-0.799964 q 0.14285,0.128614 0.3857,0.242854 0.25714,0.1 0.58571,0.17142 0.34283,0.0572 0.72854,0.0572 h 1.51423 v 1.11424 z m 1.51423,0 v -1.11424 q 0.17142,0 0.22857,0.15714 0.0571,0.14285 0.0571,0.39998 0,0.24286 -0.0571,0.39999 -0.0572,0.15713 -0.22857,0.15713 z m -4.58556,7.65689 q -0.2857,0 -0.4857,-0.21428 -0.19998,-0.2 -0.19998,-0.47141 0,-0.29999 0.19998,-0.4857 0.2,-0.1857 0.4857,-0.1857 0.28571,0 0.47141,0.1857 0.2,0.18571 0.2,0.4857 0,0.27141 -0.2,0.47141 -0.1857,0.21428 -0.47141,0.21428 z m -1.62852,0 q -0.27141,0 -0.47141,-0.21428 -0.19998,-0.2 -0.19998,-0.47141 0,-0.29999 0.19998,-0.4857 0.2,-0.1857 0.48571,-0.1857 0.2857,0 0.47141,0.1857 0.19999,0.18571 0.19999,0.4857 0,0.27141 -0.19999,0.47141 -0.18571,0.21428 -0.48571,0.21428 z m -8.62825,-7.97115 q -1.02854,0 -1.88566,-0.28571 -0.85711,-0.2857 -1.37137,-0.88569 -0.49999,-0.599984 -0.49999,-1.499944 0,-0.68569 0.29999,-1.21425 0.3,-0.52856 0.81426,-0.88569 0.51427,-0.35713 1.18567,-0.52855 0.67141,-0.17143 1.39996,-0.17143 0.58569,0 1.19995,0.1143 0.61427,0.1 1.08569,0.31426 l -0.4,0.92854 q -0.37141,-0.11429 -0.88567,-0.18571 -0.51428,-0.0715 -0.97141,-0.0715 -0.84282,0 -1.47137,0.22857 -0.62855,0.21428 -0.98568,0.61426 -0.35713,0.39998 -0.35713,0.92854 0,0.52856 0.35713,0.94282 0.37141,0.39998 0.99997,0.628554 0.64284,0.22856 1.48566,0.22856 z m -4.057,0.31426 v -1.11424 h 6.5712 v 1.11424 z m -6.25689,0 v -3.671294 q 0,-0.77141 -0.3857,-1.34282 -0.37141,-0.57141 -1.0571,-0.88569 -0.67141,-0.32855 -1.61424,-0.32855 -0.69997,0 -1.3571,0.17142 -0.64283,0.17143 -1.1571,0.45713 l -0.41427,-0.89998 q 0.6714,-0.42856 1.41424,-0.62854 0.75711,-0.21428 1.52852,-0.21428 0.89997,0 1.62851,0.27141 0.74283,0.25715 1.27139,0.75713 0.54284,0.48569 0.82854,1.1571 0.3,0.67141 0.3,1.48567 v 3.671294 z m -6.54263,0 v -1.11424 h 8.04258 l -0.17142,1.11424 z m 0,0 q -0.17142,0 -0.22857,-0.15713 -0.0572,-0.15713 -0.0572,-0.41428 0,-0.25713 0.0572,-0.39998 0.0572,-0.14285 0.22857,-0.14285 z m -5.14267,0 v -1.11424 h 0.52856 q 0.67141,0 1.02854,-0.1143 0.37141,-0.12861 0.51426,-0.428554 0.14285,-0.31428 0.14285,-0.85712 v -4.14272 h 0.99997 v 4.14272 q 0,0.85712 -0.28571,1.414244 -0.2857,0.55712 -0.87139,0.82855 -0.58569,0.27141 -1.52852,0.27141 z m 4.69985,0 q -0.8714,0 -1.41425,-0.27141 -0.54283,-0.27143 -0.81424,-0.82854 -0.25715,-0.557134 -0.25715,-1.414244 h 0.99997 q 0,0.54283 0.11429,0.85711 0.12862,0.299984 0.44284,0.428564 0.32856,0.11429 0.92854,0.11429 h 0.44283 v 1.11424 z m 0.44283,0 v -1.11424 q 0.17143,0 0.22858,0.15714 0.0571,0.14285 0.0571,0.39998 0,0.24286 -0.0571,0.39999 -0.0571,0.15713 -0.22858,0.15713 z m -5.14268,0 q -0.17141,0 -0.22856,-0.15713 -0.0571,-0.15713 -0.0571,-0.41428 0,-0.25713 0.0571,-0.39998 0.0572,-0.14285 0.22856,-0.14285 z m 3.52846,2.92847 q -0.28571,0 -0.48569,-0.21428 -0.2,-0.19998 -0.2,-0.47141 0,-0.29998 0.2,-0.48568 0.19998,-0.18572 0.48569,-0.18572 0.2857,0 0.47141,0.18572 0.2,0.1857 0.2,0.48568 0,0.27143 -0.2,0.47141 -0.18571,0.21428 -0.47141,0.21428 z m -1.62851,0 q -0.27143,0 -0.47143,-0.21428 -0.19998,-0.19998 -0.19998,-0.47141 0,-0.29998 0.19998,-0.48568 0.2,-0.18572 0.48571,-0.18572 0.2857,0 0.47141,0.18572 0.2,0.1857 0.2,0.48568 0,0.27143 -0.2,0.47141 -0.18571,0.21428 -0.48569,0.21428 z m -4.07128,-2.92847 v -1.11424 h 2.17136 v 1.11424 z m 2.17136,0 v -1.11424 q 0.18571,0 0.22856,0.15714 0.0571,0.14285 0.0571,0.39998 0,0.24286 -0.0571,0.39999 -0.0428,0.15713 -0.22856,0.15713 z m -2.17136,0 q -0.17142,0 -0.22856,-0.15713 -0.0571,-0.15713 -0.0571,-0.41428 0,-0.25713 0.0571,-0.39998 0.0572,-0.14285 0.22856,-0.14285 z m -2.17133,0 v -1.11424 h 2.17135 v 1.11424 z m 2.17135,0 v -1.11424 q 0.18572,0 0.22857,0.15714 0.0572,0.14285 0.0572,0.39998 0,0.24286 -0.0572,0.39999 -0.0428,0.15713 -0.22857,0.15713 z m -2.17135,0 q -0.17142,0 -0.22857,-0.15713 -0.0572,-0.15713 -0.0572,-0.41428 0,-0.25713 0.0572,-0.39998 0.0572,-0.14285 0.22857,-0.14285 z m -2.17134,0 v -1.11424 h 2.17136 v 1.11424 z m 2.17136,0 v -1.11424 q 0.1857,0 0.22856,0.15714 0.0571,0.14285 0.0571,0.39998 0,0.24286 -0.0571,0.39999 -0.0428,0.15713 -0.22856,0.15713 z m -2.17136,0 q -0.17143,0 -0.22856,-0.15713 -0.0571,-0.15713 -0.0571,-0.41428 0,-0.25713 0.0571,-0.39998 0.0572,-0.14285 0.22856,-0.14285 z m -2.17133,0 v -1.11424 h 2.17136 v 1.11424 z m 2.17136,0 v -1.11424 q 0.1857,0 0.22856,0.15714 0.0571,0.14285 0.0571,0.39998 0,0.24286 -0.0571,0.39999 -0.0428,0.15713 -0.22856,0.15713 z m -2.17136,0 q -0.17143,0 -0.22856,-0.15713 -0.0571,-0.15713 -0.0571,-0.41428 0,-0.25713 0.0571,-0.39998 0.0572,-0.14285 0.22856,-0.14285 z m -2.17133,0 v -1.11424 h 2.17134 v 1.11424 z m 2.17134,0 v -1.11424 q 0.18572,0 0.22858,0.15714 0.0571,0.14285 0.0571,0.39998 0,0.24286 -0.0571,0.39999 -0.0428,0.15713 -0.22858,0.15713 z m -2.17134,0 q -0.17143,0 -0.22857,-0.15713 -0.0571,-0.15713 -0.0571,-0.41428 0,-0.25713 0.0571,-0.39998 0.0571,-0.14285 0.22857,-0.14285 z m -2.17134,0 v -1.11424 h 2.17135 v 1.11424 z m 2.17135,0 v -1.11424 q 0.18571,0 0.22858,0.15714 0.0571,0.14285 0.0571,0.39998 0,0.24286 -0.0571,0.39999 -0.0428,0.15713 -0.22858,0.15713 z m -2.17135,0 q -0.17141,0 -0.22856,-0.15713 -0.0572,-0.15713 -0.0572,-0.41428 0,-0.25713 0.0572,-0.39998 0.0572,-0.14285 0.22856,-0.14285 z m -2.17133,0 v -1.11424 h 2.17136 v 1.11424 z m 2.17136,0 v -1.11424 q 0.1857,0 0.22855,0.15714 0.0572,0.14285 0.0572,0.39998 0,0.24286 -0.0572,0.39999 -0.0428,0.15713 -0.22855,0.15713 z m -2.17136,0 q -0.17143,0 -0.22856,-0.15713 -0.0571,-0.15713 -0.0571,-0.41428 0,-0.25713 0.0571,-0.39998 0.0571,-0.14285 0.22856,-0.14285 z m -2.17133,0 v -1.11424 h 2.17134 v 1.11424 z m 2.17134,0 v -1.11424 q 0.18572,0 0.22857,0.15714 0.0572,0.14285 0.0572,0.39998 0,0.24286 -0.0572,0.39999 -0.0428,0.15713 -0.22857,0.15713 z m -2.17134,0 q -0.17143,0 -0.22857,-0.15713 -0.0572,-0.15713 -0.0572,-0.41428 0,-0.25713 0.0572,-0.39998 0.0571,-0.14285 0.22857,-0.14285 z m -2.17135,0 v -1.11424 h 2.17136 v 1.11424 z m 2.17136,0 v -1.11424 q 0.18571,0 0.22857,0.15714 0.0571,0.14285 0.0571,0.39998 0,0.24286 -0.0571,0.39999 -0.0428,0.15713 -0.22857,0.15713 z m -2.17136,0 q -0.17141,0 -0.22855,-0.15713 -0.0571,-0.15713 -0.0571,-0.41428 0,-0.25713 0.0571,-0.39998 0.0571,-0.14285 0.22855,-0.14285 z m -2.17133,0 v -1.11424 h 2.17136 v 1.11424 z m 2.17136,0 v -1.11424 q 0.18571,0 0.22856,0.15714 0.0572,0.14285 0.0572,0.39998 0,0.24286 -0.0572,0.39999 -0.0428,0.15713 -0.22856,0.15713 z m -2.17136,0 q -0.17142,0 -0.22855,-0.15713 -0.0571,-0.15713 -0.0571,-0.41428 0,-0.25713 0.0571,-0.39998 0.0571,-0.14285 0.22855,-0.14285 z m -2.17132,0 v -1.11424 h 2.17135 v 1.11424 z m 2.17135,0 v -1.11424 q 0.18571,0 0.22856,0.15714 0.0571,0.14285 0.0571,0.39998 0,0.24286 -0.0571,0.39999 -0.0428,0.15713 -0.22856,0.15713 z m -2.17135,0 q -0.17143,0 -0.22858,-0.15713 -0.0571,-0.15713 -0.0571,-0.41428 0,-0.25713 0.0571,-0.39998 0.0571,-0.14285 0.22858,-0.14285 z m -2.17135,0 v -1.11424 h 2.17136 v 1.11424 z m 2.17136,0 v -1.11424 q 0.1857,0 0.22857,0.15714 0.0571,0.14285 0.0571,0.39998 0,0.24286 -0.0571,0.39999 -0.0428,0.15713 -0.22857,0.15713 z m -2.17136,0 q -0.17141,0 -0.22856,-0.15713 -0.0571,-0.15713 -0.0571,-0.41428 0,-0.25713 0.0571,-0.39998 0.0571,-0.14285 0.22856,-0.14285 z m -1.54279,0 v -1.11424 h 1.54281 v 1.11424 z m -0.98568,0 V 89.936056 h 0.98568 v 11.599604 z m 2.52849,0 v -1.11424 q 0.17142,0 0.22855,0.15714 0.0571,0.14285 0.0571,0.39998 0,0.24286 -0.0571,0.39999 -0.0571,0.15713 -0.22855,0.15713 z m -8.48544,-7.671164 h 1.22854 q 2.75705,2.29992 2.75705,4.55698 0,0.91426 -0.42856,1.614234 -0.42856,0.69998 -1.18567,1.09997 -0.74283,0.39998 -1.75709,0.39998 -0.99997,0 -1.77136,-0.38569 -0.75712,-0.4 -1.18568,-1.09997 -0.41427,-0.714264 -0.41427,-1.614224 0,-2.25708 2.75704,-4.57128 z m 0.34285,1.11425 q -1.08568,0.94282 -1.59994,1.81423 -0.51427,0.85711 -0.51427,1.6428 0,0.58569 0.28571,1.04282 0.29998,0.44283 0.82854,0.699964 0.54283,0.24286 1.27138,0.24286 0.72855,0 1.25711,-0.24286 0.52854,-0.257134 0.81424,-0.699964 0.3,-0.45713 0.3,-1.05712 0,-0.78568 -0.51427,-1.6428 -0.51427,-0.85711 -1.57138,-1.79993 z m 1.08568,-2.69992 q -0.28571,0 -0.48569,-0.1857 -0.2,-0.2 -0.2,-0.4857 0,-0.29999 0.2,-0.48569 0.19998,-0.2 0.48569,-0.2 0.2857,0 0.47141,0.2 0.2,0.1857 0.2,0.48569 0,0.2857 -0.2,0.4857 -0.18571,0.1857 -0.47141,0.1857 z m -1.62851,0 q -0.27143,0 -0.47143,-0.1857 -0.19998,-0.2 -0.19998,-0.4857 0,-0.29999 0.19998,-0.48569 0.2,-0.2 0.48571,-0.2 0.2857,0 0.47141,0.2 0.2,0.1857 0.2,0.48569 0,0.2857 -0.2,0.4857 -0.18571,0.1857 -0.48569,0.1857 z"
         id="path3585"
         aria-label="نُضـــــــــيء حيــــــــــــاة" /></g><path
       id="path3586"
       clip-path="none"
       style="fill:none;fill-opacity:1;fill-rule:evenodd;stroke:#c8ab37;stroke-width:0.25;stroke-linecap:round;stroke-dasharray:none;stroke-opacity:1"
       inkscape:transform-center-x="93.933503"
       inkscape:transform-center-y="1.9667085e-05"
       d="m -216.59991,1101.276 v 0 c -0.7362,-2.8204 -2.66955,-4.6791 -5.24929,-5.3887 2.57974,-0.7095 4.51309,-2.5683 5.24929,-5.3887 v 0 h 46.57832 c 0.73612,2.8204 2.66946,4.6792 5.2492,5.3887 v 0 c -2.57974,0.7096 -4.51308,2.5683 -5.2492,5.3887 z"
       sodipodi:nodetypes="cscsccsscc" /><g
       id="g3597"
       clip-path="url(#clipPath3367)"
       transform="matrix(0.99328799,0,0,0.99328799,-1.5316464,511.68984)"
       style="stroke-width:0.251689;stroke-dasharray:none"><path
         id="path3587"
         style="fill:none;fill-opacity:1;fill-rule:evenodd;stroke:#c8ab37;stroke-width:0.251689;stroke-linecap:round;stroke-dasharray:none;stroke-opacity:1"
         inkscape:transform-center-y="8.4097814e-06"
         d="m -127.35536,598.99537 c -2.59718,0.71436 -4.54359,2.5856 -5.28472,5.42514 -0.74112,-2.83954 -2.68753,-4.71078 -5.28471,-5.42514 2.59718,-0.71437 4.54359,-2.58565 5.28471,-5.42515 0.74113,2.8395 2.68754,4.71078 5.28472,5.42515 z"
         sodipodi:nodetypes="ccccc"
         inkscape:transform-center-x="-55.7882" /><path
         id="path3588"
         style="fill:none;fill-opacity:1;fill-rule:evenodd;stroke:#c8ab37;stroke-width:0.251689;stroke-linecap:round;stroke-dasharray:none;stroke-opacity:1"
         inkscape:transform-center-y="8.4097814e-06"
         d="m -137.92479,598.99537 c -2.59718,0.71436 -4.54359,2.5856 -5.28472,5.42514 -0.74113,-2.83954 -2.68759,-4.71078 -5.28472,-5.42514 2.59713,-0.71437 4.54359,-2.58565 5.28472,-5.42515 0.74113,2.8395 2.68754,4.71078 5.28472,5.42515 z"
         sodipodi:nodetypes="ccccc"
         inkscape:transform-center-x="-55.788193" /><path
         id="path3589"
         style="fill:none;fill-opacity:1;fill-rule:evenodd;stroke:#c8ab37;stroke-width:0.251689;stroke-linecap:round;stroke-dasharray:none;stroke-opacity:1"
         inkscape:transform-center-y="8.4097814e-06"
         d="m -148.49423,598.99537 c -2.59718,0.71436 -4.54364,2.5856 -5.28477,5.42514 -0.74107,-2.83954 -2.68753,-4.71078 -5.28466,-5.42514 2.59713,-0.71437 4.54359,-2.58565 5.28466,-5.42515 0.74113,2.8395 2.68759,4.71078 5.28477,5.42515 z"
         sodipodi:nodetypes="ccccc"
         inkscape:transform-center-x="-55.788186" /><path
         id="path3590"
         style="fill:none;fill-opacity:1;fill-rule:evenodd;stroke:#c8ab37;stroke-width:0.251689;stroke-linecap:round;stroke-dasharray:none;stroke-opacity:1"
         inkscape:transform-center-y="5.4844925e-06"
         d="m -132.64008,588.14508 c -2.59713,0.71436 -4.54359,2.58559 -5.28471,5.42514 -0.74108,-2.83955 -2.68759,-4.71078 -5.28472,-5.42514 2.59713,-0.71437 4.54364,-2.58565 5.28472,-5.42515 0.74112,2.8395 2.68758,4.71078 5.28471,5.42515 z"
         sodipodi:nodetypes="ccccc"
         inkscape:transform-center-x="-55.788247" /><path
         id="path3591"
         style="fill:none;fill-opacity:1;fill-rule:evenodd;stroke:#c8ab37;stroke-width:0.251689;stroke-linecap:round;stroke-dasharray:none;stroke-opacity:1"
         inkscape:transform-center-y="5.4844925e-06"
         d="m -122.07064,588.14508 c -2.59713,0.71436 -4.54359,2.58559 -5.28472,5.42514 -0.74108,-2.83955 -2.68759,-4.71078 -5.28472,-5.42514 2.59713,-0.71437 4.54364,-2.58565 5.28472,-5.42515 0.74113,2.8395 2.68759,4.71078 5.28472,5.42515 z"
         sodipodi:nodetypes="ccccc"
         inkscape:transform-center-x="-55.788254" /><path
         id="path3592"
         style="fill:none;fill-opacity:1;fill-rule:evenodd;stroke:#c8ab37;stroke-width:0.251689;stroke-linecap:round;stroke-dasharray:none;stroke-opacity:1"
         inkscape:transform-center-y="5.4844925e-06"
         d="m -153.779,588.14508 c -2.59718,0.71436 -4.54359,2.58559 -5.28466,5.42514 -0.74118,-2.83955 -2.68759,-4.71078 -5.28477,-5.42514 2.59718,-0.71437 4.54359,-2.58565 5.28477,-5.42515 0.74107,2.8395 2.68748,4.71078 5.28466,5.42515 z"
         sodipodi:nodetypes="ccccc"
         inkscape:transform-center-x="-55.788232" /><path
         id="path3593"
         style="fill:none;fill-opacity:1;fill-rule:evenodd;stroke:#c8ab37;stroke-width:0.251689;stroke-linecap:round;stroke-dasharray:none;stroke-opacity:1"
         inkscape:transform-center-y="5.4844925e-06"
         d="m -143.20951,588.14508 c -2.59723,0.71436 -4.54364,2.58559 -5.28472,5.42514 -0.74108,-2.83955 -2.68759,-4.71078 -5.28477,-5.42514 2.59718,-0.71437 4.54369,-2.58565 5.28477,-5.42515 0.74108,2.8395 2.68749,4.71078 5.28472,5.42515 z"
         sodipodi:nodetypes="ccccc"
         inkscape:transform-center-x="-55.78824" /><path
         id="path3594"
         style="fill:none;fill-opacity:1;fill-rule:evenodd;stroke:#c8ab37;stroke-width:0.251689;stroke-linecap:round;stroke-dasharray:none;stroke-opacity:1"
         inkscape:transform-center-y="8.4097814e-06"
         d="m -106.21649,598.99537 c -2.59718,0.71436 -4.54359,2.5856 -5.28472,5.42514 -0.74113,-2.83954 -2.68759,-4.71078 -5.28472,-5.42514 2.59713,-0.71437 4.54359,-2.58565 5.28472,-5.42515 0.74113,2.8395 2.68754,4.71078 5.28472,5.42515 z"
         sodipodi:nodetypes="ccccc"
         inkscape:transform-center-x="-55.788193" /><path
         id="path3595"
         style="fill:none;fill-opacity:1;fill-rule:evenodd;stroke:#c8ab37;stroke-width:0.251689;stroke-linecap:round;stroke-dasharray:none;stroke-opacity:1"
         inkscape:transform-center-y="8.4097814e-06"
         d="m -116.78593,598.99537 c -2.59718,0.71436 -4.54364,2.5856 -5.28477,5.42514 -0.74107,-2.83954 -2.68753,-4.71078 -5.28466,-5.42514 2.59713,-0.71437 4.54359,-2.58565 5.28466,-5.42515 0.74113,2.8395 2.68759,4.71078 5.28477,5.42515 z"
         sodipodi:nodetypes="ccccc"
         inkscape:transform-center-x="-55.788186" /><path
         id="path3596"
         style="fill:none;fill-opacity:1;fill-rule:evenodd;stroke:#c8ab37;stroke-width:0.251689;stroke-linecap:round;stroke-dasharray:none;stroke-opacity:1"
         inkscape:transform-center-y="5.4844925e-06"
         d="m -100.93178,588.14508 c -2.59713,0.71436 -4.54359,2.58559 -5.28471,5.42514 -0.74108,-2.83955 -2.68759,-4.71078 -5.28472,-5.42514 2.59713,-0.71437 4.54364,-2.58565 5.28472,-5.42515 0.74112,2.8395 2.68758,4.71078 5.28471,5.42515 z"
         sodipodi:nodetypes="ccccc"
         inkscape:transform-center-x="-55.788247" /><path
         id="path3597"
         style="fill:none;fill-opacity:1;fill-rule:evenodd;stroke:#c8ab37;stroke-width:0.251689;stroke-linecap:round;stroke-dasharray:none;stroke-opacity:1"
         inkscape:transform-center-y="5.4844925e-06"
         d="m -111.50121,588.14508 c -2.59723,0.71436 -4.54364,2.58559 -5.28472,5.42514 -0.74108,-2.83955 -2.68759,-4.71078 -5.28477,-5.42514 2.59718,-0.71437 4.54369,-2.58565 5.28477,-5.42515 0.74108,2.8395 2.68749,4.71078 5.28472,5.42515 z"
         sodipodi:nodetypes="ccccc"
         inkscape:transform-center-x="-55.78824" /></g><g
       id="g3608"
       clip-path="url(#clipPath3367)"
       transform="matrix(0.99328799,0,0,0.99328799,-121.59477,511.68984)"
       style="stroke-width:0.251689;stroke-dasharray:none"><path
         id="path3598"
         style="fill:none;fill-opacity:1;fill-rule:evenodd;stroke:#c8ab37;stroke-width:0.251689;stroke-linecap:round;stroke-dasharray:none;stroke-opacity:1"
         inkscape:transform-center-y="8.4097814e-06"
         d="m -127.35536,598.99537 c -2.59718,0.71436 -4.54359,2.5856 -5.28472,5.42514 -0.74112,-2.83954 -2.68753,-4.71078 -5.28471,-5.42514 2.59718,-0.71437 4.54359,-2.58565 5.28471,-5.42515 0.74113,2.8395 2.68754,4.71078 5.28472,5.42515 z"
         sodipodi:nodetypes="ccccc"
         inkscape:transform-center-x="-55.7882" /><path
         id="path3599"
         style="fill:none;fill-opacity:1;fill-rule:evenodd;stroke:#c8ab37;stroke-width:0.251689;stroke-linecap:round;stroke-dasharray:none;stroke-opacity:1"
         inkscape:transform-center-y="8.4097814e-06"
         d="m -137.92479,598.99537 c -2.59718,0.71436 -4.54359,2.5856 -5.28472,5.42514 -0.74113,-2.83954 -2.68759,-4.71078 -5.28472,-5.42514 2.59713,-0.71437 4.54359,-2.58565 5.28472,-5.42515 0.74113,2.8395 2.68754,4.71078 5.28472,5.42515 z"
         sodipodi:nodetypes="ccccc"
         inkscape:transform-center-x="-55.788193" /><path
         id="path3600"
         style="fill:none;fill-opacity:1;fill-rule:evenodd;stroke:#c8ab37;stroke-width:0.251689;stroke-linecap:round;stroke-dasharray:none;stroke-opacity:1"
         inkscape:transform-center-y="8.4097814e-06"
         d="m -148.49423,598.99537 c -2.59718,0.71436 -4.54364,2.5856 -5.28477,5.42514 -0.74107,-2.83954 -2.68753,-4.71078 -5.28466,-5.42514 2.59713,-0.71437 4.54359,-2.58565 5.28466,-5.42515 0.74113,2.8395 2.68759,4.71078 5.28477,5.42515 z"
         sodipodi:nodetypes="ccccc"
         inkscape:transform-center-x="-55.788186" /><path
         id="path3601"
         style="fill:none;fill-opacity:1;fill-rule:evenodd;stroke:#c8ab37;stroke-width:0.251689;stroke-linecap:round;stroke-dasharray:none;stroke-opacity:1"
         inkscape:transform-center-y="5.4844925e-06"
         d="m -132.64008,588.14508 c -2.59713,0.71436 -4.54359,2.58559 -5.28471,5.42514 -0.74108,-2.83955 -2.68759,-4.71078 -5.28472,-5.42514 2.59713,-0.71437 4.54364,-2.58565 5.28472,-5.42515 0.74112,2.8395 2.68758,4.71078 5.28471,5.42515 z"
         sodipodi:nodetypes="ccccc"
         inkscape:transform-center-x="-55.788247" /><path
         id="path3602"
         style="fill:none;fill-opacity:1;fill-rule:evenodd;stroke:#c8ab37;stroke-width:0.251689;stroke-linecap:round;stroke-dasharray:none;stroke-opacity:1"
         inkscape:transform-center-y="5.4844925e-06"
         d="m -122.07064,588.14508 c -2.59713,0.71436 -4.54359,2.58559 -5.28472,5.42514 -0.74108,-2.83955 -2.68759,-4.71078 -5.28472,-5.42514 2.59713,-0.71437 4.54364,-2.58565 5.28472,-5.42515 0.74113,2.8395 2.68759,4.71078 5.28472,5.42515 z"
         sodipodi:nodetypes="ccccc"
         inkscape:transform-center-x="-55.788254" /><path
         id="path3603"
         style="fill:none;fill-opacity:1;fill-rule:evenodd;stroke:#c8ab37;stroke-width:0.251689;stroke-linecap:round;stroke-dasharray:none;stroke-opacity:1"
         inkscape:transform-center-y="5.4844925e-06"
         d="m -153.779,588.14508 c -2.59718,0.71436 -4.54359,2.58559 -5.28466,5.42514 -0.74118,-2.83955 -2.68759,-4.71078 -5.28477,-5.42514 2.59718,-0.71437 4.54359,-2.58565 5.28477,-5.42515 0.74107,2.8395 2.68748,4.71078 5.28466,5.42515 z"
         sodipodi:nodetypes="ccccc"
         inkscape:transform-center-x="-55.788232" /><path
         id="path3604"
         style="fill:none;fill-opacity:1;fill-rule:evenodd;stroke:#c8ab37;stroke-width:0.251689;stroke-linecap:round;stroke-dasharray:none;stroke-opacity:1"
         inkscape:transform-center-y="5.4844925e-06"
         d="m -143.20951,588.14508 c -2.59723,0.71436 -4.54364,2.58559 -5.28472,5.42514 -0.74108,-2.83955 -2.68759,-4.71078 -5.28477,-5.42514 2.59718,-0.71437 4.54369,-2.58565 5.28477,-5.42515 0.74108,2.8395 2.68749,4.71078 5.28472,5.42515 z"
         sodipodi:nodetypes="ccccc"
         inkscape:transform-center-x="-55.78824" /><path
         id="path3605"
         style="fill:none;fill-opacity:1;fill-rule:evenodd;stroke:#c8ab37;stroke-width:0.251689;stroke-linecap:round;stroke-dasharray:none;stroke-opacity:1"
         inkscape:transform-center-y="8.4097814e-06"
         d="m -106.21649,598.99537 c -2.59718,0.71436 -4.54359,2.5856 -5.28472,5.42514 -0.74113,-2.83954 -2.68759,-4.71078 -5.28472,-5.42514 2.59713,-0.71437 4.54359,-2.58565 5.28472,-5.42515 0.74113,2.8395 2.68754,4.71078 5.28472,5.42515 z"
         sodipodi:nodetypes="ccccc"
         inkscape:transform-center-x="-55.788193" /><path
         id="path3606"
         style="fill:none;fill-opacity:1;fill-rule:evenodd;stroke:#c8ab37;stroke-width:0.251689;stroke-linecap:round;stroke-dasharray:none;stroke-opacity:1"
         inkscape:transform-center-y="8.4097814e-06"
         d="m -116.78593,598.99537 c -2.59718,0.71436 -4.54364,2.5856 -5.28477,5.42514 -0.74107,-2.83954 -2.68753,-4.71078 -5.28466,-5.42514 2.59713,-0.71437 4.54359,-2.58565 5.28466,-5.42515 0.74113,2.8395 2.68759,4.71078 5.28477,5.42515 z"
         sodipodi:nodetypes="ccccc"
         inkscape:transform-center-x="-55.788186" /><path
         id="path3607"
         style="fill:none;fill-opacity:1;fill-rule:evenodd;stroke:#c8ab37;stroke-width:0.251689;stroke-linecap:round;stroke-dasharray:none;stroke-opacity:1"
         inkscape:transform-center-y="5.4844925e-06"
         d="m -100.93178,588.14508 c -2.59713,0.71436 -4.54359,2.58559 -5.28471,5.42514 -0.74108,-2.83955 -2.68759,-4.71078 -5.28472,-5.42514 2.59713,-0.71437 4.54364,-2.58565 5.28472,-5.42515 0.74112,2.8395 2.68758,4.71078 5.28471,5.42515 z"
         sodipodi:nodetypes="ccccc"
         inkscape:transform-center-x="-55.788247" /><path
         id="path3608"
         style="fill:none;fill-opacity:1;fill-rule:evenodd;stroke:#c8ab37;stroke-width:0.251689;stroke-linecap:round;stroke-dasharray:none;stroke-opacity:1"
         inkscape:transform-center-y="5.4844925e-06"
         d="m -111.50121,588.14508 c -2.59723,0.71436 -4.54364,2.58559 -5.28472,5.42514 -0.74108,-2.83955 -2.68759,-4.71078 -5.28477,-5.42514 2.59718,-0.71437 4.54369,-2.58565 5.28477,-5.42515 0.74108,2.8395 2.68749,4.71078 5.28472,5.42515 z"
         sodipodi:nodetypes="ccccc"
         inkscape:transform-center-x="-55.78824" /></g><g
       inkscape:label="Layer 1"
       id="g3627"
       transform="matrix(0.27590328,0,0,0.27590328,-200.23319,799.13078)"
       style="stroke-width:3.62445"><g
         id="g3626"
         transform="matrix(0.21168478,0,0,0.21168478,958.76783,-724.63312)"
         style="stroke-width:17.122"><g
           id="g3624"
           transform="translate(-2361.2876,-117.03513)"
           style="stroke-width:17.122"><path
             id="path3619"
             style="opacity:1;fill:#8c7826;fill-opacity:1;fill-rule:evenodd;stroke:none;stroke-width:34.2439;stroke-linecap:round"
             d="m -3278.9607,4073.4157 c -10.074,0 -19.6217,2.1728 -28.2024,6.0772 l 3.717,4.8436 c 7.1318,-6.0384 14.3661,-8.1276 24.4854,-8.1276 22.6905,0 40.9577,18.2667 40.9577,40.9571 v 16.0234 c -11.3689,-8.5892 -25.5477,-13.6736 -40.9577,-13.6736 -37.603,0 -67.8755,30.2729 -67.8755,67.8759 v 40.8089 c 0,37.603 30.2725,67.8749 67.8755,67.8749 15.4065,0 29.5824,-5.0813 40.9499,-13.6668 -0.1319,6.8185 -1.9048,11.5739 -1.9048,11.5739 h 30.7429 c 0,0 -1.9126,-5.1301 -1.9126,-12.3734 v -140.348 c 0,-37.5889 -30.2825,-67.8455 -67.8754,-67.8455 z m 0,48.8942 c 22.6905,0 40.9577,18.2667 40.9577,40.9572 v 21.4788 13.7893 53.79 c 0,22.6905 -18.2672,40.9572 -40.9577,40.9572 -22.6904,0 -40.9572,-18.2667 -40.9572,-40.9572 v -89.0581 c 0,-22.6905 18.2668,-40.9572 40.9572,-40.9572 z"
             sodipodi:nodetypes="sccsscsssscccsssssccsssss" /><path
             id="path3620"
             style="opacity:1;fill:#8c7826;fill-opacity:1;fill-rule:evenodd;stroke:none;stroke-width:34.2439;stroke-linecap:round"
             d="m -3547.8425,4073.4157 c -16.2863,0 -31.1976,5.6783 -42.8697,15.1717 0,-2.7426 0.2308,-8.3404 1.9125,-13.0788 h -28.8303 c 0,0 1.9126,5.13 1.9126,12.3734 l -5e-4,193.9298 c -0.035,7.1361 -1.9116,12.1708 -1.9116,12.1708 h 30.7423 c 0,0 -1.9125,-5.1301 -1.9125,-12.3734 V 4117.166 c 0,-22.6904 18.2667,-40.9571 40.9572,-40.9571 22.6905,0 40.9577,18.2667 40.9577,40.9571 v 164.5337 c -0.016,7.1954 -1.912,12.2829 -1.912,12.2829 h 30.7423 c 0,0 -1.912,-5.1301 -1.912,-12.3734 V 4117.166 c 0,-22.6904 18.2666,-40.9571 40.9571,-40.9571 22.6905,0 40.9578,18.2667 40.9578,40.9571 v 164.4432 c 0,7.2434 -1.9126,12.3734 -1.9126,12.3734 h 1.9126 26.9177 1.9125 c 0,0 -1.9125,-5.0876 -1.9125,-12.2829 v -140.409 c 0,-37.6031 -30.2725,-67.8755 -67.8755,-67.8755 -22.3215,0 -42.0597,10.667 -54.4163,27.2025 -12.3565,-16.5355 -32.0953,-27.2025 -54.4168,-27.2025 z"
             sodipodi:nodetypes="scccscccsssscccsssssccccssscss" /><path
             id="path3621"
             style="opacity:1;fill:#8c7826;fill-opacity:1;fill-rule:evenodd;stroke:none;stroke-width:34.2439;stroke-linecap:round"
             d="m -3109.1416,4073.4157 c -37.603,0 -67.8755,30.272 -67.8755,67.875 v 86.9094 c 0,37.603 30.2725,67.8754 67.8755,67.8754 15.41,0 29.5888,-5.0839 40.9577,-13.673 v 13.673 c 0,26.5819 -22.2382,40.9926 -40.9577,40.9572 -0.7519,0 -1.2842,-0.1984 -1.2842,-0.1984 v 3.191 c 0,0 0.5323,-0.1984 1.2842,-0.1984 37.5928,0 67.8754,-30.2556 67.8754,-67.8445 V 4087.882 c 0,-7.2433 1.9126,-12.3734 1.9126,-12.3734 h -30.7429 c 0,0 1.7729,4.7559 1.9048,11.5745 -11.3675,-8.5855 -25.5433,-13.6674 -40.9499,-13.6674 z m 0,2.7932 c 22.6905,0 40.9577,18.2666 40.9577,40.9571 v 135.1592 c 0,22.6904 -18.2672,40.9567 -40.9577,40.9567 -22.6904,0 -40.9572,-18.2663 -40.9572,-40.9567 V 4117.166 c 0,-22.6905 18.2668,-40.9571 40.9572,-40.9571 z"
             sodipodi:nodetypes="sssscssccssscccssssssss" /><path
             id="path3622"
             style="opacity:1;fill:#8c7826;fill-opacity:1;fill-rule:evenodd;stroke:none;stroke-width:34.2439;stroke-linecap:round"
             d="m -3003.4862,4139.4936 c 0,0 1.9125,5.13 1.9125,12.3734 v 129.742 c 0,7.2434 -1.9125,12.3734 -1.9125,12.3734 h 30.7428 c 0,0 -1.9125,-5.1301 -1.9125,-12.3734 v -129.742 c 0,-7.2433 1.9125,-12.3734 1.9125,-12.3734 z"
             sodipodi:nodetypes="cssccsscc" /><path
             id="path3623"
             style="opacity:1;fill:#8c7826;fill-opacity:1;fill-rule:evenodd;stroke:none;stroke-width:34.2439;stroke-linecap:round"
             d="m -2871.5586,4073.4155 c -37.6031,0 -67.8755,30.2724 -67.8755,67.8755 v 86.9094 c 0,37.603 30.2724,67.8754 67.8755,67.8754 15.2357,0 29.2682,-4.9697 40.5711,-13.3831 l -4.5067,-10.88 c -6.9088,12.8059 -20.4378,21.4695 -36.0644,21.4695 -22.6906,0 -40.9573,-18.2667 -40.9573,-40.9572 v -135.1587 c 0,-22.6904 18.2667,-40.9572 40.9573,-40.9572 15.6266,0 29.1556,8.6637 36.0644,21.4695 l 4.5067,-10.8799 c -11.3029,-8.4134 -25.3354,-13.3832 -40.5711,-13.3832 z" /><path
             id="path3624"
             style="opacity:1;fill:#c8ab37;fill-opacity:1;fill-rule:evenodd;stroke-width:34.2439;stroke-linecap:round"
             inkscape:transform-center-y="7.7582497"
             d="m -2988.1149,4062.5673 c -4.0865,15.2507 -14.7907,26.6803 -31.0322,31.0322 16.2415,4.3519 26.9457,15.7815 31.0322,31.0322 4.0865,-15.2507 14.7907,-26.6803 31.0322,-31.0322 -16.2415,-4.3519 -26.9457,-15.7815 -31.0322,-31.0322 z"
             sodipodi:nodetypes="ccccc" /></g><g
           id="g3625"
           transform="translate(-2061.4945,-319.57729)"
           style="stroke-width:17.122"><path
             id="path3625"
             style="font-weight:255;font-size:96.5804px;line-height:1.25;font-family:Poppins;-inkscape-font-specification:'Poppins weight=255';letter-spacing:64.8048px;fill:#1a1a1a;stroke-width:4.53019"
             d="m -3259.6195,4552.8343 c -1.0508,0 -2.5096,0.7051 -2.5096,2.6072 0,1.7714 1.1392,2.6072 2.5096,2.6072 1.5929,0 2.512,-1.232 2.512,-2.6072 0,-1.5405 -1.2316,-2.6072 -2.512,-2.6072 z m -529.9327,0.7007 v 65.4826 h 1.9334 v -65.4826 z m 336.292,0 v 13.3289 h -8.5002 v 1.931 h 8.5002 v 36.5081 c 0,9.2602 2.973,13.7146 12.6503,13.7146 h 5.7002 v -1.9334 h -5.5049 c -7.769,0 -10.9146,-2.1621 -10.9146,-11.7812 v -36.5081 h 16.4195 v -1.931 h -16.4195 v -13.3289 z m 117.7292,12.1693 c -11.6541,0 -18.5091,4.6026 -20.5695,13.8099 v -12.6503 h -1.9335 v 52.1537 h 1.9335 v -31.0032 c 0,-16.6267 11.0809,-20.1862 20.5695,-20.1862 z m -556.781,0.4834 c -13.8565,0 -25.1101,9.219 -25.1101,26.7531 0,17.5347 11.2542,26.753 25.1101,26.753 15.3937,0 22.4741,-9.3716 23.9531,-18.3504 h -1.9335 c -1.7426,10.7227 -10.7193,16.6099 -22.0196,16.6099 -10.7278,0 -22.9629,-6.3715 -23.1791,-24.1435 h 47.0345 c 1.4699,-26.2082 -18.8846,-27.6221 -23.8554,-27.6221 z m 208.6126,0 c -13.8565,0 -25.1126,9.219 -25.1126,26.7531 0,17.5347 11.2567,26.753 25.1126,26.753 15.3937,0 22.4715,-9.3716 23.9505,-18.3504 h -1.9309 c -1.7426,10.7227 -10.7193,16.6099 -22.0196,16.6099 -10.7278,0 -22.963,-6.3715 -23.1792,-24.1435 h 47.0345 c 1.4699,-26.2082 -18.8845,-27.6221 -23.8553,-27.6221 z m 125.4555,0 c -13.1954,0 -25.1101,8.7164 -25.1101,26.7531 0,16.504 10.3528,26.753 25.1101,26.753 15.3941,0 22.4744,-9.3721 23.9531,-18.3504 h -1.931 c -1.7424,10.7227 -10.722,16.6099 -22.0221,16.6099 -10.0048,0 -23.1791,-5.7775 -23.1791,-25.0125 0,-18.8163 12.9721,-25.015 23.1791,-25.015 11.3027,0 20.28,5.8918 22.0221,16.6124 h 1.931 c -1.5644,-9.4986 -9.2599,-18.3505 -23.9531,-18.3505 z m 403.5104,0 c -13.8534,0 -25.1101,9.2157 -25.1101,26.7531 0,17.5373 11.2566,26.753 25.1101,26.753 15.394,0 22.4742,-9.372 23.953,-18.3504 h -1.9309 c -1.7425,10.7227 -10.7219,16.6099 -22.0221,16.6099 -11.8696,0 -23.1792,-7.4804 -23.1792,-25.0125 0,-18.8254 12.8807,-25.015 23.1792,-25.015 11.3026,0 20.2799,5.8916 22.0221,16.6124 h 1.9309 c -1.5644,-9.4985 -9.2597,-18.3505 -23.953,-18.3505 z m -737.5785,1.7381 c 13.0653,0 23.0989,9.4295 22.2125,24.1459 h -45.3916 c 0.2295,-19.044 14.1282,-24.1459 23.1791,-24.1459 z m 208.6126,0 c 13.0653,0 23.0988,9.4295 22.2124,24.1459 h -45.3916 c 0.2295,-19.044 14.1283,-24.1459 23.1792,-24.1459 z m 423.1156,3.4519 v 47.6399 h 1.931 v -47.6399 z" /></g><path
           id="path3626"
           style="opacity:1;fill:#c8ab37;fill-opacity:1;fill-rule:evenodd;stroke:none;stroke-width:171.219;stroke-linecap:butt;stroke-linejoin:round;stroke-dasharray:none;stroke-opacity:1"
           d="m -5978.9173,4219.9977 v 2.7941 h 482.5121 v -2.7941 z m 559.3896,0 v 2.7941 h 227.2523 v -2.7941 z" /></g></g><text
       xml:space="preserve"
       style="font-size:2.46944px;line-height:1.25;font-family:Bison;-inkscape-font-specification:'Bison, Normal';letter-spacing:0px;white-space:pre;inline-size:45.0914;stroke-width:0.264582"
       x="-392.29849"
       y="132.6377"
       id="text3627"
       transform="translate(256.04912,712.86194)"><tspan
         id="tspan3627"
         style="font-style:normal;font-variant:normal;font-weight:normal;font-stretch:normal;font-size:2.46944px;line-height:1.25;font-family:Poppins;-inkscape-font-specification:Poppins;stroke-width:0.264582"
         x="-392.29849"
         y="132.6377">12 Baidak st., Alataba - Cairo
www.magiclighting-eg.com</tspan></text><path
       id="path3627"
       clip-path="none"
       style="fill:none;fill-opacity:1;fill-rule:evenodd;stroke:#c8ab37;stroke-width:0.25;stroke-linecap:round;stroke-dasharray:none;stroke-opacity:1"
       inkscape:transform-center-x="-76.0552"
       inkscape:transform-center-y="-9.1928021e-06"
       d="m -193.07737,858.20853 h 18.85655 v 0 c 0.59608,-2.28362 2.16146,-3.78858 4.2502,-4.3631 v 0 h 68.65523" /><path
       id="path3628"
       clip-path="none"
       style="fill:none;fill-opacity:1;fill-rule:evenodd;stroke:#c8ab37;stroke-width:0.25;stroke-linecap:round;stroke-dasharray:none;stroke-opacity:1"
       inkscape:transform-center-x="76.055201"
       inkscape:transform-center-y="1.0807198e-05"
       d="m -193.07737,852.12817 h -18.85655 v 0 c -0.59608,2.28362 -2.16146,3.78858 -4.2502,4.3631 v 0 h -68.65523" /></g></svg>
