<?xml version="1.0" encoding="UTF-8" standalone="no"?>
<!-- Created with Inkscape (http://www.inkscape.org/) -->

<svg
   width="178.6194mm"
   height="178.6194mm"
   viewBox="0 0 178.6194 178.6194"
   version="1.1"
   id="svg1"
   xml:space="preserve"
   inkscape:version="1.4.2 (ebf0e94, 2025-05-08)"
   sodipodi:docname="fullLogo-Shine.svg"
   xmlns:inkscape="http://www.inkscape.org/namespaces/inkscape"
   xmlns:sodipodi="http://sodipodi.sourceforge.net/DTD/sodipodi-0.dtd"
   xmlns="http://www.w3.org/2000/svg"
   xmlns:svg="http://www.w3.org/2000/svg"><sodipodi:namedview
     id="namedview1"
     pagecolor="#ffffff"
     bordercolor="#000000"
     borderopacity="0.25"
     inkscape:showpageshadow="2"
     inkscape:pageopacity="0.0"
     inkscape:pagecheckerboard="0"
     inkscape:deskcolor="#d1d1d1"
     inkscape:document-units="mm"
     inkscape:zoom="1.0406414"
     inkscape:cx="228.22463"
     inkscape:cy="383.89785"
     inkscape:window-width="1920"
     inkscape:window-height="1048"
     inkscape:window-x="0"
     inkscape:window-y="0"
     inkscape:window-maximized="1"
     inkscape:current-layer="layer1" /><defs
     id="defs1" /><g
     inkscape:label="Layer 1"
     inkscape:groupmode="layer"
     id="layer1"
     transform="translate(312.92758,-71.410004)"><g
       id="g48"
       transform="matrix(0.21168478,0,0,0.21168478,958.76783,-724.63312)"
       style="stroke-width:4.72401"><g
         id="g38"
         transform="translate(-2361.2876,-117.03513)"
         style="stroke-width:4.72401"><path
           id="path33"
           style="opacity:1;fill:#333333;fill-opacity:1;fill-rule:evenodd;stroke:none;stroke-width:9.44799;stroke-linecap:round"
           d="m -3278.9607,4073.4157 c -10.074,0 -19.6217,2.1728 -28.2024,6.0772 l 3.717,4.8436 c 7.1318,-6.0384 14.3661,-8.1276 24.4854,-8.1276 22.6905,0 40.9577,18.2667 40.9577,40.9571 v 16.0234 c -11.3689,-8.5892 -25.5477,-13.6736 -40.9577,-13.6736 -37.603,0 -67.8755,30.2729 -67.8755,67.8759 v 40.8089 c 0,37.603 30.2725,67.8749 67.8755,67.8749 15.4065,0 29.5824,-5.0813 40.9499,-13.6668 -0.1319,6.8185 -1.9048,11.5739 -1.9048,11.5739 h 30.7429 c 0,0 -1.9126,-5.1301 -1.9126,-12.3734 v -140.348 c 0,-37.5889 -30.2825,-67.8455 -67.8754,-67.8455 z m 0,48.8942 c 22.6905,0 40.9577,18.2667 40.9577,40.9572 v 21.4788 13.7893 53.79 c 0,22.6905 -18.2672,40.9572 -40.9577,40.9572 -22.6904,0 -40.9572,-18.2667 -40.9572,-40.9572 v -89.0581 c 0,-22.6905 18.2668,-40.9572 40.9572,-40.9572 z"
           sodipodi:nodetypes="sccsscsssscccsssssccsssss" /><path
           id="path34"
           style="opacity:1;fill:#333333;fill-opacity:1;fill-rule:evenodd;stroke:none;stroke-width:9.44799;stroke-linecap:round"
           d="m -3547.8425,4073.4157 c -16.2863,0 -31.1976,5.6783 -42.8697,15.1717 0,-2.7426 0.2308,-8.3404 1.9125,-13.0788 h -28.8303 c 0,0 1.9126,5.13 1.9126,12.3734 l -5e-4,193.9298 c -0.035,7.1361 -1.9116,12.1708 -1.9116,12.1708 h 30.7423 c 0,0 -1.9125,-5.1301 -1.9125,-12.3734 V 4117.166 c 0,-22.6904 18.2667,-40.9571 40.9572,-40.9571 22.6905,0 40.9577,18.2667 40.9577,40.9571 v 164.5337 c -0.016,7.1954 -1.912,12.2829 -1.912,12.2829 h 30.7423 c 0,0 -1.912,-5.1301 -1.912,-12.3734 V 4117.166 c 0,-22.6904 18.2666,-40.9571 40.9571,-40.9571 22.6905,0 40.9578,18.2667 40.9578,40.9571 v 164.4432 c 0,7.2434 -1.9126,12.3734 -1.9126,12.3734 h 1.9126 26.9177 1.9125 c 0,0 -1.9125,-5.0876 -1.9125,-12.2829 v -140.409 c 0,-37.6031 -30.2725,-67.8755 -67.8755,-67.8755 -22.3215,0 -42.0597,10.667 -54.4163,27.2025 -12.3565,-16.5355 -32.0953,-27.2025 -54.4168,-27.2025 z"
           sodipodi:nodetypes="scccscccsssscccsssssccccssscss" /><path
           id="path35"
           style="opacity:1;fill:#333333;fill-opacity:1;fill-rule:evenodd;stroke:none;stroke-width:9.44799;stroke-linecap:round"
           d="m -3109.1416,4073.4157 c -37.603,0 -67.8755,30.272 -67.8755,67.875 v 86.9094 c 0,37.603 30.2725,67.8754 67.8755,67.8754 15.41,0 29.5888,-5.0839 40.9577,-13.673 v 13.673 c 0,26.5819 -22.2382,40.9926 -40.9577,40.9572 -0.7519,0 -1.2842,-0.1984 -1.2842,-0.1984 v 3.191 c 0,0 0.5323,-0.1984 1.2842,-0.1984 37.5928,0 67.8754,-30.2556 67.8754,-67.8445 V 4087.882 c 0,-7.2433 1.9126,-12.3734 1.9126,-12.3734 h -30.7429 c 0,0 1.7729,4.7559 1.9048,11.5745 -11.3675,-8.5855 -25.5433,-13.6674 -40.9499,-13.6674 z m 0,2.7932 c 22.6905,0 40.9577,18.2666 40.9577,40.9571 v 135.1592 c 0,22.6904 -18.2672,40.9567 -40.9577,40.9567 -22.6904,0 -40.9572,-18.2663 -40.9572,-40.9567 V 4117.166 c 0,-22.6905 18.2668,-40.9571 40.9572,-40.9571 z"
           sodipodi:nodetypes="sssscssccssscccssssssss" /><path
           id="path36"
           style="opacity:1;fill:#333333;fill-opacity:1;fill-rule:evenodd;stroke:none;stroke-width:9.44799;stroke-linecap:round"
           d="m -3003.4862,4139.4936 c 0,0 1.9125,5.13 1.9125,12.3734 v 129.742 c 0,7.2434 -1.9125,12.3734 -1.9125,12.3734 h 30.7428 c 0,0 -1.9125,-5.1301 -1.9125,-12.3734 v -129.742 c 0,-7.2433 1.9125,-12.3734 1.9125,-12.3734 z"
           sodipodi:nodetypes="cssccsscc" /><path
           id="path37"
           style="opacity:1;fill:#333333;fill-opacity:1;fill-rule:evenodd;stroke:none;stroke-width:9.44799;stroke-linecap:round"
           d="m -2871.5586,4073.4155 c -37.6031,0 -67.8755,30.2724 -67.8755,67.8755 v 86.9094 c 0,37.603 30.2724,67.8754 67.8755,67.8754 15.2357,0 29.2682,-4.9697 40.5711,-13.3831 l -4.5067,-10.88 c -6.9088,12.8059 -20.4378,21.4695 -36.0644,21.4695 -22.6906,0 -40.9573,-18.2667 -40.9573,-40.9572 v -135.1587 c 0,-22.6904 18.2667,-40.9572 40.9573,-40.9572 15.6266,0 29.1556,8.6637 36.0644,21.4695 l 4.5067,-10.8799 c -11.3029,-8.4134 -25.3354,-13.3832 -40.5711,-13.3832 z" /><path
           id="path38"
           style="opacity:1;fill:#000000;fill-opacity:1;fill-rule:evenodd;stroke-width:9.44799;stroke-linecap:round"
           inkscape:transform-center-y="7.7582497"
           d="m -2988.1149,4062.5673 c -4.0865,15.2507 -14.7907,26.6803 -31.0322,31.0322 16.2415,4.3519 26.9457,15.7815 31.0322,31.0322 4.0865,-15.2507 14.7907,-26.6803 31.0322,-31.0322 -16.2415,-4.3519 -26.9457,-15.7815 -31.0322,-31.0322 z"
           sodipodi:nodetypes="ccccc" /></g><g
         id="g47"
         transform="translate(-2061.4945,-319.57729)"
         style="stroke-width:4.72401"><path
           id="path39"
           style="font-weight:255;font-size:96.5804px;line-height:1.25;font-family:Poppins;-inkscape-font-specification:'Poppins weight=255';letter-spacing:64.8048px;fill:#1a1a1a;stroke-width:1.24989"
           d="M -3259.6195 4552.8343 C -3260.6703 4552.8343 -3262.1291 4553.5394 -3262.1291 4555.4415 C -3262.1291 4557.2129 -3260.9899 4558.0487 -3259.6195 4558.0487 C -3258.0266 4558.0487 -3257.1075 4556.8167 -3257.1075 4555.4415 C -3257.1075 4553.901 -3258.3391 4552.8343 -3259.6195 4552.8343 z M -3789.5522 4553.535 L -3789.5522 4619.0176 L -3787.6188 4619.0176 L -3787.6188 4553.535 L -3789.5522 4553.535 z M -3453.2602 4553.535 L -3453.2602 4566.8639 L -3461.7604 4566.8639 L -3461.7604 4568.7949 L -3453.2602 4568.7949 L -3453.2602 4605.303 C -3453.2602 4614.5632 -3450.2872 4619.0176 -3440.6099 4619.0176 L -3434.9097 4619.0176 L -3434.9097 4617.0842 L -3440.4146 4617.0842 C -3448.1836 4617.0842 -3451.3292 4614.9221 -3451.3292 4605.303 L -3451.3292 4568.7949 L -3434.9097 4568.7949 L -3434.9097 4566.8639 L -3451.3292 4566.8639 L -3451.3292 4553.535 L -3453.2602 4553.535 z M -3335.531 4565.7043 C -3347.1851 4565.7043 -3354.0401 4570.3069 -3356.1005 4579.5142 L -3356.1005 4566.8639 L -3358.034 4566.8639 L -3358.034 4619.0176 L -3356.1005 4619.0176 L -3356.1005 4588.0144 C -3356.1005 4571.3877 -3345.0196 4567.8282 -3335.531 4567.8282 L -3335.531 4565.7043 z M -3892.312 4566.1877 C -3906.1685 4566.1877 -3917.4221 4575.4067 -3917.4221 4592.9408 C -3917.4221 4610.4755 -3906.1679 4619.6938 -3892.312 4619.6938 C -3876.9183 4619.6938 -3869.8379 4610.3222 -3868.3589 4601.3434 L -3870.2924 4601.3434 C -3872.035 4612.0661 -3881.0117 4617.9533 -3892.312 4617.9533 C -3903.0398 4617.9533 -3915.2749 4611.5818 -3915.4911 4593.8098 L -3868.4566 4593.8098 C -3866.9867 4567.6016 -3887.3412 4566.1877 -3892.312 4566.1877 z M -3683.6994 4566.1877 C -3697.5559 4566.1877 -3708.812 4575.4067 -3708.812 4592.9408 C -3708.812 4610.4755 -3697.5553 4619.6938 -3683.6994 4619.6938 C -3668.3057 4619.6938 -3661.2279 4610.3222 -3659.7489 4601.3434 L -3661.6798 4601.3434 C -3663.4224 4612.0661 -3672.3991 4617.9533 -3683.6994 4617.9533 C -3694.4272 4617.9533 -3706.6624 4611.5818 -3706.8786 4593.8098 L -3659.8441 4593.8098 C -3658.3742 4567.6016 -3678.7286 4566.1877 -3683.6994 4566.1877 z M -3558.2439 4566.1877 C -3571.4393 4566.1877 -3583.354 4574.9041 -3583.354 4592.9408 C -3583.354 4609.4448 -3573.0012 4619.6938 -3558.2439 4619.6938 C -3542.8498 4619.6938 -3535.7695 4610.3217 -3534.2908 4601.3434 L -3536.2218 4601.3434 C -3537.9642 4612.0661 -3546.9438 4617.9533 -3558.2439 4617.9533 C -3568.2487 4617.9533 -3581.423 4612.1758 -3581.423 4592.9408 C -3581.423 4574.1245 -3568.4509 4567.9258 -3558.2439 4567.9258 C -3546.9412 4567.9258 -3537.9639 4573.8176 -3536.2218 4584.5382 L -3534.2908 4584.5382 C -3535.8552 4575.0396 -3543.5507 4566.1877 -3558.2439 4566.1877 z M -3154.7335 4566.1877 C -3168.5869 4566.1877 -3179.8436 4575.4034 -3179.8436 4592.9408 C -3179.8436 4610.4781 -3168.587 4619.6938 -3154.7335 4619.6938 C -3139.3395 4619.6938 -3132.2593 4610.3218 -3130.7805 4601.3434 L -3132.7114 4601.3434 C -3134.4539 4612.0661 -3143.4333 4617.9533 -3154.7335 4617.9533 C -3166.6031 4617.9533 -3177.9127 4610.4729 -3177.9127 4592.9408 C -3177.9127 4574.1154 -3165.032 4567.9258 -3154.7335 4567.9258 C -3143.4309 4567.9258 -3134.4536 4573.8174 -3132.7114 4584.5382 L -3130.7805 4584.5382 C -3132.3449 4575.0397 -3140.0402 4566.1877 -3154.7335 4566.1877 z M -3892.312 4567.9258 C -3879.2467 4567.9258 -3869.2131 4577.3553 -3870.0995 4592.0717 L -3915.4911 4592.0717 C -3915.2616 4573.0277 -3901.3629 4567.9258 -3892.312 4567.9258 z M -3683.6994 4567.9258 C -3670.6341 4567.9258 -3660.6006 4577.3553 -3661.487 4592.0717 L -3706.8786 4592.0717 C -3706.6491 4573.0277 -3692.7503 4567.9258 -3683.6994 4567.9258 z M -3260.5838 4571.3777 L -3260.5838 4619.0176 L -3258.6528 4619.0176 L -3258.6528 4571.3777 L -3260.5838 4571.3777 z " /></g><path
         id="path48"
         style="opacity:1;fill:#000000;fill-opacity:1;fill-rule:evenodd;stroke:none;stroke-width:47.2398;stroke-linecap:butt;stroke-linejoin:round;stroke-dasharray:none;stroke-opacity:1"
         d="m -5978.9173,4219.9977 v 2.7941 h 482.5121 v -2.7941 z m 559.3896,0 v 2.7941 h 227.2523 v -2.7941 z" /></g><path
       id="rect1"
       style="baseline-shift:baseline;display:inline;overflow:visible;opacity:1;vector-effect:none;fill:#000000;fill-rule:evenodd;stroke-width:1;stroke-linejoin:round;enable-background:accumulate;stop-color:#000000;stop-opacity:1;fill-opacity:1"
       d="m -176.07453,197.06232 a 0.17609878,0.17609878 0 0 0 -0.0473,0.01 l 0.0113,-0.01 h -95.01288 l 0.0444,0.0379 a 0.17609878,0.17609878 0 0 0 -0.23148,0.0284 c -0.90421,3.27865 -3.25783,5.7238 -6.85647,6.66066 a 0.17609878,0.17609878 0 0 0 0,0.33849 c 3.59864,0.93689 5.95226,3.37908 6.85647,6.65774 a 0.17609878,0.17609878 0 0 0 0.2009,0.0692 h -0.0141 l 0.10987,-0.0772 a 0.17609878,0.17609878 0 0 1 -0.0961,0.0772 h 94.99833 l -0.0248,-0.0204 a 0.17609878,0.17609878 0 0 1 -0.0655,-0.0538 l 0.0655,0.0538 a 0.17609878,0.17609878 0 0 0 0.21183,-0.0487 c 0.90421,-3.27866 3.25492,-5.72085 6.85354,-6.65774 a 0.17609878,0.17609878 0 0 0 0,-0.33849 c -3.59862,-0.93686 -5.94933,-3.38201 -6.85354,-6.66066 a 0.17609878,0.17609878 0 0 0 -0.15068,-0.0669 z m -0.0487,0.0113 -0.0837,0.0641 a 0.17609878,0.17609878 0 0 1 0.0837,-0.0641 z m -94.95391,0.0292 a 0.17609878,0.17609878 0 0 1 0.0255,0.0211 z m -0.004,0.31302 h 94.92698 c 0.93695,3.13702 3.19623,5.51784 6.56966,6.54491 -3.37287,1.02726 -5.6328,3.40602 -6.56966,6.54273 h -94.92698 c -0.93689,-3.13686 -3.19724,-5.51554 -6.57037,-6.54273 3.37368,-1.027 5.63338,-3.40776 6.57037,-6.54491 z m 6.47138,3.86026 c -0.11523,0 -0.2128,0.0396 -0.29262,0.11932 -0.0799,0.0799 -0.11931,0.17734 -0.11931,0.29263 0,0.11523 0.0396,0.2128 0.11931,0.29263 0.0799,0.0799 0.17734,0.12016 0.29262,0.12016 0.11086,0 0.20413,-0.0403 0.27953,-0.12016 0.0799,-0.0799 0.12016,-0.17735 0.12016,-0.29263 0,-0.11523 -0.0403,-0.21281 -0.12016,-0.29263 -0.0754,-0.0799 -0.16867,-0.11932 -0.27953,-0.11932 z m 23.07788,0 c -0.11523,0 -0.21281,0.0396 -0.29264,0.11932 -0.0799,0.0799 -0.11931,0.17734 -0.11931,0.29263 0,0.11523 0.0396,0.2128 0.11931,0.29263 0.0799,0.0799 0.17735,0.12016 0.29264,0.12016 0.11086,0 0.20412,-0.0403 0.27953,-0.12016 0.0799,-0.0799 0.12016,-0.17735 0.12016,-0.29263 0,-0.11523 -0.0403,-0.21281 -0.12016,-0.29263 -0.0754,-0.0799 -0.16867,-0.11932 -0.27953,-0.11932 z m -12.12384,0.13974 v 4.9216 h 0.60493 v -2.01494 c 0,-0.38133 0.0933,-0.67181 0.27952,-0.87134 0.19067,-0.19954 0.44581,-0.29919 0.76506,-0.29919 0.31484,0 0.56289,0.0975 0.74469,0.29264 0.1818,0.19067 0.27298,0.46771 0.27298,0.83131 v 2.06152 h 0.59836 v -2.14815 c 0,-0.33698 -0.0644,-0.62323 -0.1929,-0.85823 -0.1241,-0.23502 -0.29732,-0.41029 -0.51903,-0.52559 -0.22169,-0.11973 -0.46975,-0.17906 -0.74468,-0.17906 -0.26161,0 -0.49908,0.0508 -0.71192,0.15286 -0.20841,0.10199 -0.37236,0.24616 -0.49208,0.4324 v -1.79583 z m 35.67414,0.22639 c -0.30152,0 -0.56936,0.053 -0.80436,0.15943 -0.23057,0.10635 -0.41009,0.25767 -0.53868,0.45276 -0.12861,0.19512 -0.19291,0.41843 -0.19291,0.67117 0,0.28822 0.0644,0.51934 0.19291,0.69227 0.13297,0.16848 0.28991,0.29215 0.47171,0.37198 0.18622,0.0799 0.43291,0.15967 0.73885,0.23948 0.24832,0.0665 0.4455,0.12875 0.59182,0.18637 0.14633,0.0576 0.26787,0.14172 0.36543,0.25258 0.0975,0.11086 0.14631,0.25504 0.14631,0.4324 0,0.22613 -0.0841,0.41274 -0.25259,0.55907 -0.16407,0.14187 -0.39023,0.21255 -0.67844,0.21255 -0.30153,0 -0.53192,-0.0728 -0.69155,-0.2191 -0.1552,-0.15077 -0.24426,-0.33525 -0.26643,-0.55252 h -0.64495 c 0.004,0.25274 0.0758,0.47679 0.21329,0.67188 0.13748,0.19068 0.32544,0.34121 0.56488,0.45207 0.24388,0.10635 0.5188,0.16013 0.82476,0.16013 0.31926,0 0.5963,-0.0623 0.8313,-0.18635 0.23501,-0.1241 0.41241,-0.28599 0.53213,-0.48553 0.11974,-0.19954 0.1798,-0.41226 0.1798,-0.6384 0,-0.29266 -0.0665,-0.52376 -0.19946,-0.69227 -0.13298,-0.17292 -0.29275,-0.29871 -0.47898,-0.37853 -0.18624,-0.0842 -0.43218,-0.16909 -0.73814,-0.25333 -0.25274,-0.0709 -0.44992,-0.13241 -0.59181,-0.18562 -0.13749,-0.0576 -0.25549,-0.1396 -0.35305,-0.24605 -0.0931,-0.10635 -0.13974,-0.24424 -0.13974,-0.41273 0,-0.23502 0.0799,-0.41664 0.2395,-0.54523 0.15963,-0.13298 0.36601,-0.19945 0.61875,-0.19945 0.27049,0 0.48817,0.0686 0.65223,0.206 0.16407,0.13297 0.25664,0.28852 0.2788,0.46588 h 0.66533 c -0.0355,-0.35916 -0.19307,-0.64753 -0.47243,-0.8648 -0.27491,-0.21727 -0.62971,-0.32611 -1.06425,-0.32611 z m -52.38107,0.0597 v 4.63552 h 2.22821 v -0.49209 h -1.62258 v -4.14343 z m 23.66385,0.0728 v 0.91793 h -0.47243 v 0.49864 h 0.47243 v 2.14888 c 0,0.35472 0.0841,0.60914 0.2526,0.76433 0.16849,0.15519 0.42079,0.23293 0.75779,0.23293 h 0.54595 v -0.51173 h -0.4455 c -0.1862,0 -0.31768,-0.0361 -0.39309,-0.10706 -0.0754,-0.0754 -0.11283,-0.20117 -0.11283,-0.37852 v -2.14888 h 0.95142 v -0.49863 h -0.95142 v -0.91793 z m 46.24237,7.2e-4 v 0.91793 h -0.47243 v 0.49865 h 0.47243 v 2.14815 c 0,0.35472 0.0841,0.60986 0.2526,0.76506 0.1685,0.15519 0.42153,0.23294 0.75852,0.23294 h 0.54523 v -0.51247 h -0.4455 c -0.18621,0 -0.31696,-0.0354 -0.39237,-0.10635 -0.0754,-0.0754 -0.11353,-0.20191 -0.11353,-0.37925 v -2.14815 h 0.95141 v -0.49865 h -0.95141 v -0.91793 z m -35.40844,0.85096 c -0.24832,0 -0.47658,0.0508 -0.68499,0.15287 -0.20397,0.10199 -0.36582,0.24616 -0.48553,0.4324 v -0.51902 h -0.60565 v 3.64478 h 0.60565 v -2.01493 c 0,-0.38133 0.0926,-0.67181 0.2788,-0.87135 0.19066,-0.19953 0.44581,-0.29918 0.76507,-0.29918 0.31481,0 0.56288,0.0975 0.74468,0.29263 0.1818,0.19068 0.27297,0.46772 0.27297,0.83132 v 2.06151 h 0.59836 v -2.14814 c 0,-0.50548 -0.13706,-0.89138 -0.412,-1.15742 -0.27491,-0.27049 -0.63395,-0.40547 -1.07736,-0.40547 z m 48.71009,0 c -0.24388,0 -0.46791,0.0516 -0.67188,0.1536 -0.19954,0.10199 -0.35926,0.24828 -0.479,0.43895 v -0.52558 h -0.60582 v 3.6448 h 0.60564 v -2.00912 c 0,-0.38133 0.0932,-0.6718 0.27953,-0.87135 0.18624,-0.20397 0.43642,-0.30573 0.75123,-0.30573 0.30596,0 0.54767,0.0975 0.72504,0.29263 0.1818,0.19068 0.27298,0.46772 0.27298,0.83132 v 2.06225 h 0.59836 v -2.00912 c 0,-0.38133 0.0933,-0.6718 0.27952,-0.87135 0.18624,-0.20397 0.43642,-0.30573 0.75125,-0.30573 0.30596,0 0.54767,0.0975 0.72502,0.29263 0.1818,0.19068 0.27298,0.46772 0.27298,0.83132 v 2.06225 h 0.59837 V 204.19 c 0,-0.33699 -0.0644,-0.62323 -0.1929,-0.85825 -0.12861,-0.23501 -0.30386,-0.41027 -0.52559,-0.52557 -0.22169,-0.11973 -0.47399,-0.1798 -0.75778,-0.1798 -0.28822,0 -0.54971,0.0714 -0.78472,0.21329 -0.235,0.14189 -0.40393,0.3412 -0.50591,0.59836 -0.11523,-0.26604 -0.29056,-0.46746 -0.52558,-0.60491 -0.23501,-0.13749 -0.50496,-0.20674 -0.81092,-0.20674 z m -72.06094,0.007 c -0.32369,0 -0.61839,0.0778 -0.88444,0.23294 -0.26162,0.1552 -0.46799,0.37427 -0.61875,0.65805 -0.15076,0.27935 -0.22639,0.60516 -0.22639,0.97762 0,0.36804 0.0756,0.69669 0.22639,0.98492 0.15076,0.2882 0.35713,0.51224 0.61875,0.67188 0.26605,0.15963 0.56075,0.23876 0.88444,0.23876 0.31482,0 0.58975,-0.0707 0.82475,-0.21256 0.23502,-0.14188 0.41241,-0.31928 0.53214,-0.53212 v 0.76507 c 0,0.3769 -0.10678,0.66949 -0.31957,0.8779 -0.20841,0.20839 -0.47836,0.31228 -0.81093,0.31228 -0.29265,0 -0.54356,-0.0686 -0.75197,-0.20602 -0.20842,-0.13297 -0.34551,-0.31041 -0.412,-0.53211 h -0.5991 c 0.0576,0.39019 0.24635,0.69834 0.5656,0.92448 0.31926,0.22614 0.71858,0.33922 1.19747,0.33922 0.3503,0 0.6556,-0.0728 0.91721,-0.2191 0.26604,-0.14633 0.47031,-0.35059 0.61219,-0.6122 0.1419,-0.25719 0.21256,-0.5519 0.21256,-0.88445 v -3.72487 h -0.61146 v 0.66534 c -0.11523,-0.20841 -0.29269,-0.38158 -0.53214,-0.51903 -0.235,-0.13749 -0.50993,-0.206 -0.82475,-0.206 z m 29.90159,0 c -0.32371,0 -0.61841,0.0778 -0.88445,0.23294 -0.26162,0.1552 -0.468,0.375 -0.61875,0.65879 -0.15075,0.27933 -0.2264,0.60515 -0.2264,0.97761 0,0.36804 0.0757,0.69596 0.2264,0.98419 0.15075,0.2882 0.35713,0.51224 0.61875,0.67188 0.26604,0.15963 0.56074,0.2395 0.88445,0.2395 0.31482,0 0.58974,-0.0707 0.82475,-0.21257 0.235,-0.14189 0.41239,-0.31928 0.53213,-0.53212 v 0.76434 c 0,0.3769 -0.10678,0.67022 -0.31957,0.87861 -0.20841,0.20841 -0.47836,0.31229 -0.81093,0.31229 -0.29265,0 -0.54355,-0.0686 -0.75196,-0.206 -0.20843,-0.13298 -0.34553,-0.31043 -0.41202,-0.53212 h -0.59908 c 0.0576,0.3902 0.24634,0.69834 0.5656,0.92448 0.31925,0.22615 0.71858,0.33922 1.19746,0.33922 0.3503,0 0.65632,-0.0735 0.91793,-0.21983 0.26606,-0.14633 0.46959,-0.34987 0.61147,-0.61148 0.14191,-0.25718 0.21328,-0.55262 0.21328,-0.88517 v -3.72415 h -0.61218 v 0.66462 c -0.11523,-0.20841 -0.29269,-0.38084 -0.53213,-0.5183 -0.23501,-0.13748 -0.50993,-0.20673 -0.82475,-0.20673 z m 23.89607,0 c -0.26161,0 -0.49412,0.0468 -0.6981,0.13973 -0.20397,0.0888 -0.36157,0.21096 -0.47243,0.36615 -0.11086,0.1552 -0.16597,0.32551 -0.16597,0.51175 0,0.23501 0.0593,0.42584 0.17907,0.57215 0.1241,0.14188 0.27046,0.25072 0.43895,0.32612 0.17294,0.071 0.39486,0.14167 0.66535,0.21257 0.29708,0.0754 0.51687,0.15312 0.65878,0.23293 0.14188,0.0754 0.21255,0.1927 0.21255,0.35233 0,0.15519 -0.0665,0.28382 -0.19945,0.3858 -0.13297,0.10199 -0.31465,0.15287 -0.54523,0.15287 -0.2483,0 -0.45044,-0.0572 -0.60565,-0.17252 -0.15075,-0.11523 -0.23483,-0.2637 -0.25258,-0.4455 h -0.6253 c 0.0127,0.22171 0.0839,0.41888 0.21255,0.59182 0.12861,0.16849 0.30387,0.30135 0.52558,0.39891 0.22171,0.0931 0.47262,0.13974 0.75195,0.13974 0.26161,0 0.49201,-0.0445 0.69155,-0.13326 0.20397,-0.0931 0.36158,-0.2189 0.47243,-0.37853 0.11086,-0.15963 0.16597,-0.33986 0.16597,-0.5394 -0.004,-0.22172 -0.0666,-0.40123 -0.18635,-0.53868 -0.11523,-0.13749 -0.2545,-0.23925 -0.41857,-0.30573 -0.16406,-0.0709 -0.37678,-0.14156 -0.6384,-0.21256 -0.20841,-0.0576 -0.37309,-0.1086 -0.49281,-0.15286 -0.11523,-0.0487 -0.21281,-0.111 -0.29264,-0.18637 -0.0754,-0.0799 -0.11283,-0.17946 -0.11283,-0.29918 0,-0.15071 0.0644,-0.273 0.1929,-0.36615 0.12861,-0.0931 0.30176,-0.13974 0.51903,-0.13974 0.23501,0 0.42086,0.058 0.55832,0.17325 0.14187,0.11537 0.21961,0.26794 0.23295,0.4586 h 0.60491 c -0.0177,-0.35472 -0.15059,-0.63389 -0.39891,-0.83785 -0.2483,-0.20397 -0.57411,-0.30646 -0.97762,-0.30646 z m 11.39299,0 c -0.35473,0 -0.66995,0.0778 -0.94487,0.23294 -0.27048,0.15076 -0.48109,0.36845 -0.63185,0.65224 -0.15075,0.28378 -0.22639,0.61382 -0.22639,0.99071 0,0.3769 0.0778,0.70979 0.23294,0.99802 0.1552,0.28378 0.36793,0.50286 0.6384,0.65805 0.27492,0.15519 0.5859,0.23295 0.93177,0.23295 0.43454,0 0.7978,-0.10889 1.09045,-0.32612 0.29265,-0.22171 0.48772,-0.50723 0.58527,-0.85751 h -0.65152 c -0.071,0.20395 -0.19534,0.36792 -0.3727,0.49208 -0.17294,0.11973 -0.38989,0.17907 -0.6515,0.17907 -0.31926,0 -0.59207,-0.0996 -0.81821,-0.29919 -0.22173,-0.20397 -0.34398,-0.48525 -0.36615,-0.8444 h 2.91321 c 0.0127,-0.12861 0.0204,-0.25086 0.0204,-0.36616 0,-0.33256 -0.0735,-0.62939 -0.21983,-0.891 -0.14189,-0.26605 -0.34543,-0.47455 -0.61147,-0.6253 -0.26605,-0.15075 -0.57206,-0.22638 -0.91793,-0.22638 z m 15.74242,7.3e-4 c -0.26162,0 -0.49485,0.0459 -0.69882,0.13903 -0.20397,0.0888 -0.36085,0.21096 -0.4717,0.36615 -0.11086,0.15519 -0.1667,0.32551 -0.1667,0.51175 0,0.23501 0.06,0.42584 0.1798,0.57215 0.1241,0.14188 0.27045,0.25071 0.43895,0.32612 0.17293,0.071 0.39486,0.14167 0.66533,0.21256 0.2971,0.0754 0.51617,0.15312 0.65805,0.23294 0.1419,0.0754 0.2133,0.1927 0.2133,0.35233 0,0.15519 -0.0665,0.28381 -0.19946,0.3858 -0.13298,0.10199 -0.31537,0.15287 -0.54595,0.15287 -0.24831,0 -0.44973,-0.0572 -0.60492,-0.17252 -0.15075,-0.11523 -0.23485,-0.2637 -0.2526,-0.4455 h -0.6253 c 0.0127,0.22171 0.084,0.41888 0.21257,0.59182 0.12861,0.16848 0.30386,0.30135 0.52556,0.39891 0.22171,0.0931 0.47261,0.13974 0.75197,0.13974 0.26161,0 0.49201,-0.0445 0.69153,-0.13326 0.20398,-0.0931 0.36159,-0.2189 0.47244,-0.37853 0.11086,-0.15963 0.16598,-0.33987 0.16598,-0.5394 -0.004,-0.22172 -0.0666,-0.40123 -0.18637,-0.53868 -0.11522,-0.13749 -0.2545,-0.23925 -0.41856,-0.30574 -0.16405,-0.0709 -0.37752,-0.14155 -0.63914,-0.21255 -0.20839,-0.0576 -0.37234,-0.1086 -0.49208,-0.15286 -0.11523,-0.0487 -0.2128,-0.11101 -0.29263,-0.18637 -0.0754,-0.0799 -0.11283,-0.17946 -0.11283,-0.29918 0,-0.15071 0.0644,-0.273 0.19291,-0.36615 0.12861,-0.0931 0.30101,-0.13974 0.51828,-0.13974 0.23502,0 0.42161,0.058 0.55907,0.17325 0.14185,0.11537 0.21961,0.26794 0.23293,0.4586 h 0.60492 c -0.0178,-0.35473 -0.15058,-0.63389 -0.3989,-0.83785 -0.24832,-0.20397 -0.57412,-0.30573 -0.97763,-0.30573 z m -86.63939,0.059 v 3.64478 h 0.60491 v -3.64478 z m 23.07787,0 v 3.64478 h 0.60565 v -3.64478 z m 28.47192,7.2e-4 1.4697,3.60476 -0.71847,1.75578 h 0.6253 l 2.19473,-5.36054 h -0.6253 l -1.13048,2.95325 -1.1436,-2.95325 z m 19.32025,0.45205 c 0.21283,0 0.40577,0.0445 0.5787,0.13326 0.17736,0.0842 0.31731,0.21076 0.4193,0.37925 0.10198,0.16406 0.15286,0.36125 0.15286,0.59181 h -2.30174 c 0.031,-0.34585 0.15331,-0.61653 0.36616,-0.81165 0.21727,-0.19509 0.47876,-0.29263 0.78472,-0.29263 z m -65.04433,0.0127 c 0.22613,0 0.43251,0.0551 0.61875,0.16598 0.19067,0.10635 0.34118,0.26191 0.45205,0.46588 0.11086,0.20397 0.1667,0.44356 0.1667,0.71847 0,0.27491 -0.0558,0.5159 -0.1667,0.7243 -0.11087,0.20397 -0.26138,0.36158 -0.45205,0.47243 -0.18624,0.10635 -0.39262,0.15942 -0.61875,0.15942 -0.22615,0 -0.4318,-0.053 -0.61803,-0.15942 -0.18623,-0.11086 -0.33538,-0.26846 -0.44622,-0.47243 -0.11086,-0.2084 -0.16597,-0.45222 -0.16597,-0.73158 0,-0.27492 0.0551,-0.51378 0.16597,-0.71775 0.11086,-0.20398 0.25999,-0.35946 0.44622,-0.46587 0.18623,-0.10636 0.39188,-0.15943 0.61803,-0.15943 z m 29.9023,0 c 0.22614,0 0.43179,0.0558 0.61803,0.1667 0.19067,0.10635 0.34192,0.26119 0.45277,0.46516 0.11086,0.20397 0.16598,0.44356 0.16598,0.71847 0,0.27491 -0.0551,0.51662 -0.16598,0.72503 -0.11086,0.20397 -0.2621,0.36159 -0.45277,0.47243 -0.18624,0.10636 -0.39189,0.15942 -0.61803,0.15942 -0.22615,0 -0.43251,-0.053 -0.61875,-0.15942 -0.18622,-0.11086 -0.33464,-0.26846 -0.4455,-0.47243 -0.11086,-0.20841 -0.1667,-0.45223 -0.1667,-0.73158 0,-0.27491 0.0558,-0.51451 0.1667,-0.71848 0.11086,-0.20398 0.25928,-0.35873 0.4455,-0.46515 0.18624,-0.10636 0.3926,-0.16015 0.61875,-0.16015 z" /></g></svg>
