<?xml version="1.0" encoding="UTF-8" standalone="no"?>
<!-- Created with Inkscape (http://www.inkscape.org/) -->

<svg
   width="677.33325mm"
   height="380.99997mm"
   viewBox="0 0 677.33325 380.99997"
   version="1.1"
   id="svg1"
   xml:space="preserve"
   inkscape:version="1.4.2 (ebf0e94, 2025-05-08)"
   sodipodi:docname="Logo optimized.svg"
   xmlns:inkscape="http://www.inkscape.org/namespaces/inkscape"
   xmlns:sodipodi="http://sodipodi.sourceforge.net/DTD/sodipodi-0.dtd"
   xmlns="http://www.w3.org/2000/svg"
   xmlns:svg="http://www.w3.org/2000/svg"><sodipodi:namedview
     id="namedview1"
     pagecolor="#505050"
     bordercolor="#eeeeee"
     borderopacity="1"
     inkscape:showpageshadow="0"
     inkscape:pageopacity="0"
     inkscape:pagecheckerboard="0"
     inkscape:deskcolor="#505050"
     inkscape:document-units="mm"
     showguides="true"
     inkscape:zoom="0.11313708"
     inkscape:cx="667.33203"
     inkscape:cy="1763.3475"
     inkscape:window-width="1920"
     inkscape:window-height="1048"
     inkscape:window-x="0"
     inkscape:window-y="0"
     inkscape:window-maximized="1"
     inkscape:current-layer="layer1"><sodipodi:guide
       position="5172.49,4952.5382"
       orientation="0,-1"
       id="guide3"
       inkscape:locked="false" /><sodipodi:guide
       position="5535.176,5168.1954"
       orientation="0,-1"
       id="guide9"
       inkscape:locked="false" /><sodipodi:guide
       position="5702.2058,4945.5351"
       orientation="0,-1"
       id="guide10"
       inkscape:locked="false" /><sodipodi:guide
       position="5083.0398,4413.2709"
       orientation="0,-1"
       id="guide11"
       inkscape:locked="false" /><sodipodi:guide
       position="5723.0577,4415.3643"
       orientation="0,-1"
       id="guide12"
       inkscape:locked="false" /><sodipodi:guide
       position="5150.9153,4524.6011"
       orientation="0,-1"
       id="guide16"
       inkscape:locked="false" /><sodipodi:guide
       position="5684.0125,4413.2709"
       orientation="1,0"
       id="guide17"
       inkscape:locked="false" /><sodipodi:guide
       position="5738.1188,4502.3695"
       orientation="1,0"
       id="guide18"
       inkscape:locked="false" /><sodipodi:guide
       position="5724.9703,4426.9439"
       orientation="1,0"
       id="guide20"
       inkscape:locked="false" /><sodipodi:guide
       position="5751.888,4556.598"
       orientation="1,0"
       id="guide21"
       inkscape:locked="false" /><sodipodi:guide
       position="5404.8121,4635.9312"
       orientation="0,-1"
       id="guide22"
       inkscape:locked="false" /><sodipodi:guide
       position="5258.5456,4633.8379"
       orientation="0,-1"
       id="guide23"
       inkscape:locked="false" /><sodipodi:guide
       position="5336.9366,4503.7678"
       orientation="1,0"
       id="guide24"
       inkscape:locked="false" /><sodipodi:guide
       position="6059.7762,4635.9312"
       orientation="1,0"
       id="guide29"
       inkscape:locked="false" /><sodipodi:guide
       position="6127.6517,4137.8161"
       orientation="0,-1"
       id="guide34"
       inkscape:locked="false" /><sodipodi:guide
       position="6127.6517,4224.7254"
       orientation="0,-1"
       id="guide35"
       inkscape:locked="false" /><sodipodi:guide
       position="5363.8549,2172.5413"
       orientation="0,-1"
       id="guide62"
       inkscape:locked="false" /><sodipodi:guide
       position="5677.398,2170.448"
       orientation="0,-1"
       id="guide63"
       inkscape:locked="false" /><sodipodi:guide
       position="7029.0298,2393.1083"
       orientation="0,-1"
       id="guide64"
       inkscape:locked="false" /><sodipodi:guide
       position="5902.1884,2391.015"
       orientation="0,-1"
       id="guide65"
       inkscape:locked="false" /><sodipodi:guide
       position="2236.6672,1171.0235"
       orientation="0,-1"
       id="guide113"
       inkscape:locked="false" /><sodipodi:guide
       position="263.80793,1326.2442"
       orientation="0,-1"
       id="guide123"
       inkscape:locked="false" /><sodipodi:guide
       position="1910.0856,1840.6941"
       orientation="1,0"
       id="guide143"
       inkscape:locked="false" /><sodipodi:guide
       position="2010.1902,1740.5892"
       orientation="0,-1"
       id="guide144"
       inkscape:locked="false" /><sodipodi:guide
       position="1896.5108,1818.8399"
       orientation="0,-1"
       id="guide156"
       inkscape:locked="false" /><sodipodi:guide
       position="2507.6544,911.66024"
       orientation="0,-1"
       id="guide212"
       inkscape:locked="false" /><sodipodi:guide
       position="2488.4219,1983.9642"
       orientation="0,-1"
       id="guide239"
       inkscape:locked="false" /><inkscape:page
       x="0"
       y="3.0643261e-13"
       width="677.33325"
       height="380.99997"
       id="page2"
       margin="0"
       bleed="0" /></sodipodi:namedview><defs
     id="defs1" /><g
     inkscape:label="Layer 1"
     inkscape:groupmode="layer"
     id="layer1"
     transform="translate(5958.9834,-5141.7786)"><rect
       style="fill:#ffffff;fill-opacity:1;fill-rule:evenodd;stroke-width:10;stroke-linejoin:round"
       id="rect32"
       width="677.33331"
       height="381"
       x="-5958.9834"
       y="5141.7788"
       inkscape:export-filename="logo full.png"
       inkscape:export-xdpi="72"
       inkscape:export-ydpi="72" /><g
       id="g48"
       transform="matrix(0.21932452,0,0,0.21932452,-4395.2585,4428.0424)"
       style="stroke-width:4.55946"><g
         id="g38"
         transform="translate(-2361.2876,-117.03513)"
         style="stroke-width:4.55946"><path
           id="path33"
           style="opacity:1;fill:#8c7826;fill-opacity:1;fill-rule:evenodd;stroke:none;stroke-width:9.1189;stroke-linecap:round"
           d="m -3278.9607,4073.4157 c -10.074,0 -19.6217,2.1728 -28.2024,6.0772 l 3.717,4.8436 c 7.1318,-6.0384 14.3661,-8.1276 24.4854,-8.1276 22.6905,0 40.9577,18.2667 40.9577,40.9571 v 16.0234 c -11.3689,-8.5892 -25.5477,-13.6736 -40.9577,-13.6736 -37.603,0 -67.8755,30.2729 -67.8755,67.8759 v 40.8089 c 0,37.603 30.2725,67.8749 67.8755,67.8749 15.4065,0 29.5824,-5.0813 40.9499,-13.6668 -0.1319,6.8185 -1.9048,11.5739 -1.9048,11.5739 h 30.7429 c 0,0 -1.9126,-5.1301 -1.9126,-12.3734 v -140.348 c 0,-37.5889 -30.2825,-67.8455 -67.8754,-67.8455 z m 0,48.8942 c 22.6905,0 40.9577,18.2667 40.9577,40.9572 v 21.4788 13.7893 53.79 c 0,22.6905 -18.2672,40.9572 -40.9577,40.9572 -22.6904,0 -40.9572,-18.2667 -40.9572,-40.9572 v -89.0581 c 0,-22.6905 18.2668,-40.9572 40.9572,-40.9572 z"
           sodipodi:nodetypes="sccsscsssscccsssssccsssss" /><path
           id="path34"
           style="opacity:1;fill:#8c7826;fill-opacity:1;fill-rule:evenodd;stroke:none;stroke-width:9.1189;stroke-linecap:round"
           d="m -3547.8425,4073.4157 c -16.2863,0 -31.1976,5.6783 -42.8697,15.1717 0,-2.7426 0.2308,-8.3404 1.9125,-13.0788 h -28.8303 c 0,0 1.9126,5.13 1.9126,12.3734 l -5e-4,193.9298 c -0.035,7.1361 -1.9116,12.1708 -1.9116,12.1708 h 30.7423 c 0,0 -1.9125,-5.1301 -1.9125,-12.3734 V 4117.166 c 0,-22.6904 18.2667,-40.9571 40.9572,-40.9571 22.6905,0 40.9577,18.2667 40.9577,40.9571 v 164.5337 c -0.016,7.1954 -1.912,12.2829 -1.912,12.2829 h 30.7423 c 0,0 -1.912,-5.1301 -1.912,-12.3734 V 4117.166 c 0,-22.6904 18.2666,-40.9571 40.9571,-40.9571 22.6905,0 40.9578,18.2667 40.9578,40.9571 v 164.4432 c 0,7.2434 -1.9126,12.3734 -1.9126,12.3734 h 1.9126 26.9177 1.9125 c 0,0 -1.9125,-5.0876 -1.9125,-12.2829 v -140.409 c 0,-37.6031 -30.2725,-67.8755 -67.8755,-67.8755 -22.3215,0 -42.0597,10.667 -54.4163,27.2025 -12.3565,-16.5355 -32.0953,-27.2025 -54.4168,-27.2025 z"
           sodipodi:nodetypes="scccscccsssscccsssssccccssscss" /><path
           id="path35"
           style="opacity:1;fill:#8c7826;fill-opacity:1;fill-rule:evenodd;stroke:none;stroke-width:9.1189;stroke-linecap:round"
           d="m -3109.1416,4073.4157 c -37.603,0 -67.8755,30.272 -67.8755,67.875 v 86.9094 c 0,37.603 30.2725,67.8754 67.8755,67.8754 15.41,0 29.5888,-5.0839 40.9577,-13.673 v 13.673 c 0,26.5819 -22.2382,40.9926 -40.9577,40.9572 -0.7519,0 -1.2842,-0.1984 -1.2842,-0.1984 v 3.191 c 0,0 0.5323,-0.1984 1.2842,-0.1984 37.5928,0 67.8754,-30.2556 67.8754,-67.8445 V 4087.882 c 0,-7.2433 1.9126,-12.3734 1.9126,-12.3734 h -30.7429 c 0,0 1.7729,4.7559 1.9048,11.5745 -11.3675,-8.5855 -25.5433,-13.6674 -40.9499,-13.6674 z m 0,2.7932 c 22.6905,0 40.9577,18.2666 40.9577,40.9571 v 135.1592 c 0,22.6904 -18.2672,40.9567 -40.9577,40.9567 -22.6904,0 -40.9572,-18.2663 -40.9572,-40.9567 V 4117.166 c 0,-22.6905 18.2668,-40.9571 40.9572,-40.9571 z"
           sodipodi:nodetypes="sssscssccssscccssssssss" /><path
           id="path36"
           style="opacity:1;fill:#8c7826;fill-opacity:1;fill-rule:evenodd;stroke:none;stroke-width:9.1189;stroke-linecap:round"
           d="m -3003.4862,4139.4936 c 0,0 1.9125,5.13 1.9125,12.3734 v 129.742 c 0,7.2434 -1.9125,12.3734 -1.9125,12.3734 h 30.7428 c 0,0 -1.9125,-5.1301 -1.9125,-12.3734 v -129.742 c 0,-7.2433 1.9125,-12.3734 1.9125,-12.3734 z"
           sodipodi:nodetypes="cssccsscc" /><path
           id="path37"
           style="opacity:1;fill:#8c7826;fill-opacity:1;fill-rule:evenodd;stroke:none;stroke-width:9.1189;stroke-linecap:round"
           d="m -2871.5586,4073.4155 c -37.6031,0 -67.8755,30.2724 -67.8755,67.8755 v 86.9094 c 0,37.603 30.2724,67.8754 67.8755,67.8754 15.2357,0 29.2682,-4.9697 40.5711,-13.3831 l -4.5067,-10.88 c -6.9088,12.8059 -20.4378,21.4695 -36.0644,21.4695 -22.6906,0 -40.9573,-18.2667 -40.9573,-40.9572 v -135.1587 c 0,-22.6904 18.2667,-40.9572 40.9573,-40.9572 15.6266,0 29.1556,8.6637 36.0644,21.4695 l 4.5067,-10.8799 c -11.3029,-8.4134 -25.3354,-13.3832 -40.5711,-13.3832 z" /><path
           id="path38"
           style="opacity:1;fill:#c8ab37;fill-opacity:1;fill-rule:evenodd;stroke-width:9.11886;stroke-linecap:round"
           inkscape:transform-center-y="7.7582497"
           d="m -2988.1149,4062.5673 c -4.0865,15.2507 -14.7907,26.6803 -31.0322,31.0322 16.2415,4.3519 26.9457,15.7815 31.0322,31.0322 4.0865,-15.2507 14.7907,-26.6803 31.0322,-31.0322 -16.2415,-4.3519 -26.9457,-15.7815 -31.0322,-31.0322 z"
           sodipodi:nodetypes="ccccc" /></g><g
         id="g47"
         transform="translate(-2061.4945,-319.57729)"
         style="stroke-width:4.55946"><path
           style="font-weight:255;font-size:96.5804px;line-height:1.25;font-family:Poppins;-inkscape-font-specification:'Poppins weight=255';letter-spacing:64.8048px;fill:#333333;stroke-width:1.20635"
           d="m -3179.8438,4592.9399 c 0,-17.5374 11.2575,-26.7528 25.1109,-26.7528 14.6933,0 22.3875,8.8518 23.9519,18.3503 h -1.9316 c -1.7422,-10.7208 -10.7177,-16.6118 -22.0203,-16.6118 -10.2985,0 -23.1793,6.1889 -23.1793,25.0143 0,17.5321 11.3097,25.0143 23.1793,25.0143 11.3002,0 20.2778,-5.8891 22.0203,-16.6118 h 1.9316 c -1.4788,8.9784 -8.5579,18.3503 -23.9519,18.3503 -13.8535,0 -25.1109,-9.2155 -25.1109,-26.7528 z"
           id="path39" /><path
           style="font-weight:255;font-size:96.5804px;line-height:1.25;font-family:Poppins;-inkscape-font-specification:'Poppins weight=255';letter-spacing:64.8048px;fill:#333333;stroke-width:1.20635"
           d="m -3258.6526,4571.3767 v 47.6399 h -1.9316 v -47.6399 z"
           id="path40" /><path
           style="font-weight:255;font-size:96.5804px;line-height:1.25;font-family:Poppins;-inkscape-font-specification:'Poppins weight=255';letter-spacing:64.8048px;fill:#333333;stroke-width:1.20635"
           d="m -3259.6184,4558.0486 c -1.3704,0 -2.5111,-0.8363 -2.5111,-2.6077 0,-1.9021 1.4603,-2.6077 2.5111,-2.6077 1.2804,0 2.511,1.0672 2.511,2.6077 0,1.3752 -0.9181,2.6077 -2.511,2.6077 z"
           id="path41" /><path
           style="font-weight:255;font-size:96.5804px;line-height:1.25;font-family:Poppins;-inkscape-font-specification:'Poppins weight=255';letter-spacing:64.8048px;fill:#333333;stroke-width:1.20635"
           d="m -3356.1016,4579.5152 c 2.0604,-9.2073 8.9176,-13.811 20.5717,-13.811 v 2.1248 c -9.4886,0 -20.5717,3.5586 -20.5717,20.1853 v 31.0023 h -1.9316 v -52.1534 h 1.9316 z"
           id="path42" /><path
           style="font-weight:255;font-size:96.5804px;line-height:1.25;font-family:Poppins;-inkscape-font-specification:'Poppins weight=255';letter-spacing:64.8048px;fill:#333333;stroke-width:1.20635"
           d="m -3451.3291,4568.7948 v 36.5074 c 0,9.6191 3.1445,11.7828 10.9135,11.7828 h 5.5051 v 1.9316 h -5.6982 c -9.6773,0 -12.6521,-4.4542 -12.6521,-13.7144 v -36.5074 h -8.499 v -1.9316 h 8.499 v -13.3281 h 1.9317 v 13.3281 h 16.4186 v 1.9316 z"
           id="path43" /><path
           style="font-weight:255;font-size:96.5804px;line-height:1.25;font-family:Poppins;-inkscape-font-specification:'Poppins weight=255';letter-spacing:64.8048px;fill:#333333;stroke-width:1.20635"
           d="m -3583.3537,4592.9399 c 0,-18.0367 11.9155,-26.7528 25.1109,-26.7528 14.6932,0 22.3875,8.8517 23.9519,18.3503 h -1.9316 c -1.7421,-10.7206 -10.7176,-16.6118 -22.0203,-16.6118 -10.207,0 -23.1793,6.198 -23.1793,25.0143 0,19.235 13.1745,25.0143 23.1793,25.0143 11.3001,0 20.2779,-5.8891 22.0203,-16.6118 h 1.9316 c -1.4787,8.9783 -8.5578,18.3503 -23.9519,18.3503 -14.7573,0 -25.1109,-10.2488 -25.1109,-26.7528 z"
           id="path44" /><path
           style="font-weight:255;font-size:96.5804px;line-height:1.25;font-family:Poppins;-inkscape-font-specification:'Poppins weight=255';letter-spacing:64.8048px;fill:#333333;stroke-width:1.20635"
           d="m -3787.6197,4553.5352 v 65.4814 h -1.9316 v -65.4814 z"
           id="path45" /><path
           style="font-weight:255;font-size:96.5804px;line-height:1.25;font-family:Poppins;-inkscape-font-specification:'Poppins weight=255';letter-spacing:64.8048px;fill:#333333;stroke-width:1.20635"
           d="m -3892.3121,4617.9542 c 11.3003,0 20.2778,-5.8891 22.0204,-16.6118 h 1.9316 c -1.479,8.9788 -8.5583,18.3503 -23.952,18.3503 -13.8559,0 -25.1109,-9.2181 -25.1109,-26.7528 0,-17.5341 11.2544,-26.7528 25.1109,-26.7528 4.9708,0 25.3249,1.4138 23.855,27.622 h -47.0347 c 0.2162,17.772 12.4515,24.1451 23.1793,24.1451 z m 0,-50.0286 c -9.0509,0 -22.9497,5.1011 -23.1792,24.1451 h 45.3928 c 0.8864,-14.7164 -9.1483,-24.1451 -22.2136,-24.1451 z"
           id="path46"
           sodipodi:nodetypes="sccsssccsssccs" /><path
           style="font-weight:255;font-size:96.5804px;line-height:1.25;font-family:Poppins;-inkscape-font-specification:'Poppins weight=255';letter-spacing:64.8048px;fill:#333333;stroke-width:1.20635"
           d="m -3683.7,4617.9542 c 11.3003,0 20.2778,-5.8891 22.0204,-16.6118 h 1.9316 c -1.479,8.9788 -8.5583,18.3503 -23.952,18.3503 -13.8559,0 -25.1109,-9.2181 -25.1109,-26.7528 0,-17.5341 11.2544,-26.7528 25.1109,-26.7528 4.9708,0 25.3249,1.4138 23.855,27.622 h -47.0347 c 0.2162,17.772 12.4515,24.1451 23.1793,24.1451 z m 0,-50.0286 c -9.0509,0 -22.9497,5.1011 -23.1792,24.1451 h 45.3928 c 0.8864,-14.7164 -9.1483,-24.1451 -22.2136,-24.1451 z"
           id="path47"
           sodipodi:nodetypes="sccsssccsssccs" /></g><path
         id="path48"
         style="opacity:1;fill:#c8ab37;fill-opacity:1;fill-rule:evenodd;stroke:none;stroke-width:45.5943;stroke-linecap:butt;stroke-linejoin:round;stroke-dasharray:none;stroke-opacity:1"
         d="m -5978.9173,4219.9977 v 2.7941 h 482.5121 v -2.7941 z m 559.3896,0 v 2.7941 h 227.2523 v -2.7941 z" /></g></g></svg>
