<?xml version="1.0" encoding="UTF-8" standalone="no"?>
<!-- Created with Inkscape (http://www.inkscape.org/) -->

<svg
   width="178.6194mm"
   height="178.6194mm"
   viewBox="0 0 178.6194 178.6194"
   version="1.1"
   id="svg1"
   xml:space="preserve"
   inkscape:version="1.4.2 (ebf0e94, 2025-05-08)"
   sodipodi:docname="reduLogo.svg"
   xmlns:inkscape="http://www.inkscape.org/namespaces/inkscape"
   xmlns:sodipodi="http://sodipodi.sourceforge.net/DTD/sodipodi-0.dtd"
   xmlns="http://www.w3.org/2000/svg"
   xmlns:svg="http://www.w3.org/2000/svg"><sodipodi:namedview
     id="namedview1"
     pagecolor="#ffffff"
     bordercolor="#000000"
     borderopacity="0.25"
     inkscape:showpageshadow="2"
     inkscape:pageopacity="0.0"
     inkscape:pagecheckerboard="0"
     inkscape:deskcolor="#d1d1d1"
     inkscape:document-units="mm"
     inkscape:zoom="1.0406414"
     inkscape:cx="468.46111"
     inkscape:cy="352.18666"
     inkscape:window-width="1920"
     inkscape:window-height="1048"
     inkscape:window-x="0"
     inkscape:window-y="0"
     inkscape:window-maximized="1"
     inkscape:current-layer="layer1" /><defs
     id="defs1" /><g
     inkscape:label="Layer 1"
     inkscape:groupmode="layer"
     id="layer1"
     transform="translate(312.92758,-71.410004)"><g
       id="g48"
       transform="matrix(0.21168478,0,0,0.21168478,958.76783,-712.0193)"
       style="stroke-width:4.72401"><g
         id="g38"
         transform="translate(-2361.2876,-117.03513)"
         style="stroke-width:4.72401"><path
           id="path33"
           style="opacity:1;fill:#8c7826;fill-opacity:1;fill-rule:evenodd;stroke:none;stroke-width:9.44799;stroke-linecap:round"
           d="m -3278.9607,4073.4157 c -10.074,0 -19.6217,2.1728 -28.2024,6.0772 l 3.717,4.8436 c 7.1318,-6.0384 14.3661,-8.1276 24.4854,-8.1276 22.6905,0 40.9577,18.2667 40.9577,40.9571 v 16.0234 c -11.3689,-8.5892 -25.5477,-13.6736 -40.9577,-13.6736 -37.603,0 -67.8755,30.2729 -67.8755,67.8759 v 40.8089 c 0,37.603 30.2725,67.8749 67.8755,67.8749 15.4065,0 29.5824,-5.0813 40.9499,-13.6668 -0.1319,6.8185 -1.9048,11.5739 -1.9048,11.5739 h 30.7429 c 0,0 -1.9126,-5.1301 -1.9126,-12.3734 v -140.348 c 0,-37.5889 -30.2825,-67.8455 -67.8754,-67.8455 z m 0,48.8942 c 22.6905,0 40.9577,18.2667 40.9577,40.9572 v 21.4788 13.7893 53.79 c 0,22.6905 -18.2672,40.9572 -40.9577,40.9572 -22.6904,0 -40.9572,-18.2667 -40.9572,-40.9572 v -89.0581 c 0,-22.6905 18.2668,-40.9572 40.9572,-40.9572 z"
           sodipodi:nodetypes="sccsscsssscccsssssccsssss" /><path
           id="path34"
           style="opacity:1;fill:#8c7826;fill-opacity:1;fill-rule:evenodd;stroke:none;stroke-width:9.44799;stroke-linecap:round"
           d="m -3547.8425,4073.4157 c -16.2863,0 -31.1976,5.6783 -42.8697,15.1717 0,-2.7426 0.2308,-8.3404 1.9125,-13.0788 h -28.8303 c 0,0 1.9126,5.13 1.9126,12.3734 l -5e-4,193.9298 c -0.035,7.1361 -1.9116,12.1708 -1.9116,12.1708 h 30.7423 c 0,0 -1.9125,-5.1301 -1.9125,-12.3734 V 4117.166 c 0,-22.6904 18.2667,-40.9571 40.9572,-40.9571 22.6905,0 40.9577,18.2667 40.9577,40.9571 v 164.5337 c -0.016,7.1954 -1.912,12.2829 -1.912,12.2829 h 30.7423 c 0,0 -1.912,-5.1301 -1.912,-12.3734 V 4117.166 c 0,-22.6904 18.2666,-40.9571 40.9571,-40.9571 22.6905,0 40.9578,18.2667 40.9578,40.9571 v 164.4432 c 0,7.2434 -1.9126,12.3734 -1.9126,12.3734 h 1.9126 26.9177 1.9125 c 0,0 -1.9125,-5.0876 -1.9125,-12.2829 v -140.409 c 0,-37.6031 -30.2725,-67.8755 -67.8755,-67.8755 -22.3215,0 -42.0597,10.667 -54.4163,27.2025 -12.3565,-16.5355 -32.0953,-27.2025 -54.4168,-27.2025 z"
           sodipodi:nodetypes="scccscccsssscccsssssccccssscss" /><path
           id="path35"
           style="opacity:1;fill:#8c7826;fill-opacity:1;fill-rule:evenodd;stroke:none;stroke-width:9.44799;stroke-linecap:round"
           d="m -3109.1416,4073.4157 c -37.603,0 -67.8755,30.272 -67.8755,67.875 v 86.9094 c 0,37.603 30.2725,67.8754 67.8755,67.8754 15.41,0 29.5888,-5.0839 40.9577,-13.673 v 13.673 c 0,26.5819 -22.2382,40.9926 -40.9577,40.9572 -0.7519,0 -1.2842,-0.1984 -1.2842,-0.1984 v 3.191 c 0,0 0.5323,-0.1984 1.2842,-0.1984 37.5928,0 67.8754,-30.2556 67.8754,-67.8445 V 4087.882 c 0,-7.2433 1.9126,-12.3734 1.9126,-12.3734 h -30.7429 c 0,0 1.7729,4.7559 1.9048,11.5745 -11.3675,-8.5855 -25.5433,-13.6674 -40.9499,-13.6674 z m 0,2.7932 c 22.6905,0 40.9577,18.2666 40.9577,40.9571 v 135.1592 c 0,22.6904 -18.2672,40.9567 -40.9577,40.9567 -22.6904,0 -40.9572,-18.2663 -40.9572,-40.9567 V 4117.166 c 0,-22.6905 18.2668,-40.9571 40.9572,-40.9571 z"
           sodipodi:nodetypes="sssscssccssscccssssssss" /><path
           id="path36"
           style="opacity:1;fill:#8c7826;fill-opacity:1;fill-rule:evenodd;stroke:none;stroke-width:9.44799;stroke-linecap:round"
           d="m -3003.4862,4139.4936 c 0,0 1.9125,5.13 1.9125,12.3734 v 129.742 c 0,7.2434 -1.9125,12.3734 -1.9125,12.3734 h 30.7428 c 0,0 -1.9125,-5.1301 -1.9125,-12.3734 v -129.742 c 0,-7.2433 1.9125,-12.3734 1.9125,-12.3734 z"
           sodipodi:nodetypes="cssccsscc" /><path
           id="path37"
           style="opacity:1;fill:#8c7826;fill-opacity:1;fill-rule:evenodd;stroke:none;stroke-width:9.44799;stroke-linecap:round"
           d="m -2871.5586,4073.4155 c -37.6031,0 -67.8755,30.2724 -67.8755,67.8755 v 86.9094 c 0,37.603 30.2724,67.8754 67.8755,67.8754 15.2357,0 29.2682,-4.9697 40.5711,-13.3831 l -4.5067,-10.88 c -6.9088,12.8059 -20.4378,21.4695 -36.0644,21.4695 -22.6906,0 -40.9573,-18.2667 -40.9573,-40.9572 v -135.1587 c 0,-22.6904 18.2667,-40.9572 40.9573,-40.9572 15.6266,0 29.1556,8.6637 36.0644,21.4695 l 4.5067,-10.8799 c -11.3029,-8.4134 -25.3354,-13.3832 -40.5711,-13.3832 z" /><path
           id="path38"
           style="opacity:1;fill:#c8ab37;fill-opacity:1;fill-rule:evenodd;stroke-width:9.44799;stroke-linecap:round"
           inkscape:transform-center-y="7.7582497"
           d="m -2988.1149,4062.5673 c -4.0865,15.2507 -14.7907,26.6803 -31.0322,31.0322 16.2415,4.3519 26.9457,15.7815 31.0322,31.0322 4.0865,-15.2507 14.7907,-26.6803 31.0322,-31.0322 -16.2415,-4.3519 -26.9457,-15.7815 -31.0322,-31.0322 z"
           sodipodi:nodetypes="ccccc" /></g><g
         id="g47"
         transform="translate(-2061.4945,-319.57729)"
         style="stroke-width:4.72401"><path
           id="path39"
           style="font-weight:255;font-size:96.5804px;line-height:1.25;font-family:Poppins;-inkscape-font-specification:'Poppins weight=255';letter-spacing:64.8048px;fill:#ffffff;stroke-width:1.24989"
           d="M -3259.6195 4552.8338 C -3260.6703 4552.8338 -3262.1291 4553.5389 -3262.1291 4555.441 C -3262.1291 4557.2124 -3260.9899 4558.0482 -3259.6195 4558.0482 C -3258.0266 4558.0482 -3257.1075 4556.8162 -3257.1075 4555.441 C -3257.1075 4553.9005 -3258.3391 4552.8338 -3259.6195 4552.8338 z M -3789.5522 4553.5344 L -3789.5522 4619.0171 L -3787.6188 4619.0171 L -3787.6188 4553.5344 L -3789.5522 4553.5344 z M -3453.2602 4553.5344 L -3453.2602 4566.8633 L -3461.7604 4566.8633 L -3461.7604 4568.7943 L -3453.2602 4568.7943 L -3453.2602 4605.3024 C -3453.2602 4614.5626 -3450.2872 4619.0171 -3440.6099 4619.0171 L -3434.9097 4619.0171 L -3434.9097 4617.0861 L -3440.4146 4617.0861 C -3448.1836 4617.0861 -3451.3292 4614.9215 -3451.3292 4605.3024 L -3451.3292 4568.7943 L -3434.9097 4568.7943 L -3434.9097 4566.8633 L -3451.3292 4566.8633 L -3451.3292 4553.5344 L -3453.2602 4553.5344 z M -3335.531 4565.7038 C -3347.1851 4565.7038 -3354.0401 4570.3088 -3356.1005 4579.5161 L -3356.1005 4566.8633 L -3358.034 4566.8633 L -3358.034 4619.0171 L -3356.1005 4619.0171 L -3356.1005 4588.0139 C -3356.1005 4571.3872 -3345.0196 4567.83 -3335.531 4567.83 L -3335.531 4565.7038 z M -3892.312 4566.1871 C -3906.1685 4566.1871 -3917.4221 4575.4061 -3917.4221 4592.9402 C -3917.4221 4610.4749 -3906.1679 4619.6933 -3892.312 4619.6933 C -3876.9183 4619.6933 -3869.8379 4610.3216 -3868.3589 4601.3428 L -3870.2924 4601.3428 C -3872.035 4612.0655 -3881.0117 4617.9551 -3892.312 4617.9551 C -3903.0398 4617.9551 -3915.2749 4611.5813 -3915.4911 4593.8093 L -3868.4566 4593.8093 C -3866.9867 4567.6011 -3887.3412 4566.1871 -3892.312 4566.1871 z M -3683.6994 4566.1871 C -3697.5559 4566.1871 -3708.812 4575.4061 -3708.812 4592.9402 C -3708.812 4610.4749 -3697.5553 4619.6933 -3683.6994 4619.6933 C -3668.3057 4619.6933 -3661.2279 4610.3216 -3659.7489 4601.3428 L -3661.6798 4601.3428 C -3663.4224 4612.0655 -3672.3991 4617.9551 -3683.6994 4617.9551 C -3694.4272 4617.9551 -3706.6624 4611.5813 -3706.8786 4593.8093 L -3659.8441 4593.8093 C -3658.3742 4567.6011 -3678.7286 4566.1871 -3683.6994 4566.1871 z M -3558.2439 4566.1871 C -3571.4393 4566.1871 -3583.354 4574.9035 -3583.354 4592.9402 C -3583.354 4609.4442 -3573.0012 4619.6933 -3558.2439 4619.6933 C -3542.8498 4619.6933 -3535.7695 4610.3211 -3534.2908 4601.3428 L -3536.2218 4601.3428 C -3537.9642 4612.0655 -3546.9438 4617.9551 -3558.2439 4617.9551 C -3568.2487 4617.9551 -3581.423 4612.1752 -3581.423 4592.9402 C -3581.423 4574.1239 -3568.4509 4567.9252 -3558.2439 4567.9252 C -3546.9412 4567.9252 -3537.9639 4573.817 -3536.2218 4584.5376 L -3534.2908 4584.5376 C -3535.8552 4575.039 -3543.5507 4566.1871 -3558.2439 4566.1871 z M -3154.7335 4566.1871 C -3168.5869 4566.1871 -3179.8436 4575.4028 -3179.8436 4592.9402 C -3179.8436 4610.4775 -3168.587 4619.6933 -3154.7335 4619.6933 C -3139.3395 4619.6933 -3132.2593 4610.3212 -3130.7805 4601.3428 L -3132.7114 4601.3428 C -3134.4539 4612.0655 -3143.4333 4617.9551 -3154.7335 4617.9551 C -3166.6031 4617.9551 -3177.9127 4610.4723 -3177.9127 4592.9402 C -3177.9127 4574.1148 -3165.032 4567.9252 -3154.7335 4567.9252 C -3143.4309 4567.9252 -3134.4536 4573.8168 -3132.7114 4584.5376 L -3130.7805 4584.5376 C -3132.3449 4575.0391 -3140.0402 4566.1871 -3154.7335 4566.1871 z M -3892.312 4567.9252 C -3879.2467 4567.9252 -3869.2131 4577.3547 -3870.0995 4592.0711 L -3915.4911 4592.0711 C -3915.2616 4573.0271 -3901.3629 4567.9252 -3892.312 4567.9252 z M -3683.6994 4567.9252 C -3670.6341 4567.9252 -3660.6006 4577.3547 -3661.487 4592.0711 L -3706.8786 4592.0711 C -3706.6491 4573.0271 -3692.7503 4567.9252 -3683.6994 4567.9252 z M -3260.5838 4571.3771 L -3260.5838 4619.0171 L -3258.6528 4619.0171 L -3258.6528 4571.3771 L -3260.5838 4571.3771 z " /></g><path
         id="path48"
         style="opacity:1;fill:#c8ab37;fill-opacity:1;fill-rule:evenodd;stroke:none;stroke-width:47.2398;stroke-linecap:butt;stroke-linejoin:round;stroke-dasharray:none;stroke-opacity:1"
         d="m -5978.9173,4219.9977 v 2.7941 h 482.5121 v -2.7941 z m 559.3896,0 v 2.7941 h 227.2523 v -2.7941 z" /></g></g></svg>
