<?xml version="1.0" encoding="UTF-8" standalone="no"?>
<!-- Created with Inkscape (http://www.inkscape.org/) -->

<svg
   width="178.6194mm"
   height="178.6194mm"
   viewBox="0 0 178.6194 178.6194"
   version="1.1"
   id="svg1"
   xml:space="preserve"
   inkscape:version="1.4.2 (ebf0e94, 2025-05-08)"
   sodipodi:docname="slogan.svg"
   xmlns:inkscape="http://www.inkscape.org/namespaces/inkscape"
   xmlns:sodipodi="http://sodipodi.sourceforge.net/DTD/sodipodi-0.dtd"
   xmlns="http://www.w3.org/2000/svg"
   xmlns:svg="http://www.w3.org/2000/svg"><sodipodi:namedview
     id="namedview1"
     pagecolor="#ffffff"
     bordercolor="#000000"
     borderopacity="0.25"
     inkscape:showpageshadow="2"
     inkscape:pageopacity="0.0"
     inkscape:pagecheckerboard="0"
     inkscape:deskcolor="#d1d1d1"
     inkscape:document-units="mm"
     inkscape:zoom="1.4716892"
     inkscape:cx="504.52229"
     inkscape:cy="333.96998"
     inkscape:window-width="1920"
     inkscape:window-height="1048"
     inkscape:window-x="0"
     inkscape:window-y="0"
     inkscape:window-maximized="1"
     inkscape:current-layer="layer1" /><defs
     id="defs1" /><g
     inkscape:label="Layer 1"
     inkscape:groupmode="layer"
     id="layer1"
     transform="translate(312.92758,-71.410004)"><path
       style="baseline-shift:baseline;display:inline;overflow:visible;opacity:1;vector-effect:none;fill:#c8ab37;fill-rule:evenodd;stroke-width:1;stroke-linejoin:round;enable-background:accumulate;stop-color:#000000;stop-opacity:1"
       d="m -167.47044,144.94794 c -0.0371,0.001 -0.0733,0.0114 -0.10806,0.023 l 0.0258,-0.023 h -112.12105 l 0.10154,0.0867 c -0.16754,-0.11501 -0.39437,-0.0871 -0.5291,0.0649 -2.06678,7.49408 -7.44651,13.08303 -15.67201,15.22444 -0.38842,0.11174 -0.38842,0.66203 0,0.77369 8.2255,2.14148 13.60523,7.72365 15.67201,15.21777 0.1004,0.14941 0.28799,0.21416 0.4592,0.15812 h -0.0323 l 0.25113,-0.17646 c -0.0496,0.0834 -0.12748,0.146 -0.21966,0.17646 h 112.08775 l -0.0567,-0.0466 c -0.0591,-0.0281 -0.11061,-0.0705 -0.14976,-0.12295 l 0.14976,0.12295 c 0.16769,0.0788 0.36768,0.0328 0.48418,-0.11132 2.06678,-7.49411 7.43987,-13.07629 15.66532,-15.21775 0.38841,-0.11146 0.38841,-0.66204 0,-0.77371 -8.22545,-2.14141 -13.59854,-7.73034 -15.66532,-15.22443 -0.0822,-0.10494 -0.21144,-0.16207 -0.34442,-0.15284 z m -0.11132,0.0258 -0.19132,0.14651 c 0.0474,-0.0672 0.11401,-0.1184 0.19132,-0.14651 z m -111.98622,0.0667 c 0.0206,0.0142 0.0406,0.0305 0.0583,0.0482 z m -0.009,0.71548 h 111.92465 c 2.14163,7.17037 7.30572,12.61227 15.01647,14.95987 -7.70947,2.34803 -12.87504,7.78524 -15.01647,14.95488 h -111.92465 c -2.14148,-7.16998 -7.30801,-12.607 -15.01805,-14.95488 7.7113,-2.34745 12.87636,-7.78921 15.01805,-14.95987 z"
       id="rect1"
       sodipodi:nodetypes="cccccccccccccccccccccccccccccccccccc" /><path
       style="font-weight:300;font-size:10.074px;line-height:1.25;font-family:Alexandria;-inkscape-font-specification:'Alexandria Light';letter-spacing:0px;fill:#c8ab37;stroke-width:0.264583"
       d="m -170.38483,157.44124 h 0.99997 v 6.65691 h -2.98561 v -1.11424 h 1.98564 z m -1.98564,6.65691 q -0.17142,0 -0.22857,-0.15713 -0.0571,-0.15713 -0.0571,-0.41428 0,-0.25713 0.0571,-0.39998 0.0572,-0.14285 0.22857,-0.14285 z m 2.48563,-8.34257 q -0.29999,0 -0.51427,-0.21427 -0.21427,-0.21428 -0.21427,-0.51428 0,-0.31426 0.21427,-0.51426 0.21428,-0.21428 0.51427,-0.21428 0.31427,0 0.51427,0.21428 0.21428,0.2 0.21428,0.51426 0,0.3 -0.21428,0.51428 -0.2,0.21427 -0.51427,0.21427 z m -0.4714,-3.14275 q -0.27142,0 -0.65713,-0.0428 -0.3857,-0.0572 -0.72854,-0.17143 l 0.18571,-0.52855 q 0.25713,0.0858 0.59998,0.14285 0.34284,0.0572 0.61426,0.0572 0.21428,0 0.41428,-0.0286 0.21428,-0.0428 0.39998,-0.12861 -0.34285,-0.24285 -0.4857,-0.52856 -0.14285,-0.2857 -0.14285,-0.55713 0,-0.29998 0.14285,-0.55711 0.14285,-0.27143 0.3857,-0.42856 0.25713,-0.15715 0.58569,-0.15715 0.41428,0 0.71426,0.27143 0.3,0.27141 0.3,0.81426 0,0.57141 -0.35713,0.99996 -0.34285,0.41427 -0.87141,0.62855 -0.52854,0.21427 -1.09995,0.21427 z m 1.3428,-0.99996 q 0.2,-0.17143 0.31428,-0.38571 0.12862,-0.22855 0.12862,-0.47141 0,-0.27141 -0.12862,-0.39998 -0.11429,-0.12861 -0.32856,-0.12861 -0.24285,0 -0.41427,0.17142 -0.17143,0.17143 -0.17143,0.42856 0,0.24285 0.15715,0.44285 0.17142,0.1857 0.44283,0.34284 z m -5.39981,12.48528 v -1.11424 h 2.0428 v 1.11424 z m -12.17101,0 q -0.17142,0 -0.22857,-0.15713 -0.0571,-0.15713 -0.0571,-0.41428 0,-0.25713 0.0571,-0.39998 0.0572,-0.14285 0.22857,-0.14285 z m 11.67103,0 v -3.01418 q 0,-1.05711 -0.35713,-1.81422 -0.34284,-0.75712 -0.99997,-1.1571 -0.65712,-0.39999 -1.58566,-0.39999 -0.79996,0 -1.47137,0.31427 -0.67141,0.3 -1.19997,0.84283 -0.52855,0.54284 -0.89996,1.2571 -0.37141,0.69998 -0.57141,1.49995 -0.2,0.79998 -0.21428,1.61423 h -0.89997 q 0.0143,-0.59997 0.14286,-1.31423 0.12861,-0.71426 0.3857,-1.4571 0.27141,-0.75711 0.68569,-1.44282 0.42855,-0.68568 0.99996,-1.22852 0.58569,-0.55713 1.34281,-0.87139 0.75713,-0.32858 1.69994,-0.32858 0.99997,0 1.74281,0.35714 0.74283,0.35713 1.22852,0.98568 0.4857,0.62856 0.71426,1.4428 0.24285,0.79999 0.24285,1.69995 v 3.01418 z m -11.67103,0 v -1.11424 h 0.52855 q 0.67141,0 1.02854,-0.1143 0.37142,-0.12861 0.51427,-0.42855 0.14286,-0.31428 0.14286,-0.85712 v -3.3856 h 0.99996 v 3.3856 q 0,0.85712 -0.2857,1.41424 -0.28571,0.55712 -0.87141,0.82855 -0.58569,0.27141 -1.52852,0.27141 z m 4.69984,0 q -0.8714,0 -1.41423,-0.27141 -0.54285,-0.27143 -0.81426,-0.82854 -0.25713,-0.55713 -0.25713,-1.41424 h 0.99996 q 0,0.54283 0.11429,0.85711 0.12862,0.29998 0.44284,0.42856 0.32856,0.11429 0.92854,0.11429 h 7.95688 v 1.11424 z m 9.51397,0 v -1.11424 q 0.17141,0 0.22856,0.15714 0.0571,0.14285 0.0571,0.39998 0,0.24286 -0.0571,0.39999 -0.0572,0.15713 -0.22856,0.15713 z m -5.48554,-9.1854 q -0.29998,0 -0.51426,-0.21428 -0.21428,-0.21428 -0.21428,-0.51426 0,-0.31428 0.21428,-0.51428 0.21428,-0.21428 0.51426,-0.21428 0.31428,0 0.51427,0.21428 0.21428,0.2 0.21428,0.51428 0,0.29998 -0.21428,0.51426 -0.19999,0.21428 -0.51427,0.21428 z m -10.89961,9.1854 v -1.11424 h 2.17136 v 1.11424 z m 2.17136,0 v -1.11424 q 0.1857,0 0.22856,0.15714 0.0571,0.14285 0.0571,0.39998 0,0.24286 -0.0571,0.39999 -0.0428,0.15713 -0.22856,0.15713 z m -2.17136,0 q -0.17142,0 -0.22856,-0.15713 -0.0571,-0.15713 -0.0571,-0.41428 0,-0.25713 0.0571,-0.39998 0.0572,-0.14285 0.22856,-0.14285 z m -2.17133,0 v -1.11424 h 2.17135 v 1.11424 z m 2.17135,0 v -1.11424 q 0.18571,0 0.22857,0.15714 0.0571,0.14285 0.0571,0.39998 0,0.24286 -0.0571,0.39999 -0.0428,0.15713 -0.22857,0.15713 z m -2.17135,0 q -0.17142,0 -0.22857,-0.15713 -0.0572,-0.15713 -0.0572,-0.41428 0,-0.25713 0.0572,-0.39998 0.0572,-0.14285 0.22857,-0.14285 z m -2.17133,0 v -1.11424 h 2.17135 v 1.11424 z m 2.17135,0 v -1.11424 q 0.18572,0 0.22857,0.15714 0.0571,0.14285 0.0571,0.39998 0,0.24286 -0.0571,0.39999 -0.0428,0.15713 -0.22857,0.15713 z m -2.17135,0 q -0.17142,0 -0.22857,-0.15713 -0.0571,-0.15713 -0.0571,-0.41428 0,-0.25713 0.0571,-0.39998 0.0572,-0.14285 0.22857,-0.14285 z m -2.17134,0 v -1.11424 h 2.17136 v 1.11424 z m 2.17136,0 v -1.11424 q 0.1857,0 0.22855,0.15714 0.0572,0.14285 0.0572,0.39998 0,0.24286 -0.0572,0.39999 -0.0428,0.15713 -0.22855,0.15713 z m -2.17136,0 q -0.17143,0 -0.22856,-0.15713 -0.0572,-0.15713 -0.0572,-0.41428 0,-0.25713 0.0572,-0.39998 0.0572,-0.14285 0.22856,-0.14285 z m -2.17133,0 v -1.11424 h 2.17134 v 1.11424 z m 2.17134,0 v -1.11424 q 0.18572,0 0.22857,0.15714 0.0572,0.14285 0.0572,0.39998 0,0.24286 -0.0572,0.39999 -0.0428,0.15713 -0.22857,0.15713 z m -2.17134,0 q -0.17143,0 -0.22857,-0.15713 -0.0571,-0.15713 -0.0571,-0.41428 0,-0.25713 0.0571,-0.39998 0.0571,-0.14285 0.22857,-0.14285 z m -2.17133,0 v -1.11424 h 2.17134 v 1.11424 z m 2.17134,0 v -1.11424 q 0.18572,0 0.22858,0.15714 0.0571,0.14285 0.0571,0.39998 0,0.24286 -0.0571,0.39999 -0.0428,0.15713 -0.22858,0.15713 z m -2.17134,0 q -0.17143,0 -0.22857,-0.15713 -0.0572,-0.15713 -0.0572,-0.41428 0,-0.25713 0.0572,-0.39998 0.0571,-0.14285 0.22857,-0.14285 z m -2.17134,0 v -1.11424 h 2.17135 v 1.11424 z m 2.17135,0 v -1.11424 q 0.18571,0 0.22856,0.15714 0.0572,0.14285 0.0572,0.39998 0,0.24286 -0.0572,0.39999 -0.0428,0.15713 -0.22856,0.15713 z m -2.17135,0 q -0.17143,0 -0.22856,-0.15713 -0.0572,-0.15713 -0.0572,-0.41428 0,-0.25713 0.0572,-0.39998 0.0571,-0.14285 0.22856,-0.14285 z m -2.17133,0 v -1.11424 h 2.17135 v 1.11424 z m 2.17135,0 v -1.11424 q 0.18571,0 0.22856,0.15714 0.0572,0.14285 0.0572,0.39998 0,0.24286 -0.0572,0.39999 -0.0428,0.15713 -0.22856,0.15713 z m -2.17135,0 q -0.17143,0 -0.22856,-0.15713 -0.0572,-0.15713 -0.0572,-0.41428 0,-0.25713 0.0572,-0.39998 0.0571,-0.14285 0.22856,-0.14285 z m -2.17133,0 v -1.11424 h 2.17134 v 1.11424 z m 2.17134,0 v -1.11424 q 0.18572,0 0.22857,0.15714 0.0572,0.14285 0.0572,0.39998 0,0.24286 -0.0572,0.39999 -0.0428,0.15713 -0.22857,0.15713 z m -2.17134,0 q -0.17143,0 -0.22858,-0.15713 -0.0571,-0.15713 -0.0571,-0.41428 0,-0.25713 0.0571,-0.39998 0.0572,-0.14285 0.22858,-0.14285 z m -5.4141,4.72842 q -1.78565,0 -3.07132,-0.51428 -1.27139,-0.51426 -1.9428,-1.5285 -0.6714,-0.99997 -0.6714,-2.47136 0,-0.42856 0.0572,-0.87139 0.0571,-0.45713 0.15715,-0.95712 l 0.94282,0.2 q -0.0856,0.48569 -0.12862,0.87139 -0.0428,0.38571 -0.0428,0.69999 0,1.69993 1.17139,2.57134 1.18567,0.88569 3.49988,0.88569 1.38567,0 2.38564,-0.28571 0.99996,-0.2857 1.5428,-0.78569 0.55713,-0.4857 0.55713,-1.09996 0,-0.41428 -0.22857,-0.68569 -0.22856,-0.27143 -0.68569,-0.51428 -0.45713,-0.22856 -1.1571,-0.48569 l 0.32856,-1.04283 q 0.49998,0.17143 0.98567,0.4 0.4857,0.21428 0.88569,0.52854 0.39998,0.31428 0.62855,0.74283 0.22856,0.44286 0.22856,1.05712 0,0.67141 -0.2857,1.18567 -0.27142,0.52855 -0.7714,0.91426 -0.49998,0.39998 -1.18568,0.65711 -0.6714,0.25714 -1.48566,0.38571 -0.81426,0.14285 -1.71423,0.14285 z m 3.89987,-4.72842 q -1.58566,0 -2.38564,-0.78569 l 0.68569,-0.79996 q 0.14285,0.12861 0.3857,0.24285 0.25714,0.1 0.58571,0.17142 0.34283,0.0572 0.72854,0.0572 h 1.51423 v 1.11424 z m 1.51423,0 v -1.11424 q 0.17142,0 0.22857,0.15714 0.0571,0.14285 0.0571,0.39998 0,0.24286 -0.0571,0.39999 -0.0572,0.15713 -0.22857,0.15713 z m -4.58556,7.65689 q -0.2857,0 -0.4857,-0.21428 -0.19998,-0.2 -0.19998,-0.47141 0,-0.29999 0.19998,-0.4857 0.2,-0.1857 0.4857,-0.1857 0.28571,0 0.47141,0.1857 0.2,0.18571 0.2,0.4857 0,0.27141 -0.2,0.47141 -0.1857,0.21428 -0.47141,0.21428 z m -1.62852,0 q -0.27141,0 -0.47141,-0.21428 -0.19998,-0.2 -0.19998,-0.47141 0,-0.29999 0.19998,-0.4857 0.2,-0.1857 0.48571,-0.1857 0.2857,0 0.47141,0.1857 0.19999,0.18571 0.19999,0.4857 0,0.27141 -0.19999,0.47141 -0.18571,0.21428 -0.48571,0.21428 z m -8.62825,-7.97115 q -1.02854,0 -1.88566,-0.28571 -0.85711,-0.2857 -1.37137,-0.88569 -0.49999,-0.59998 -0.49999,-1.49994 0,-0.68569 0.29999,-1.21425 0.3,-0.52856 0.81426,-0.88569 0.51427,-0.35713 1.18567,-0.52855 0.67141,-0.17143 1.39996,-0.17143 0.58569,0 1.19995,0.1143 0.61427,0.1 1.08569,0.31426 l -0.4,0.92854 q -0.37141,-0.11429 -0.88567,-0.18571 -0.51428,-0.0715 -0.97141,-0.0715 -0.84282,0 -1.47137,0.22857 -0.62855,0.21428 -0.98568,0.61426 -0.35713,0.39998 -0.35713,0.92854 0,0.52856 0.35713,0.94282 0.37141,0.39998 0.99997,0.62855 0.64284,0.22856 1.48566,0.22856 z m -4.057,0.31426 v -1.11424 h 6.5712 v 1.11424 z m -6.25689,0 v -3.67129 q 0,-0.77141 -0.3857,-1.34282 -0.37141,-0.57141 -1.0571,-0.88569 -0.67141,-0.32855 -1.61424,-0.32855 -0.69997,0 -1.3571,0.17142 -0.64283,0.17143 -1.1571,0.45713 l -0.41427,-0.89998 q 0.6714,-0.42856 1.41424,-0.62854 0.75711,-0.21428 1.52852,-0.21428 0.89997,0 1.62851,0.27141 0.74283,0.25715 1.27139,0.75713 0.54284,0.48569 0.82854,1.1571 0.3,0.67141 0.3,1.48567 v 3.67129 z m -6.54263,0 v -1.11424 h 8.04258 l -0.17142,1.11424 z m 0,0 q -0.17142,0 -0.22857,-0.15713 -0.0572,-0.15713 -0.0572,-0.41428 0,-0.25713 0.0572,-0.39998 0.0572,-0.14285 0.22857,-0.14285 z m -5.14267,0 v -1.11424 h 0.52856 q 0.67141,0 1.02854,-0.1143 0.37141,-0.12861 0.51426,-0.42855 0.14285,-0.31428 0.14285,-0.85712 v -4.14272 h 0.99997 v 4.14272 q 0,0.85712 -0.28571,1.41424 -0.2857,0.55712 -0.87139,0.82855 -0.58569,0.27141 -1.52852,0.27141 z m 4.69985,0 q -0.8714,0 -1.41425,-0.27141 -0.54283,-0.27143 -0.81424,-0.82854 -0.25715,-0.55713 -0.25715,-1.41424 h 0.99997 q 0,0.54283 0.11429,0.85711 0.12862,0.29998 0.44284,0.42856 0.32856,0.11429 0.92854,0.11429 h 0.44283 v 1.11424 z m 0.44283,0 v -1.11424 q 0.17143,0 0.22858,0.15714 0.0571,0.14285 0.0571,0.39998 0,0.24286 -0.0571,0.39999 -0.0571,0.15713 -0.22858,0.15713 z m -5.14268,0 q -0.17141,0 -0.22856,-0.15713 -0.0571,-0.15713 -0.0571,-0.41428 0,-0.25713 0.0571,-0.39998 0.0572,-0.14285 0.22856,-0.14285 z m 3.52846,2.92847 q -0.28571,0 -0.48569,-0.21428 -0.2,-0.19998 -0.2,-0.47141 0,-0.29998 0.2,-0.48568 0.19998,-0.18572 0.48569,-0.18572 0.2857,0 0.47141,0.18572 0.2,0.1857 0.2,0.48568 0,0.27143 -0.2,0.47141 -0.18571,0.21428 -0.47141,0.21428 z m -1.62851,0 q -0.27143,0 -0.47143,-0.21428 -0.19998,-0.19998 -0.19998,-0.47141 0,-0.29998 0.19998,-0.48568 0.2,-0.18572 0.48571,-0.18572 0.2857,0 0.47141,0.18572 0.2,0.1857 0.2,0.48568 0,0.27143 -0.2,0.47141 -0.18571,0.21428 -0.48569,0.21428 z m -4.07128,-2.92847 v -1.11424 h 2.17136 v 1.11424 z m 2.17136,0 v -1.11424 q 0.18571,0 0.22856,0.15714 0.0571,0.14285 0.0571,0.39998 0,0.24286 -0.0571,0.39999 -0.0428,0.15713 -0.22856,0.15713 z m -2.17136,0 q -0.17142,0 -0.22856,-0.15713 -0.0571,-0.15713 -0.0571,-0.41428 0,-0.25713 0.0571,-0.39998 0.0572,-0.14285 0.22856,-0.14285 z m -2.17133,0 v -1.11424 h 2.17135 v 1.11424 z m 2.17135,0 v -1.11424 q 0.18572,0 0.22857,0.15714 0.0572,0.14285 0.0572,0.39998 0,0.24286 -0.0572,0.39999 -0.0428,0.15713 -0.22857,0.15713 z m -2.17135,0 q -0.17142,0 -0.22857,-0.15713 -0.0572,-0.15713 -0.0572,-0.41428 0,-0.25713 0.0572,-0.39998 0.0572,-0.14285 0.22857,-0.14285 z m -2.17134,0 v -1.11424 h 2.17136 v 1.11424 z m 2.17136,0 v -1.11424 q 0.1857,0 0.22856,0.15714 0.0571,0.14285 0.0571,0.39998 0,0.24286 -0.0571,0.39999 -0.0428,0.15713 -0.22856,0.15713 z m -2.17136,0 q -0.17143,0 -0.22856,-0.15713 -0.0571,-0.15713 -0.0571,-0.41428 0,-0.25713 0.0571,-0.39998 0.0572,-0.14285 0.22856,-0.14285 z m -2.17133,0 v -1.11424 h 2.17136 v 1.11424 z m 2.17136,0 v -1.11424 q 0.1857,0 0.22856,0.15714 0.0571,0.14285 0.0571,0.39998 0,0.24286 -0.0571,0.39999 -0.0428,0.15713 -0.22856,0.15713 z m -2.17136,0 q -0.17143,0 -0.22856,-0.15713 -0.0571,-0.15713 -0.0571,-0.41428 0,-0.25713 0.0571,-0.39998 0.0572,-0.14285 0.22856,-0.14285 z m -2.17133,0 v -1.11424 h 2.17134 v 1.11424 z m 2.17134,0 v -1.11424 q 0.18572,0 0.22858,0.15714 0.0571,0.14285 0.0571,0.39998 0,0.24286 -0.0571,0.39999 -0.0428,0.15713 -0.22858,0.15713 z m -2.17134,0 q -0.17143,0 -0.22857,-0.15713 -0.0571,-0.15713 -0.0571,-0.41428 0,-0.25713 0.0571,-0.39998 0.0571,-0.14285 0.22857,-0.14285 z m -2.17134,0 v -1.11424 h 2.17135 v 1.11424 z m 2.17135,0 v -1.11424 q 0.18571,0 0.22858,0.15714 0.0571,0.14285 0.0571,0.39998 0,0.24286 -0.0571,0.39999 -0.0428,0.15713 -0.22858,0.15713 z m -2.17135,0 q -0.17141,0 -0.22856,-0.15713 -0.0572,-0.15713 -0.0572,-0.41428 0,-0.25713 0.0572,-0.39998 0.0572,-0.14285 0.22856,-0.14285 z m -2.17133,0 v -1.11424 h 2.17136 v 1.11424 z m 2.17136,0 v -1.11424 q 0.1857,0 0.22855,0.15714 0.0572,0.14285 0.0572,0.39998 0,0.24286 -0.0572,0.39999 -0.0428,0.15713 -0.22855,0.15713 z m -2.17136,0 q -0.17143,0 -0.22856,-0.15713 -0.0571,-0.15713 -0.0571,-0.41428 0,-0.25713 0.0571,-0.39998 0.0571,-0.14285 0.22856,-0.14285 z m -2.17133,0 v -1.11424 h 2.17134 v 1.11424 z m 2.17134,0 v -1.11424 q 0.18572,0 0.22857,0.15714 0.0572,0.14285 0.0572,0.39998 0,0.24286 -0.0572,0.39999 -0.0428,0.15713 -0.22857,0.15713 z m -2.17134,0 q -0.17143,0 -0.22857,-0.15713 -0.0572,-0.15713 -0.0572,-0.41428 0,-0.25713 0.0572,-0.39998 0.0571,-0.14285 0.22857,-0.14285 z m -2.17135,0 v -1.11424 h 2.17136 v 1.11424 z m 2.17136,0 v -1.11424 q 0.18571,0 0.22857,0.15714 0.0571,0.14285 0.0571,0.39998 0,0.24286 -0.0571,0.39999 -0.0428,0.15713 -0.22857,0.15713 z m -2.17136,0 q -0.17141,0 -0.22855,-0.15713 -0.0571,-0.15713 -0.0571,-0.41428 0,-0.25713 0.0571,-0.39998 0.0571,-0.14285 0.22855,-0.14285 z m -2.17133,0 v -1.11424 h 2.17136 v 1.11424 z m 2.17136,0 v -1.11424 q 0.18571,0 0.22856,0.15714 0.0572,0.14285 0.0572,0.39998 0,0.24286 -0.0572,0.39999 -0.0428,0.15713 -0.22856,0.15713 z m -2.17136,0 q -0.17142,0 -0.22855,-0.15713 -0.0571,-0.15713 -0.0571,-0.41428 0,-0.25713 0.0571,-0.39998 0.0571,-0.14285 0.22855,-0.14285 z m -2.17132,0 v -1.11424 h 2.17135 v 1.11424 z m 2.17135,0 v -1.11424 q 0.18571,0 0.22856,0.15714 0.0571,0.14285 0.0571,0.39998 0,0.24286 -0.0571,0.39999 -0.0428,0.15713 -0.22856,0.15713 z m -2.17135,0 q -0.17143,0 -0.22858,-0.15713 -0.0571,-0.15713 -0.0571,-0.41428 0,-0.25713 0.0571,-0.39998 0.0571,-0.14285 0.22858,-0.14285 z m -2.17135,0 v -1.11424 h 2.17136 v 1.11424 z m 2.17136,0 v -1.11424 q 0.1857,0 0.22857,0.15714 0.0571,0.14285 0.0571,0.39998 0,0.24286 -0.0571,0.39999 -0.0428,0.15713 -0.22857,0.15713 z m -2.17136,0 q -0.17141,0 -0.22856,-0.15713 -0.0571,-0.15713 -0.0571,-0.41428 0,-0.25713 0.0571,-0.39998 0.0571,-0.14285 0.22856,-0.14285 z m -1.54279,0 v -1.11424 h 1.54281 v 1.11424 z m -0.98568,0 v -11.5996 h 0.98568 v 11.5996 z m 2.52849,0 v -1.11424 q 0.17142,0 0.22855,0.15714 0.0571,0.14285 0.0571,0.39998 0,0.24286 -0.0571,0.39999 -0.0571,0.15713 -0.22855,0.15713 z m -8.48544,-7.67116 h 1.22854 q 2.75705,2.29992 2.75705,4.55698 0,0.91426 -0.42856,1.61423 -0.42856,0.69998 -1.18567,1.09997 -0.74283,0.39998 -1.75709,0.39998 -0.99997,0 -1.77136,-0.38569 -0.75712,-0.4 -1.18568,-1.09997 -0.41427,-0.71426 -0.41427,-1.61422 0,-2.25708 2.75704,-4.57128 z m 0.34285,1.11425 q -1.08568,0.94282 -1.59994,1.81423 -0.51427,0.85711 -0.51427,1.6428 0,0.58569 0.28571,1.04282 0.29998,0.44283 0.82854,0.69996 0.54283,0.24286 1.27138,0.24286 0.72855,0 1.25711,-0.24286 0.52854,-0.25713 0.81424,-0.69996 0.3,-0.45713 0.3,-1.05712 0,-0.78568 -0.51427,-1.6428 -0.51427,-0.85711 -1.57138,-1.79993 z m 1.08568,-2.69992 q -0.28571,0 -0.48569,-0.1857 -0.2,-0.2 -0.2,-0.4857 0,-0.29999 0.2,-0.48569 0.19998,-0.2 0.48569,-0.2 0.2857,0 0.47141,0.2 0.2,0.1857 0.2,0.48569 0,0.2857 -0.2,0.4857 -0.18571,0.1857 -0.47141,0.1857 z m -1.62851,0 q -0.27143,0 -0.47143,-0.1857 -0.19998,-0.2 -0.19998,-0.4857 0,-0.29999 0.19998,-0.48569 0.2,-0.2 0.48571,-0.2 0.2857,0 0.47141,0.2 0.2,0.1857 0.2,0.48569 0,0.2857 -0.2,0.4857 -0.18571,0.1857 -0.48569,0.1857 z"
       id="text1"
       aria-label="نُضـــــــــيء حيــــــــــــاة" /></g></svg>
