<?xml version="1.0" encoding="UTF-8" standalone="no"?>
<!-- Created with Inkscape (http://www.inkscape.org/) -->

<svg
   width="190.5mm"
   height="190.5mm"
   viewBox="0 0 190.5 190.5"
   version="1.1"
   id="svg1"
   xml:space="preserve"
   inkscape:export-filename="BCF.png"
   inkscape:export-xdpi="72"
   inkscape:export-ydpi="72"
   sodipodi:docname="Stamp2.svg"
   inkscape:version="1.4.2 (ebf0e94, 2025-05-08)"
   xmlns:inkscape="http://www.inkscape.org/namespaces/inkscape"
   xmlns:sodipodi="http://sodipodi.sourceforge.net/DTD/sodipodi-0.dtd"
   xmlns="http://www.w3.org/2000/svg"
   xmlns:svg="http://www.w3.org/2000/svg"><sodipodi:namedview
     id="namedview1"
     pagecolor="#505050"
     bordercolor="#eeeeee"
     borderopacity="1"
     inkscape:showpageshadow="0"
     inkscape:pageopacity="0"
     inkscape:pagecheckerboard="0"
     inkscape:deskcolor="#505050"
     inkscape:document-units="mm"
     showguides="false"
     inkscape:zoom="0.58015845"
     inkscape:cx="146.5117"
     inkscape:cy="324.91124"
     inkscape:window-width="1920"
     inkscape:window-height="1048"
     inkscape:window-x="0"
     inkscape:window-y="0"
     inkscape:window-maximized="1"
     inkscape:current-layer="layer1"><sodipodi:guide
       position="-330.03869,320.49511"
       orientation="1,0"
       id="guide3360"
       inkscape:locked="false" /><sodipodi:guide
       position="-146.38974,323.26595"
       orientation="1,0"
       id="guide3361"
       inkscape:locked="false" /><inkscape:page
       x="1.5890439e-06"
       y="2.8912709e-07"
       width="190.5"
       height="190.5"
       id="page2"
       margin="0"
       bleed="0" /></sodipodi:namedview><defs
     id="defs1" /><g
     inkscape:label="Layer 1"
     inkscape:groupmode="layer"
     id="layer1"
     transform="translate(-45.07435,-564.90607)"><path
       style="font-size:21.1667px;line-height:1.25;font-family:Poppins;-inkscape-font-specification:Poppins;text-align:center;letter-spacing:0px;direction:rtl;text-anchor:middle;stroke-width:0.264583"
       d="m 104.34976,616.89184 14.22919,12.32196 -1.62036,1.87117 -10.6102,-9.18804 6.51475,13.91739 -1.13961,1.316 -14.744003,-4.45593 10.630753,9.20584 -1.62036,1.87118 -14.229192,-12.32194 1.745008,-2.01511 16.320104,4.9212 -7.20328,-15.44916 z m 27.95246,3.14009 -7.91369,2.39792 -0.23516,4.47667 -2.49906,0.75723 1.09373,-20.02782 2.73335,-0.82823 12.00029,16.06021 -2.49905,0.75725 z m -1.26054,-1.72127 -6.05654,-8.16934 -0.50347,10.15708 z m 26.92301,-5.28845 q -0.37497,-1.79854 -1.61691,-3.02386 -1.23553,-1.25175 -3.16509,-1.72035 -1.92956,-0.46862 -3.70733,0.0513 -1.74491,0.49996 -3.04802,1.94694 -1.27027,1.42698 -1.79663,3.59442 -0.52638,2.16746 -0.052,4.01811 0.50069,1.85705 1.81553,3.12807 1.34767,1.251 3.27724,1.71961 2.6961,0.65475 4.8322,-0.53395 2.13612,-1.18872 3.09448,-3.86707 l -7.34821,-1.78454 0.47503,-1.95599 9.91213,2.4072 -0.44935,1.85026 q -0.76351,2.22183 -2.44158,3.82968 -1.67166,1.58141 -3.92368,2.21014 -2.24561,0.60228 -4.6774,0.0116 -2.56393,-0.62265 -4.38967,-2.32565 -1.8193,-1.72943 -2.54167,-4.17215 -0.69593,-2.43631 -0.0411,-5.13241 0.65477,-2.6961 2.39062,-4.54185 1.76869,-1.86575 4.17215,-2.54167 2.40987,-0.70236 4.9738,-0.0797 2.93401,0.71253 4.8277,2.71194 1.92012,2.00582 2.30906,4.89942 z m 15.64198,2.62544 -10.91908,15.49879 -2.02352,-1.42558 10.91908,-15.4988 z m 0.44635,11.65616 q 2.31504,-1.52916 4.84306,-1.69945 2.55072,-0.18529 4.77909,0.91812 2.24338,1.12608 3.69758,3.32764 1.70904,2.58738 1.73503,5.34112 0.026,2.75373 -1.68167,5.15306 l -1.63409,-2.47391 q 0.99512,-1.60268 0.94224,-3.36068 -0.0379,-1.73532 -1.17723,-3.46026 -1.09439,-1.65683 -2.73559,-2.46351 -1.6412,-0.80667 -3.5658,-0.61118 -1.9019,0.1805 -3.8084,1.43981 -1.8838,1.2443 -2.81894,2.93776 -0.91246,1.67847 -0.81461,3.50457 0.0978,1.82612 1.19224,3.48295 1.13935,1.72493 2.69788,2.45581 1.59623,0.73859 3.46086,0.4523 l 1.63409,2.47391 q -2.85432,0.61401 -5.3769,-0.49064 -2.4999,-1.11965 -4.20895,-3.70703 -1.45419,-2.20155 -1.6322,-4.69189 -0.1403,-2.48264 1.00849,-4.741 1.14879,-2.25835 3.46382,-3.7875 z m 20.00727,39.65329 -6.25755,-1.00509 -1.09567,6.82154 -2.01424,-0.32352 1.09568,-6.82156 -6.44555,-1.03527 -1.22508,7.62724 -2.01423,-0.32354 1.61763,-10.07117 18.7458,3.01095 -1.61763,10.07118 -2.01423,-0.32353 z m -18.89484,11.61136 -3.21564,5.80595 -1.76082,-0.97524 4.4149,-7.97127 16.58502,9.18565 -1.19926,2.16533 z m 2.54054,21.29196 -4.17169,-4.77117 -5.20119,4.54768 -1.34282,-1.53578 5.20119,-4.54769 -4.29703,-4.91452 -5.81551,5.08483 -1.34283,-1.53579 7.67893,-6.71411 12.4972,14.29305 -7.67894,6.7141 -1.34282,-1.53579 z m -16.93452,3.78882 q 0.67902,2.6901 0.006,5.13259 -0.6673,2.46885 -2.4446,4.20792 -1.80365,1.74575 -4.36188,2.39146 -3.00657,0.7589 -5.61445,-0.1258 -2.60788,-0.88469 -4.30881,-3.2888 l 2.87472,-0.72561 q 1.18421,1.46848 2.86109,1.99904 1.65051,0.53722 3.6549,0.0313 1.92527,-0.48597 3.22858,-1.76877 1.30333,-1.2828 1.75426,-3.16401 0.4576,-1.85484 -0.10167,-4.07021 -0.55253,-2.189 -1.84225,-3.63085 -1.28306,-1.41547 -3.03906,-1.92607 -1.756,-0.51059 -3.68127,-0.0247 -2.00438,0.50593 -3.20886,1.73573 -1.22421,1.26284 -1.56965,3.11742 l -2.87472,0.72561 q 0.36287,-2.89697 2.23848,-4.91337 1.88228,-1.99 4.88885,-2.7489 2.55823,-0.64573 4.96767,0.009 2.38975,0.68727 4.14214,2.51729 1.7524,1.83004 2.43141,4.52012 z m -39.68747,10.14844 0.46718,-1.95788 5.02699,1.19952 3.93318,-16.48327 2.40766,0.57452 -3.93317,16.48325 5.05346,1.20584 -0.46719,1.95788 z m -6.39046,-25.95236 -1.14661,8.89773 2.3718,1.82403 4.72588,-6.14511 1.96213,1.50896 -11.55769,15.02859 -4.85142,-3.73097 q -1.70337,-1.30998 -2.42,-2.78758 -0.73818,-1.49418 -0.55758,-2.93373 0.1806,-1.43956 1.15895,-2.71173 1.1939,-1.55243 3.01151,-2.04189 1.79605,-0.50604 3.88416,0.48216 l 1.06863,-9.19791 z m 0.0146,12.29577 -2.88928,-2.222 q -1.59557,-1.22706 -2.99031,-1.06437 -1.41133,0.18424 -2.42283,1.49952 -1.02809,1.33684 -0.7941,2.68347 0.21244,1.33004 1.82959,2.57371 l 2.88928,2.22199 z m -21.273073,-8.6423 15.625453,-10.73705 1.40181,2.04007 -15.625449,10.73703 z m 3.633006,-11.08447 q -2.702205,0.62913 -5.131795,-0.09 -2.456076,-0.71287 -4.161976,-2.52203 -1.712058,-1.83565 -2.310349,-4.40538 -0.703138,-3.02011 0.229655,-5.61118 0.932806,-2.59106 3.367957,-4.24721 l 0.672297,2.88764 q -1.490124,1.15685 -2.051634,2.82363 -0.567668,1.64028 -0.09895,3.65368 0.45025,1.93392 1.708714,3.26077 1.258468,1.32683 3.13102,1.81251 1.846054,0.49182 4.071397,-0.0262 2.198844,-0.51194 3.664301,-1.77475 1.43897,-1.25666 1.98199,-3.00291 0.54299,-1.74625 0.0928,-3.68017 -0.46875,-2.01341 -1.67606,-3.24045 -1.239959,-1.24736 -3.087836,-1.62705 l -0.672294,-2.88765 q 2.889761,0.41641 4.8711,2.32901 1.95485,1.91876 2.65799,4.93886 0.59828,2.56974 -0.10054,4.96667 -0.73137,2.3766 -2.59352,4.09485 -1.862132,1.71824 -4.564333,2.34736 z"
       id="path3553"
       aria-label="MAGIC ELECTRIC" /><circle
       style="opacity:1;fill:none;fill-opacity:1;fill-rule:evenodd;stroke:#000000;stroke-width:1;stroke-linejoin:round;stroke-dasharray:none;stroke-opacity:1"
       id="circle3553"
       cx="140.32436"
       cy="660.76398"
       r="59.941498" /><path
       id="path3554"
       style="fill:#000000;fill-opacity:1;fill-rule:evenodd;stroke-width:1.99999;stroke-linecap:round"
       inkscape:transform-center-y="2.0967649"
       d="m 140.32436,630.14995 c -3.9431,14.71524 -14.27149,25.74361 -29.94276,29.94259 15.67127,4.19915 25.99966,15.22754 29.94276,29.94275 3.94312,-14.71521 14.2715,-25.7436 29.94278,-29.94275 -15.67128,-4.19898 -25.99966,-15.22735 -29.94278,-29.94259 z"
       sodipodi:nodetypes="ccccc"
       inkscape:transform-center-x="2.0090598e-05" /></g></svg>
