<?xml version="1.0" encoding="UTF-8" standalone="no"?>
<!-- Created with Inkscape (http://www.inkscape.org/) -->

<svg
   width="190.5mm"
   height="190.5mm"
   viewBox="0 0 190.5 190.5"
   version="1.1"
   id="svg1"
   xml:space="preserve"
   inkscape:export-filename="BCF.png"
   inkscape:export-xdpi="72"
   inkscape:export-ydpi="72"
   sodipodi:docname="Stamp3.svg"
   inkscape:version="1.4.2 (ebf0e94, 2025-05-08)"
   xmlns:inkscape="http://www.inkscape.org/namespaces/inkscape"
   xmlns:sodipodi="http://sodipodi.sourceforge.net/DTD/sodipodi-0.dtd"
   xmlns="http://www.w3.org/2000/svg"
   xmlns:svg="http://www.w3.org/2000/svg"><sodipodi:namedview
     id="namedview1"
     pagecolor="#505050"
     bordercolor="#eeeeee"
     borderopacity="1"
     inkscape:showpageshadow="0"
     inkscape:pageopacity="0"
     inkscape:pagecheckerboard="0"
     inkscape:deskcolor="#505050"
     inkscape:document-units="mm"
     showguides="false"
     inkscape:zoom="0.41607187"
     inkscape:cx="985.40668"
     inkscape:cy="169.44188"
     inkscape:window-width="1920"
     inkscape:window-height="1048"
     inkscape:window-x="0"
     inkscape:window-y="0"
     inkscape:window-maximized="1"
     inkscape:current-layer="layer1"><sodipodi:guide
       position="-431.83137,265.35048"
       orientation="1,0"
       id="guide3360"
       inkscape:locked="false" /><sodipodi:guide
       position="-248.18242,268.12132"
       orientation="1,0"
       id="guide3361"
       inkscape:locked="false" /><inkscape:page
       x="4.2680949e-06"
       y="1.4061362e-07"
       width="190.5"
       height="190.5"
       id="page2"
       margin="0"
       bleed="0" /></sodipodi:namedview><defs
     id="defs1" /><g
     inkscape:label="Layer 1"
     inkscape:groupmode="layer"
     id="layer1"
     transform="translate(-146.86704,-543.2171)"><g
       inkscape:label="Layer 1"
       id="g3496"
       transform="matrix(0.47836242,0,0,0.48492189,349.08704,566.64685)"
       style="fill:#000000;stroke-width:2.07628;stroke-dasharray:none"><g
         id="g3495"
         transform="matrix(0.21168478,0,0,0.21168478,958.76783,-724.63312)"
         style="fill:#000000;stroke-width:9.80835;stroke-dasharray:none"><g
           id="g3493"
           transform="translate(-2361.2876,-117.03513)"
           style="fill:#000000;stroke-width:9.80835;stroke-dasharray:none"><path
             id="path3488"
             style="opacity:1;fill:#000000;fill-opacity:1;fill-rule:evenodd;stroke:none;stroke-width:9.80835;stroke-linecap:round;stroke-dasharray:none"
             d="m -3278.9607,4073.4157 c -10.074,0 -19.6217,2.1728 -28.2024,6.0772 l 3.717,4.8436 c 7.1318,-6.0384 14.3661,-8.1276 24.4854,-8.1276 22.6905,0 40.9577,18.2667 40.9577,40.9571 v 16.0234 c -11.3689,-8.5892 -25.5477,-13.6736 -40.9577,-13.6736 -37.603,0 -67.8755,30.2729 -67.8755,67.8759 v 40.8089 c 0,37.603 30.2725,67.8749 67.8755,67.8749 15.4065,0 29.5824,-5.0813 40.9499,-13.6668 -0.1319,6.8185 -1.9048,11.5739 -1.9048,11.5739 h 30.7429 c 0,0 -1.9126,-5.1301 -1.9126,-12.3734 v -140.348 c 0,-37.5889 -30.2825,-67.8455 -67.8754,-67.8455 z m 0,48.8942 c 22.6905,0 40.9577,18.2667 40.9577,40.9572 v 21.4788 13.7893 53.79 c 0,22.6905 -18.2672,40.9572 -40.9577,40.9572 -22.6904,0 -40.9572,-18.2667 -40.9572,-40.9572 v -89.0581 c 0,-22.6905 18.2668,-40.9572 40.9572,-40.9572 z"
             sodipodi:nodetypes="sccsscsssscccsssssccsssss" /><path
             id="path3489"
             style="opacity:1;fill:#000000;fill-opacity:1;fill-rule:evenodd;stroke:none;stroke-width:9.80835;stroke-linecap:round;stroke-dasharray:none"
             d="m -3547.8425,4073.4157 c -16.2863,0 -31.1976,5.6783 -42.8697,15.1717 0,-2.7426 0.2308,-8.3404 1.9125,-13.0788 h -28.8303 c 0,0 1.9126,5.13 1.9126,12.3734 l -5e-4,193.9298 c -0.035,7.1361 -1.9116,12.1708 -1.9116,12.1708 h 30.7423 c 0,0 -1.9125,-5.1301 -1.9125,-12.3734 V 4117.166 c 0,-22.6904 18.2667,-40.9571 40.9572,-40.9571 22.6905,0 40.9577,18.2667 40.9577,40.9571 v 164.5337 c -0.016,7.1954 -1.912,12.2829 -1.912,12.2829 h 30.7423 c 0,0 -1.912,-5.1301 -1.912,-12.3734 V 4117.166 c 0,-22.6904 18.2666,-40.9571 40.9571,-40.9571 22.6905,0 40.9578,18.2667 40.9578,40.9571 v 164.4432 c 0,7.2434 -1.9126,12.3734 -1.9126,12.3734 h 1.9126 26.9177 1.9125 c 0,0 -1.9125,-5.0876 -1.9125,-12.2829 v -140.409 c 0,-37.6031 -30.2725,-67.8755 -67.8755,-67.8755 -22.3215,0 -42.0597,10.667 -54.4163,27.2025 -12.3565,-16.5355 -32.0953,-27.2025 -54.4168,-27.2025 z"
             sodipodi:nodetypes="scccscccsssscccsssssccccssscss" /><path
             id="path3490"
             style="opacity:1;fill:#000000;fill-opacity:1;fill-rule:evenodd;stroke:none;stroke-width:9.80835;stroke-linecap:round;stroke-dasharray:none"
             d="m -3109.1416,4073.4157 c -37.603,0 -67.8755,30.272 -67.8755,67.875 v 86.9094 c 0,37.603 30.2725,67.8754 67.8755,67.8754 15.41,0 29.5888,-5.0839 40.9577,-13.673 v 13.673 c 0,26.5819 -22.2382,40.9926 -40.9577,40.9572 -0.7519,0 -1.2842,-0.1984 -1.2842,-0.1984 v 3.191 c 0,0 0.5323,-0.1984 1.2842,-0.1984 37.5928,0 67.8754,-30.2556 67.8754,-67.8445 V 4087.882 c 0,-7.2433 1.9126,-12.3734 1.9126,-12.3734 h -30.7429 c 0,0 1.7729,4.7559 1.9048,11.5745 -11.3675,-8.5855 -25.5433,-13.6674 -40.9499,-13.6674 z m 0,2.7932 c 22.6905,0 40.9577,18.2666 40.9577,40.9571 v 135.1592 c 0,22.6904 -18.2672,40.9567 -40.9577,40.9567 -22.6904,0 -40.9572,-18.2663 -40.9572,-40.9567 V 4117.166 c 0,-22.6905 18.2668,-40.9571 40.9572,-40.9571 z"
             sodipodi:nodetypes="sssscssccssscccssssssss" /><path
             id="path3491"
             style="opacity:1;fill:#000000;fill-opacity:1;fill-rule:evenodd;stroke:none;stroke-width:9.80835;stroke-linecap:round;stroke-dasharray:none"
             d="m -3003.4862,4139.4936 c 0,0 1.9125,5.13 1.9125,12.3734 v 129.742 c 0,7.2434 -1.9125,12.3734 -1.9125,12.3734 h 30.7428 c 0,0 -1.9125,-5.1301 -1.9125,-12.3734 v -129.742 c 0,-7.2433 1.9125,-12.3734 1.9125,-12.3734 z"
             sodipodi:nodetypes="cssccsscc" /><path
             id="path3492"
             style="opacity:1;fill:#000000;fill-opacity:1;fill-rule:evenodd;stroke:none;stroke-width:9.80835;stroke-linecap:round;stroke-dasharray:none"
             d="m -2871.5586,4073.4155 c -37.6031,0 -67.8755,30.2724 -67.8755,67.8755 v 86.9094 c 0,37.603 30.2724,67.8754 67.8755,67.8754 15.2357,0 29.2682,-4.9697 40.5711,-13.3831 l -4.5067,-10.88 c -6.9088,12.8059 -20.4378,21.4695 -36.0644,21.4695 -22.6906,0 -40.9573,-18.2667 -40.9573,-40.9572 v -135.1587 c 0,-22.6904 18.2667,-40.9572 40.9573,-40.9572 15.6266,0 29.1556,8.6637 36.0644,21.4695 l 4.5067,-10.8799 c -11.3029,-8.4134 -25.3354,-13.3832 -40.5711,-13.3832 z" /><path
             id="path3493"
             style="opacity:1;fill:#000000;fill-opacity:1;fill-rule:evenodd;stroke-width:9.80835;stroke-linecap:round;stroke-dasharray:none"
             inkscape:transform-center-y="7.7582497"
             d="m -2988.1149,4062.5673 c -4.0865,15.2507 -14.7907,26.6803 -31.0322,31.0322 16.2415,4.3519 26.9457,15.7815 31.0322,31.0322 4.0865,-15.2507 14.7907,-26.6803 31.0322,-31.0322 -16.2415,-4.3519 -26.9457,-15.7815 -31.0322,-31.0322 z"
             sodipodi:nodetypes="ccccc" /></g><g
           id="g3494"
           transform="translate(-2061.4945,-319.57729)"
           style="fill:#000000;stroke-width:9.80835;stroke-dasharray:none"><path
             id="path3494"
             style="font-weight:255;font-size:96.5804px;line-height:1.25;font-family:Poppins;-inkscape-font-specification:'Poppins weight=255';letter-spacing:64.8048px;fill:#000000;stroke-width:9.80835;stroke-dasharray:none"
             d="m -3259.6195,4552.8343 c -1.0508,0 -2.5096,0.7051 -2.5096,2.6072 0,1.7714 1.1392,2.6072 2.5096,2.6072 1.5929,0 2.512,-1.232 2.512,-2.6072 0,-1.5405 -1.2316,-2.6072 -2.512,-2.6072 z m -529.9327,0.7007 v 65.4826 h 1.9334 v -65.4826 z m 336.292,0 v 13.3289 h -8.5002 v 1.931 h 8.5002 v 36.5081 c 0,9.2602 2.973,13.7146 12.6503,13.7146 h 5.7002 v -1.9334 h -5.5049 c -7.769,0 -10.9146,-2.1621 -10.9146,-11.7812 v -36.5081 h 16.4195 v -1.931 h -16.4195 v -13.3289 z m 117.7292,12.1693 c -11.6541,0 -18.5091,4.6026 -20.5695,13.8099 v -12.6503 h -1.9335 v 52.1537 h 1.9335 v -31.0032 c 0,-16.6267 11.0809,-20.1862 20.5695,-20.1862 z m -556.781,0.4834 c -13.8565,0 -25.1101,9.219 -25.1101,26.7531 0,17.5347 11.2542,26.753 25.1101,26.753 15.3937,0 22.4741,-9.3716 23.9531,-18.3504 h -1.9335 c -1.7426,10.7227 -10.7193,16.6099 -22.0196,16.6099 -10.7278,0 -22.9629,-6.3715 -23.1791,-24.1435 h 47.0345 c 1.4699,-26.2082 -18.8846,-27.6221 -23.8554,-27.6221 z m 208.6126,0 c -13.8565,0 -25.1126,9.219 -25.1126,26.7531 0,17.5347 11.2567,26.753 25.1126,26.753 15.3937,0 22.4715,-9.3716 23.9505,-18.3504 h -1.9309 c -1.7426,10.7227 -10.7193,16.6099 -22.0196,16.6099 -10.7278,0 -22.963,-6.3715 -23.1792,-24.1435 h 47.0345 c 1.4699,-26.2082 -18.8845,-27.6221 -23.8553,-27.6221 z m 125.4555,0 c -13.1954,0 -25.1101,8.7164 -25.1101,26.7531 0,16.504 10.3528,26.753 25.1101,26.753 15.3941,0 22.4744,-9.3721 23.9531,-18.3504 h -1.931 c -1.7424,10.7227 -10.722,16.6099 -22.0221,16.6099 -10.0048,0 -23.1791,-5.7775 -23.1791,-25.0125 0,-18.8163 12.9721,-25.015 23.1791,-25.015 11.3027,0 20.28,5.8918 22.0221,16.6124 h 1.931 c -1.5644,-9.4986 -9.2599,-18.3505 -23.9531,-18.3505 z m 403.5104,0 c -13.8534,0 -25.1101,9.2157 -25.1101,26.7531 0,17.5373 11.2566,26.753 25.1101,26.753 15.394,0 22.4742,-9.372 23.953,-18.3504 h -1.9309 c -1.7425,10.7227 -10.7219,16.6099 -22.0221,16.6099 -11.8696,0 -23.1792,-7.4804 -23.1792,-25.0125 0,-18.8254 12.8807,-25.015 23.1792,-25.015 11.3026,0 20.2799,5.8916 22.0221,16.6124 h 1.9309 c -1.5644,-9.4985 -9.2597,-18.3505 -23.953,-18.3505 z m -737.5785,1.7381 c 13.0653,0 23.0989,9.4295 22.2125,24.1459 h -45.3916 c 0.2295,-19.044 14.1282,-24.1459 23.1791,-24.1459 z m 208.6126,0 c 13.0653,0 23.0988,9.4295 22.2124,24.1459 h -45.3916 c 0.2295,-19.044 14.1283,-24.1459 23.1792,-24.1459 z m 423.1156,3.4519 v 47.6399 h 1.931 v -47.6399 z" /></g><path
           id="path3495"
           style="opacity:1;fill:#000000;fill-opacity:1;fill-rule:evenodd;stroke:none;stroke-width:9.80835;stroke-linecap:butt;stroke-linejoin:round;stroke-dasharray:none;stroke-opacity:1"
           d="m -5978.9173,4219.9977 v 2.7941 h 482.5121 v -2.7941 z m 559.3896,0 v 2.7941 h 227.2523 v -2.7941 z" /></g></g><path
       style="baseline-shift:baseline;display:inline;overflow:visible;opacity:1;vector-effect:none;fill-rule:evenodd;stroke-linecap:round;enable-background:accumulate;stop-color:#000000;stop-opacity:1"
       d="m 199.64732,611.12237 -0.19141,0.75586 c -1.63234,6.49537 -7.65573,13.0209 -13.33008,17.82422 -5.67434,4.80332 -10.91796,7.9043 -10.91796,7.9043 l -1.45704,0.85937 1.45704,0.86133 c 0,0 5.24363,3.10104 10.91796,7.9043 5.67434,4.80326 11.69773,11.32871 13.33008,17.82422 l 0.19141,0.75586 h 84.93945 l 0.18946,-0.75586 c 1.63235,-6.49551 7.65574,-13.02096 13.33007,-17.82422 5.67434,-4.80326 10.91993,-7.9043 10.91993,-7.9043 l 1.45507,-0.86133 -1.45507,-0.85937 c 0,0 -5.24559,-3.10098 -10.91993,-7.9043 -5.67434,-4.80332 -11.69772,-11.32885 -13.33007,-17.82422 l -0.18946,-0.75586 z m 1.44726,2 h 82.04493 c 2.06928,6.98939 8.06739,13.35798 13.67578,18.10547 4.67947,3.96117 8.3211,6.2859 9.85937,7.24024 -1.53894,0.95476 -5.18065,3.27585 -9.85937,7.23633 -5.6084,4.74743 -11.60651,11.11791 -13.67578,18.10742 h -82.04493 c -2.06927,-6.98951 -8.06738,-13.35999 -13.67578,-18.10742 -4.67872,-3.96048 -8.32042,-6.28157 -9.85937,-7.23633 1.53827,-0.95434 5.1799,-3.27907 9.85937,-7.24024 5.6084,-4.74749 11.60651,-11.11608 13.67578,-18.10547 z"
       id="path3559" /><path
       style="baseline-shift:baseline;display:inline;overflow:visible;opacity:1;vector-effect:none;fill-rule:evenodd;stroke-linecap:round;enable-background:accumulate;stop-color:#000000;stop-opacity:1"
       d="m 197.50865,608.05011 -0.18946,0.75781 c -1.82864,7.30041 -8.54981,14.59268 -14.87304,19.96289 -6.32323,5.37021 -12.16797,8.83594 -12.16797,8.83594 l -1.44922,0.85937 1.44922,0.86133 c 0,0 5.84474,3.4658 12.16797,8.83594 6.32323,5.37014 13.0444,12.66233 14.87304,19.96289 l 0.18946,0.75781 h 89.21484 l 0.18945,-0.75781 c 1.82865,-7.30056 8.55177,-14.59275 14.875,-19.96289 6.32324,-5.37014 12.16602,-8.83594 12.16602,-8.83594 l 1.45117,-0.86133 -1.45117,-0.85937 c 0,0 -5.84278,-3.46573 -12.16602,-8.83594 -6.32323,-5.37021 -13.04635,-12.66248 -14.875,-19.96289 l -0.18945,-0.75781 z m 1.44922,2 h 86.31836 c 2.26707,7.794 8.96022,14.93054 15.21679,20.24414 5.33231,4.52864 9.52601,7.18917 11.11328,8.17187 -1.58679,0.98236 -5.78047,3.64483 -11.11328,8.17383 -6.25698,5.31388 -12.95015,12.44942 -15.21679,20.24414 h -86.31836 c -2.26662,-7.79475 -8.9598,-14.93024 -15.2168,-20.24414 -5.3328,-4.529 -9.52649,-7.19147 -11.11328,-8.17383 1.58727,-0.9827 5.78097,-3.64323 11.11328,-8.17187 6.25659,-5.31362 12.94975,-12.4501 15.2168,-20.24414 z"
       id="path3560" /></g></svg>
