<?xml version="1.0" encoding="UTF-8" standalone="no"?>
<!-- Created with Inkscape (http://www.inkscape.org/) -->

<svg
   width="190.5mm"
   height="190.5mm"
   viewBox="0 0 190.5 190.5"
   version="1.1"
   id="svg1"
   xml:space="preserve"
   inkscape:export-filename="BCF.png"
   inkscape:export-xdpi="72"
   inkscape:export-ydpi="72"
   sodipodi:docname="Stamp1.svg"
   inkscape:version="1.4.2 (ebf0e94, 2025-05-08)"
   xmlns:inkscape="http://www.inkscape.org/namespaces/inkscape"
   xmlns:sodipodi="http://sodipodi.sourceforge.net/DTD/sodipodi-0.dtd"
   xmlns="http://www.w3.org/2000/svg"
   xmlns:svg="http://www.w3.org/2000/svg"><sodipodi:namedview
     id="namedview1"
     pagecolor="#505050"
     bordercolor="#eeeeee"
     borderopacity="1"
     inkscape:showpageshadow="0"
     inkscape:pageopacity="0"
     inkscape:pagecheckerboard="0"
     inkscape:deskcolor="#505050"
     inkscape:document-units="mm"
     showguides="false"
     inkscape:zoom="1.1481393"
     inkscape:cx="530.42346"
     inkscape:cy="245.17932"
     inkscape:window-width="1920"
     inkscape:window-height="1048"
     inkscape:window-x="0"
     inkscape:window-y="0"
     inkscape:window-maximized="1"
     inkscape:current-layer="layer1"><sodipodi:guide
       position="-232.0883,288.1786"
       orientation="1,0"
       id="guide3360"
       inkscape:locked="false" /><sodipodi:guide
       position="-48.439347,290.94944"
       orientation="1,0"
       id="guide3361"
       inkscape:locked="false" /><inkscape:page
       x="0"
       y="0"
       width="190.5"
       height="190.5"
       id="page2"
       margin="0"
       bleed="0" /></sodipodi:namedview><defs
     id="defs1" /><g
     inkscape:label="Layer 1"
     inkscape:groupmode="layer"
     id="layer1"
     transform="translate(52.876048,-531.58948)"><circle
       style="opacity:1;fill:none;fill-opacity:1;fill-rule:evenodd;stroke:#000000;stroke-width:2.00001;stroke-linejoin:round;stroke-dasharray:none;stroke-opacity:1"
       id="circle3539"
       cx="42.373951"
       cy="626.83948"
       r="61.623512" /><g
       inkscape:label="Layer 1"
       id="g3548"
       transform="matrix(0.56502743,0,0,0.56502743,168.72419,543.15552)"
       style="fill:#000000;stroke-width:1.76983"><g
         id="g3547"
         transform="matrix(0.21168478,0,0,0.21168478,958.76783,-724.63312)"
         style="fill:#000000;stroke-width:8.36072"><g
           id="g3545"
           transform="translate(-2361.2876,-117.03513)"
           style="fill:#000000;stroke-width:8.36072"><path
             id="path3540"
             style="opacity:1;fill:#000000;fill-opacity:1;fill-rule:evenodd;stroke:none;stroke-width:16.7214;stroke-linecap:round"
             d="m -3278.9607,4073.4157 c -10.074,0 -19.6217,2.1728 -28.2024,6.0772 l 3.717,4.8436 c 7.1318,-6.0384 14.3661,-8.1276 24.4854,-8.1276 22.6905,0 40.9577,18.2667 40.9577,40.9571 v 16.0234 c -11.3689,-8.5892 -25.5477,-13.6736 -40.9577,-13.6736 -37.603,0 -67.8755,30.2729 -67.8755,67.8759 v 40.8089 c 0,37.603 30.2725,67.8749 67.8755,67.8749 15.4065,0 29.5824,-5.0813 40.9499,-13.6668 -0.1319,6.8185 -1.9048,11.5739 -1.9048,11.5739 h 30.7429 c 0,0 -1.9126,-5.1301 -1.9126,-12.3734 v -140.348 c 0,-37.5889 -30.2825,-67.8455 -67.8754,-67.8455 z m 0,48.8942 c 22.6905,0 40.9577,18.2667 40.9577,40.9572 v 21.4788 13.7893 53.79 c 0,22.6905 -18.2672,40.9572 -40.9577,40.9572 -22.6904,0 -40.9572,-18.2667 -40.9572,-40.9572 v -89.0581 c 0,-22.6905 18.2668,-40.9572 40.9572,-40.9572 z"
             sodipodi:nodetypes="sccsscsssscccsssssccsssss" /><path
             id="path3541"
             style="opacity:1;fill:#000000;fill-opacity:1;fill-rule:evenodd;stroke:none;stroke-width:16.7214;stroke-linecap:round"
             d="m -3547.8425,4073.4157 c -16.2863,0 -31.1976,5.6783 -42.8697,15.1717 0,-2.7426 0.2308,-8.3404 1.9125,-13.0788 h -28.8303 c 0,0 1.9126,5.13 1.9126,12.3734 l -5e-4,193.9298 c -0.035,7.1361 -1.9116,12.1708 -1.9116,12.1708 h 30.7423 c 0,0 -1.9125,-5.1301 -1.9125,-12.3734 V 4117.166 c 0,-22.6904 18.2667,-40.9571 40.9572,-40.9571 22.6905,0 40.9577,18.2667 40.9577,40.9571 v 164.5337 c -0.016,7.1954 -1.912,12.2829 -1.912,12.2829 h 30.7423 c 0,0 -1.912,-5.1301 -1.912,-12.3734 V 4117.166 c 0,-22.6904 18.2666,-40.9571 40.9571,-40.9571 22.6905,0 40.9578,18.2667 40.9578,40.9571 v 164.4432 c 0,7.2434 -1.9126,12.3734 -1.9126,12.3734 h 1.9126 26.9177 1.9125 c 0,0 -1.9125,-5.0876 -1.9125,-12.2829 v -140.409 c 0,-37.6031 -30.2725,-67.8755 -67.8755,-67.8755 -22.3215,0 -42.0597,10.667 -54.4163,27.2025 -12.3565,-16.5355 -32.0953,-27.2025 -54.4168,-27.2025 z"
             sodipodi:nodetypes="scccscccsssscccsssssccccssscss" /><path
             id="path3542"
             style="opacity:1;fill:#000000;fill-opacity:1;fill-rule:evenodd;stroke:none;stroke-width:16.7214;stroke-linecap:round"
             d="m -3109.1416,4073.4157 c -37.603,0 -67.8755,30.272 -67.8755,67.875 v 86.9094 c 0,37.603 30.2725,67.8754 67.8755,67.8754 15.41,0 29.5888,-5.0839 40.9577,-13.673 v 13.673 c 0,26.5819 -22.2382,40.9926 -40.9577,40.9572 -0.7519,0 -1.2842,-0.1984 -1.2842,-0.1984 v 3.191 c 0,0 0.5323,-0.1984 1.2842,-0.1984 37.5928,0 67.8754,-30.2556 67.8754,-67.8445 V 4087.882 c 0,-7.2433 1.9126,-12.3734 1.9126,-12.3734 h -30.7429 c 0,0 1.7729,4.7559 1.9048,11.5745 -11.3675,-8.5855 -25.5433,-13.6674 -40.9499,-13.6674 z m 0,2.7932 c 22.6905,0 40.9577,18.2666 40.9577,40.9571 v 135.1592 c 0,22.6904 -18.2672,40.9567 -40.9577,40.9567 -22.6904,0 -40.9572,-18.2663 -40.9572,-40.9567 V 4117.166 c 0,-22.6905 18.2668,-40.9571 40.9572,-40.9571 z"
             sodipodi:nodetypes="sssscssccssscccssssssss" /><path
             id="path3543"
             style="opacity:1;fill:#000000;fill-opacity:1;fill-rule:evenodd;stroke:none;stroke-width:16.7214;stroke-linecap:round"
             d="m -3003.4862,4139.4936 c 0,0 1.9125,5.13 1.9125,12.3734 v 129.742 c 0,7.2434 -1.9125,12.3734 -1.9125,12.3734 h 30.7428 c 0,0 -1.9125,-5.1301 -1.9125,-12.3734 v -129.742 c 0,-7.2433 1.9125,-12.3734 1.9125,-12.3734 z"
             sodipodi:nodetypes="cssccsscc" /><path
             id="path3544"
             style="opacity:1;fill:#000000;fill-opacity:1;fill-rule:evenodd;stroke:none;stroke-width:16.7214;stroke-linecap:round"
             d="m -2871.5586,4073.4155 c -37.6031,0 -67.8755,30.2724 -67.8755,67.8755 v 86.9094 c 0,37.603 30.2724,67.8754 67.8755,67.8754 15.2357,0 29.2682,-4.9697 40.5711,-13.3831 l -4.5067,-10.88 c -6.9088,12.8059 -20.4378,21.4695 -36.0644,21.4695 -22.6906,0 -40.9573,-18.2667 -40.9573,-40.9572 v -135.1587 c 0,-22.6904 18.2667,-40.9572 40.9573,-40.9572 15.6266,0 29.1556,8.6637 36.0644,21.4695 l 4.5067,-10.8799 c -11.3029,-8.4134 -25.3354,-13.3832 -40.5711,-13.3832 z" /><path
             id="path3545"
             style="opacity:1;fill:#000000;fill-opacity:1;fill-rule:evenodd;stroke-width:16.7214;stroke-linecap:round"
             inkscape:transform-center-y="7.7582497"
             d="m -2988.1149,4062.5673 c -4.0865,15.2507 -14.7907,26.6803 -31.0322,31.0322 16.2415,4.3519 26.9457,15.7815 31.0322,31.0322 4.0865,-15.2507 14.7907,-26.6803 31.0322,-31.0322 -16.2415,-4.3519 -26.9457,-15.7815 -31.0322,-31.0322 z"
             sodipodi:nodetypes="ccccc" /></g><g
           id="g3546"
           transform="translate(-2061.4945,-319.57729)"
           style="fill:#000000;stroke-width:8.36072"><path
             id="path3546"
             style="font-weight:255;font-size:96.5804px;line-height:1.25;font-family:Poppins;-inkscape-font-specification:'Poppins weight=255';letter-spacing:64.8048px;fill:#000000;stroke-width:2.21209"
             d="m -3259.6195,4552.8343 c -1.0508,0 -2.5096,0.7051 -2.5096,2.6072 0,1.7714 1.1392,2.6072 2.5096,2.6072 1.5929,0 2.512,-1.232 2.512,-2.6072 0,-1.5405 -1.2316,-2.6072 -2.512,-2.6072 z m -529.9327,0.7007 v 65.4826 h 1.9334 v -65.4826 z m 336.292,0 v 13.3289 h -8.5002 v 1.931 h 8.5002 v 36.5081 c 0,9.2602 2.973,13.7146 12.6503,13.7146 h 5.7002 v -1.9334 h -5.5049 c -7.769,0 -10.9146,-2.1621 -10.9146,-11.7812 v -36.5081 h 16.4195 v -1.931 h -16.4195 v -13.3289 z m 117.7292,12.1693 c -11.6541,0 -18.5091,4.6026 -20.5695,13.8099 v -12.6503 h -1.9335 v 52.1537 h 1.9335 v -31.0032 c 0,-16.6267 11.0809,-20.1862 20.5695,-20.1862 z m -556.781,0.4834 c -13.8565,0 -25.1101,9.219 -25.1101,26.7531 0,17.5347 11.2542,26.753 25.1101,26.753 15.3937,0 22.4741,-9.3716 23.9531,-18.3504 h -1.9335 c -1.7426,10.7227 -10.7193,16.6099 -22.0196,16.6099 -10.7278,0 -22.9629,-6.3715 -23.1791,-24.1435 h 47.0345 c 1.4699,-26.2082 -18.8846,-27.6221 -23.8554,-27.6221 z m 208.6126,0 c -13.8565,0 -25.1126,9.219 -25.1126,26.7531 0,17.5347 11.2567,26.753 25.1126,26.753 15.3937,0 22.4715,-9.3716 23.9505,-18.3504 h -1.9309 c -1.7426,10.7227 -10.7193,16.6099 -22.0196,16.6099 -10.7278,0 -22.963,-6.3715 -23.1792,-24.1435 h 47.0345 c 1.4699,-26.2082 -18.8845,-27.6221 -23.8553,-27.6221 z m 125.4555,0 c -13.1954,0 -25.1101,8.7164 -25.1101,26.7531 0,16.504 10.3528,26.753 25.1101,26.753 15.3941,0 22.4744,-9.3721 23.9531,-18.3504 h -1.931 c -1.7424,10.7227 -10.722,16.6099 -22.0221,16.6099 -10.0048,0 -23.1791,-5.7775 -23.1791,-25.0125 0,-18.8163 12.9721,-25.015 23.1791,-25.015 11.3027,0 20.28,5.8918 22.0221,16.6124 h 1.931 c -1.5644,-9.4986 -9.2599,-18.3505 -23.9531,-18.3505 z m 403.5104,0 c -13.8534,0 -25.1101,9.2157 -25.1101,26.7531 0,17.5373 11.2566,26.753 25.1101,26.753 15.394,0 22.4742,-9.372 23.953,-18.3504 h -1.9309 c -1.7425,10.7227 -10.7219,16.6099 -22.0221,16.6099 -11.8696,0 -23.1792,-7.4804 -23.1792,-25.0125 0,-18.8254 12.8807,-25.015 23.1792,-25.015 11.3026,0 20.2799,5.8916 22.0221,16.6124 h 1.9309 c -1.5644,-9.4985 -9.2597,-18.3505 -23.953,-18.3505 z m -737.5785,1.7381 c 13.0653,0 23.0989,9.4295 22.2125,24.1459 h -45.3916 c 0.2295,-19.044 14.1282,-24.1459 23.1791,-24.1459 z m 208.6126,0 c 13.0653,0 23.0988,9.4295 22.2124,24.1459 h -45.3916 c 0.2295,-19.044 14.1283,-24.1459 23.1792,-24.1459 z m 423.1156,3.4519 v 47.6399 h 1.931 v -47.6399 z" /></g><path
           id="path3547"
           style="opacity:1;fill:#000000;fill-opacity:1;fill-rule:evenodd;stroke:none;stroke-width:83.6065;stroke-linecap:butt;stroke-linejoin:round;stroke-dasharray:none;stroke-opacity:1"
           d="m -5978.9173,4219.9977 v 2.7941 h 482.5121 v -2.7941 z m 559.3896,0 v 2.7941 h 227.2523 v -2.7941 z" /></g></g><path
       id="path3550"
       style="opacity:1;fill:none;fill-opacity:1;fill-rule:evenodd;stroke:#000000;stroke-width:2.00001;stroke-linejoin:round;stroke-dasharray:none;stroke-opacity:1"
       d="M 90.734452,599.80406 H 76.574705 A 43.595933,43.595933 0 0 0 42.373952,583.24354 43.595933,43.595933 0 0 0 8.1732028,599.80406 H -4.9818381" /><path
       id="path3551"
       style="opacity:1;fill:none;fill-opacity:1;fill-rule:evenodd;stroke:#000000;stroke-width:2.00001;stroke-linejoin:round;stroke-dasharray:none;stroke-opacity:1"
       d="M 90.734452,653.87489 H 76.574705 A 43.595933,43.595933 0 0 1 42.373952,670.43541 43.595933,43.595933 0 0 1 8.1732028,653.87489 H -4.9818381" /><path
       style="font-size:9.87778px;line-height:1.25;font-family:Poppins;-inkscape-font-specification:Poppins;text-align:center;letter-spacing:0px;direction:rtl;text-anchor:middle;stroke-width:0.264583"
       d="m 4.589071,582.72332 6.439159,6.33141 -0.832589,0.84676 -4.8014605,-4.72111 2.6970859,6.8613 -0.5855642,0.59553 -6.92427755,-2.58077 4.81076095,4.73026 -0.8326022,0.84677 -6.4391584,-6.33141 0.89663739,-0.9119 7.66480981,2.85136 -2.9802964,-7.6156 z m 5.711851,2.38173 q -0.6098603,-0.91086 -0.6985741,-1.84087 -0.095914,-0.94084 0.2897105,-1.74874 0.3965106,-0.81514 1.1881046,-1.34514 0.780748,-0.52274 1.580534,-0.57137 0.799785,-0.0486 1.422962,0.27226 l -0.726027,-1.08439 0.997625,-0.66793 3.978607,5.94237 -0.997624,0.66794 -0.740546,-1.10606 q 0.05575,0.71652 -0.297518,1.45558 -0.34965,0.72095 -1.119565,1.23643 -0.791594,0.53 -1.692737,0.56797 -0.901156,0.038 -1.741751,-0.42002 -0.840608,-0.45799 -1.443201,-1.35803 z m 5.038761,-3.3579 q -0.450135,-0.67231 -1.055199,-0.98962 -0.605064,-0.31731 -1.245601,-0.26536 -0.636943,0.0338 -1.189968,0.40411 -0.553038,0.37027 -0.834227,0.93545 -0.281189,0.56518 -0.218316,1.2455 0.06288,0.68031 0.513021,1.35262 0.457388,0.68316 1.069718,1.01131 0.605064,0.31731 1.242007,0.28348 0.629677,-0.0447 1.182715,-0.41496 0.553025,-0.37027 0.834214,-0.93545 0.284783,-0.58329 0.221897,-1.26361 -0.07015,-0.69116 -0.520261,-1.36347 z m 4.574028,-6.49955 q 0.849499,-0.36989 1.645136,-0.27509 0.807607,0.0896 1.363551,0.51647 l -0.520974,-1.19649 1.100752,-0.47929 2.917477,6.70028 q 0.390737,0.89737 0.310029,1.75803 -0.07557,0.87264 -0.621459,1.58007 -0.534001,0.70221 -1.479216,1.11378 -1.292197,0.56265 -2.419371,0.32756 -1.127162,-0.23511 -1.741157,-1.22028 l 1.076827,-0.46888 q 0.439962,0.52009 1.158604,0.63418 0.723847,0.12604 1.513525,-0.2178 0.897351,-0.39073 1.214845,-1.19793 0.32945,-0.81242 -0.113353,-1.82942 l -0.599132,-1.37596 q -0.07293,0.71497 -0.540395,1.37396 -0.467429,0.659 -1.316928,1.0289 -0.873425,0.38031 -1.778861,0.26216 -0.89348,-0.12339 -1.638914,-0.72394 -0.745448,-0.60057 -1.177853,-1.59365 -0.437625,-1.00505 -0.359031,-1.93596 0.07332,-0.94287 0.596953,-1.66902 0.535546,-0.73136 1.408971,-1.11168 z m 3.909975,2.31129 q -0.323003,-0.74182 -0.861773,-1.16196 -0.53877,-0.42013 -1.178289,-0.48326 -0.632768,-0.0803 -1.242971,0.18539 -0.610203,0.26569 -0.98769,0.77166 -0.377486,0.50596 -0.436963,1.18658 -0.05945,0.68064 0.263538,1.42245 0.328222,0.75378 0.872197,1.18589 0.53877,0.42013 1.171538,0.50044 0.62755,0.0683 1.237753,-0.19735 0.610217,-0.26571 0.987703,-0.77167 0.384237,-0.52314 0.443701,-1.20376 0.0543,-0.69259 -0.268744,-1.43441 z m 2.708183,-5.86154 q -0.325288,0.0964 -0.617284,-0.0618 -0.291996,-0.15841 -0.388505,-0.48368 -0.09644,-0.32529 0.06196,-0.61729 0.158404,-0.292 0.483679,-0.3885 0.312777,-0.0927 0.592262,0.0694 0.29201,0.15839 0.388505,0.48368 0.09644,0.32527 -0.06196,0.61728 -0.145879,0.28829 -0.458657,0.38108 z m 0.880797,0.95017 2.033849,6.85598 -1.138497,0.33774 -2.033848,-6.85599 z m 2.912189,2.80386 q -0.193401,-1.09225 0.100141,-1.97915 0.291283,-0.89975 0.982643,-1.48602 0.704215,-0.58855 1.706503,-0.76602 1.297851,-0.22981 2.244586,0.25196 0.959576,0.47947 1.427375,1.54963 l -1.259288,0.22298 q -0.29366,-0.61064 -0.886491,-0.89001 -0.579989,-0.28163 -1.350987,-0.14511 -1.002288,0.17747 -1.496219,0.98058 -0.496216,0.79026 -0.273236,2.04956 0.225253,1.27215 0.964927,1.85682 0.739661,0.58468 1.741949,0.40722 0.770998,-0.13652 1.221292,-0.58734 0.450293,-0.45081 0.524726,-1.15313 l 1.259287,-0.22298 q -0.09155,1.12946 -0.823632,1.93498 -0.734323,0.79266 -2.006465,1.01791 -1.002301,0.17747 -1.865778,-0.13348 -0.850636,-0.31323 -1.433148,-1.05827 -0.582526,-0.74504 -0.778199,-1.85013 z m 13.926237,-5.93778 -0.134108,3.03765 3.311438,0.14619 -0.0432,0.97778 -3.311424,-0.14619 -0.138138,3.12891 3.702545,0.16346 -0.0432,0.97778 -4.888932,-0.21583 0.401755,-9.09992 4.888919,0.21584 -0.0432,0.97778 z m 7.698301,-0.83107 -1.39329,9.55583 -1.175105,-0.17133 1.39329,-9.55584 z m 7.914345,7.77931 q -0.08706,0.32792 -0.222108,0.68363 l -5.524237,-1.46745 q -0.208316,1.03835 0.268176,1.78604 0.492477,0.73842 1.400569,0.97965 0.744126,0.19768 1.32648,-0.0119 0.5983,-0.21914 0.954212,-0.7457 l 1.236023,0.32833 q -0.542152,0.92267 -1.542089,1.33217 -0.996594,0.39688 -2.232603,0.0686 -0.983766,-0.26134 -1.648479,-0.91049 -0.652096,-0.6458 -0.879106,-1.57026 -0.223667,-0.93707 0.06117,-2.00912 0.284783,-1.07206 0.928028,-1.76535 0.643245,-0.69328 1.526512,-0.91772 0.89924,-0.23372 1.908226,0.0344 0.983766,0.26133 1.626601,0.89116 0.642836,0.62985 0.845418,1.4938 0.218528,0.8547 -0.03276,1.80064 z m -1.121916,-0.55457 q 0.174217,-0.65585 0.0079,-1.19957 -0.162777,-0.55633 -0.603611,-0.92997 -0.424876,-0.38292 -1.03027,-0.54374 -0.870268,-0.23117 -1.63569,0.15961 -0.752806,0.39413 -1.102417,1.35445 z m 2.673834,1.38861 q 0.454719,-1.01174 1.196441,-1.57975 0.747059,-0.5799 1.648479,-0.67553 0.91331,-0.0902 1.841747,0.32699 1.202188,0.5403 1.713756,1.47126 0.523471,0.93633 0.308021,2.08422 l -1.166491,-0.52425 q 0.100802,-0.67005 -0.232043,-1.23456 -0.320982,-0.55917 -1.035158,-0.88015 -0.928437,-0.41727 -1.788651,-0.0313 -0.854863,0.37408 -1.379127,1.54057 -0.529601,1.17839 -0.247144,2.07794 0.282471,0.89953 1.210908,1.31679 0.714176,0.32097 1.340075,0.20167 0.625911,-0.11929 1.082626,-0.65801 l 1.166491,0.52426 q -0.71123,0.88216 -1.769653,1.13613 -1.053072,0.24209 -2.231454,-0.28751 -0.928437,-0.41727 -1.467286,-1.16021 -0.526932,-0.73757 -0.589263,-1.68124 -0.06236,-0.94367 0.397726,-1.96733 z m 10.525135,2.41125 -2.207357,3.59091 q -0.273355,0.44469 -0.200547,0.74986 0.07966,0.29406 0.546591,0.58108 l 0.744852,0.45787 -0.526205,0.85604 -0.911619,-0.56039 q -0.844929,-0.51937 -1.028196,-1.16816 -0.183267,-0.6488 0.363443,-1.5382 l 2.207356,-3.59089 -0.789335,-0.48521 0.512545,-0.83381 0.789336,0.48521 0.943075,-1.5342 1.011681,0.6219 -0.943075,1.53419 1.589781,0.97725 -0.512545,0.8338 z m 4.095884,3.01384 q 0.620191,-0.29941 1.282724,-0.22274 0.672918,0.0845 1.338344,0.58927 l -0.741299,0.97736 -0.249548,-0.18928 q -1.590785,-1.2066 -2.899906,0.51937 l -2.350104,3.0984 -0.946166,-0.71765 4.321678,-5.69774 0.946154,0.71765 z m 5.246509,1.30846 q -0.2526,-0.22652 -0.27066,-0.55823 -0.0181,-0.3317 0.208461,-0.58431 0.226521,-0.2526 0.558231,-0.27066 0.331696,-0.0181 0.584309,0.20846 0.242889,0.21782 0.251226,0.54081 0.0181,0.33169 -0.208461,0.58431 -0.226521,0.2526 -0.558217,0.27066 -0.321999,0.0268 -0.564889,-0.19104 z m -0.347906,1.24803 -4.774364,5.32415 -0.884126,-0.79282 4.774364,-5.32415 z m -0.862645,3.94943 q 0.829049,-0.73694 1.73829,-0.95153 0.919004,-0.22326 1.780565,0.0585 0.870241,0.29151 1.546501,1.05228 0.875658,0.9851 0.96128,2.04391 0.09433,1.06855 -0.572181,2.02765 l -0.849658,-0.95583 q 0.366297,-0.57004 0.293674,-1.22136 -0.06394,-0.64157 -0.584137,-1.22678 -0.67626,-0.76077 -1.619097,-0.76076 -0.933101,-0.009 -1.888938,0.841 -0.965587,0.85832 -1.076113,1.79466 -0.110579,0.93635 0.565721,1.69712 0.520195,0.58521 1.140095,0.73258 0.619887,0.14739 1.257121,-0.15715 l 0.849658,0.95584 q -1.01003,0.51369 -2.079683,0.31213 -1.059889,-0.21023 -1.918214,-1.17582 -0.676246,-0.76077 -0.863741,-1.65918 -0.178828,-0.88866 0.150609,-1.77515 0.32945,-0.88649 1.168248,-1.63211 z"
       id="text3552"
       aria-label="Magic Electric" /><path
       style="font-weight:300;font-size:7.76111px;line-height:1.25;font-family:Poppins;-inkscape-font-specification:'Poppins Light';text-align:center;letter-spacing:0.79375px;direction:rtl;text-anchor:middle;stroke-width:0.264583"
       d="m 1.1444372,663.55065 1.721326,1.91323 -0.4344798,0.39091 -2.20138489,-2.44683 5.32812849,-4.79365 0.4800456,0.53357 z m 7.6236306,-0.82755 q -0.1560518,-0.14835 -0.1615477,-0.36579 -0.00528,-0.21745 0.149935,-0.38092 0.1554309,-0.16349 0.3658075,-0.16155 0.2174315,-0.005 0.3734833,0.14287 0.1560519,0.14836 0.1615478,0.3658 0.013211,0.21001 -0.142867,0.37349 -0.1554309,0.16349 -0.3728624,0.16898 -0.2174447,0.005 -0.3734965,-0.14288 z m -0.4675873,1.01268 -3.8574075,4.05736 -0.5201816,-0.49454 3.8574075,-4.05736 z m 3.4358215,2.83761 q 0.624221,0.4834 0.860307,1.13308 0.236085,0.64969 0.0934,1.25252 l 0.747086,-0.96471 0.567478,0.43946 -3.515671,4.5398 q -0.470837,0.60801 -1.1024825,0.87103 -0.6235467,0.2693 -1.2883523,0.15649 -0.6710941,-0.10477 -1.2709926,-0.56928 -0.851217,-0.65919 -1.1047946,-1.50398 -0.2454658,-0.83853 0.1566199,-1.64243 l 0.5593663,0.43318 q -0.2119224,0.57509 -0.020081,1.16462 0.1999926,0.5958 0.7917925,1.0541 0.4296578,0.33273 0.9145387,0.40995 0.4785924,0.0853 0.9493901,-0.12075 0.4707977,-0.20603 0.8474782,-0.69245 l 0.8475173,-1.09441 q -0.562339,0.29076 -1.2567108,0.23286 -0.6799853,-0.0597 -1.3042058,-0.54313 -0.6080102,-0.47085 -0.8746934,-1.13125 -0.2585715,-0.65415 -0.1324168,-1.38644 0.1342663,-0.726 0.6616216,-1.40697 0.5273421,-0.68096 1.1903773,-0.98452 0.6774224,-0.30538 1.3691789,-0.21062 0.70613,0.0929 1.314141,0.5638 z m -0.01321,3.63404 q 0.414346,-0.53504 0.509361,-1.10989 0.09499,-0.57485 -0.116523,-1.0888 -0.203414,-0.50767 -0.657394,-0.85923 -0.47019,-0.36412 -1.006331,-0.44213 -0.5361407,-0.0779 -1.0689126,0.15782 -0.518398,0.23401 -0.9453078,0.78527 -0.4206212,0.54315 -0.5300239,1.11983 -0.094989,0.57485 0.1084647,1.08252 0.2096765,0.49955 0.6798797,0.86368 0.4539797,0.35157 0.9963958,0.42147 0.5505281,0.0762 1.0833001,-0.15966 0.532785,-0.23583 0.947131,-0.77088 z m 6.251241,0.52152 q 0.551413,0.31634 0.854533,0.79759 0.312038,0.48636 0.285536,1.10949 -0.01189,0.61934 -0.405402,1.30416 l -1.632744,2.84599 -0.613678,-0.35205 1.591948,-2.77485 q 0.454099,-0.79155 0.2937,-1.43916 -0.15152,-0.64252 -0.836341,-1.03539 -0.702603,-0.40309 -1.375718,-0.19821 -0.673129,0.20488 -1.168064,1.06756 l -1.520501,2.65035 -0.622569,-0.35717 3.775762,-6.58138 0.622555,0.35717 -1.464379,2.5525 q 0.481261,-0.30313 1.063707,-0.28814 0.591338,0.0201 1.151655,0.34154 z m 4.350625,2.97076 -1.391585,3.1852 q -0.205251,0.46979 -0.104766,0.72631 0.100538,0.25651 0.551532,0.45355 l 0.601339,0.26271 -0.246299,0.56375 -0.70469,-0.30786 q -0.695297,-0.30377 -0.893982,-0.77101 -0.194576,-0.47664 0.129735,-1.2189 l 1.391585,-3.18521 -0.714083,-0.31197 0.242189,-0.55436 0.714084,0.31199 0.562378,-1.28725 0.667105,0.29146 -0.562379,1.28723 1.409381,0.61575 -0.242189,0.55436 z m 4.054203,-0.18205 q -0.203018,-0.0717 -0.296752,-0.26805 -0.0938,-0.19627 -0.0185,-0.40894 0.07517,-0.21268 0.268031,-0.29675 0.19628,-0.0938 0.399285,-0.0219 0.203005,0.0717 0.296752,0.26804 0.0971,0.1866 0.02193,0.39927 -0.07517,0.21269 -0.271466,0.30643 -0.196267,0.0938 -0.399272,0.0219 z m -0.01374,1.11532 -1.866042,5.27823 -0.676696,-0.23923 1.866043,-5.27823 z m 4.589666,1.23969 q 0.975443,0.24126 1.442409,1.00105 0.469411,0.74983 0.186319,1.89449 l -0.78775,3.18514 -0.686802,-0.16986 0.768065,-3.1055 q 0.219083,-0.88587 -0.113089,-1.46446 -0.322263,-0.57613 -1.08869,-0.76569 -0.786323,-0.19447 -1.377224,0.18751 -0.590902,0.38196 -0.829683,1.34746 l -0.733597,2.96616 -0.696746,-0.17233 1.3441,-5.43462 0.696737,0.17231 -0.228938,0.92569 q 0.381885,-0.43367 0.933615,-0.57185 0.554188,-0.14811 1.171301,0.004 z m 6.370936,1.14331 q 0.785226,0.0823 1.328026,0.51026 0.542812,0.42801 0.739,1.01558 l 0.127093,-1.21351 0.713832,0.0748 -0.598207,5.71068 q -0.08019,0.76481 -0.478606,1.32102 -0.38828,0.55728 -1.012857,0.81145 -0.625647,0.26438 -1.380276,0.18532 -1.070749,-0.11216 -1.731169,-0.69682 -0.65022,-0.58359 -0.731707,-1.47875 l 0.703633,0.0737 q 0.122601,0.60049 0.596226,1.00062 0.483758,0.4012 1.228188,0.47919 0.540474,0.0567 0.993344,-0.13307 0.4518,-0.17947 0.743545,-0.60254 0.291745,-0.42305 0.355846,-1.0349 l 0.144215,-1.37669 q -0.324972,0.54329 -0.945757,0.85972 -0.60953,0.30729 -1.394743,0.22504 -0.764815,-0.0802 -1.339295,-0.50113 -0.564268,-0.41995 -0.842617,-1.10892 -0.268162,-0.6879 -0.178418,-1.54449 0.0897,-0.85661 0.493547,-1.46382 0.415086,-0.61632 1.053073,-0.90001 0.649242,-0.29282 1.414057,-0.21271 z m 1.902519,3.09628 q 0.07055,-0.67305 -0.151415,-1.21177 -0.221923,-0.53873 -0.672375,-0.86427 -0.440254,-0.32448 -1.011312,-0.3843 -0.59147,-0.062 -1.088333,0.15404 -0.496864,0.21601 -0.825614,0.69704 -0.31748,0.47191 -0.390116,1.16536 -0.0716,0.68323 0.139075,1.23109 0.221924,0.53872 0.662177,0.8632 0.441323,0.31427 1.03278,0.37623 0.571071,0.0598 1.069005,-0.16638 0.508133,-0.22512 0.836869,-0.70616 0.32875,-0.48105 0.399259,-1.15408 z m 9.145942,2.6916 q -0.704176,0.0684 -1.268853,-0.12392 -0.554478,-0.19337 -0.903269,-0.60247 -0.348792,-0.40909 -0.421744,-0.94799 l 0.755197,-0.0733 q 0.101595,0.51552 0.548467,0.87388 0.445894,0.34814 1.231702,0.27181 0.724587,-0.0704 1.107318,-0.47842 0.391939,-0.41925 0.336425,-0.99075 -0.04465,-0.45925 -0.306105,-0.71199 -0.262482,-0.26295 -0.622358,-0.36191 -0.360853,-0.10913 -0.98905,-0.21297 -0.733214,-0.12445 -1.169477,-0.26755 -0.436264,-0.14306 -0.769889,-0.50211 -0.333638,-0.35906 -0.398069,-1.0224 -0.05351,-0.55109 0.190573,-1.00748 0.243127,-0.46659 0.739806,-0.76208 0.496679,-0.2955 1.17023,-0.36092 0.989922,-0.0962 1.639627,0.3352 0.658927,0.42017 0.825125,1.17665 l -0.775609,0.0753 q -0.114013,-0.43189 -0.554993,-0.72901 -0.441931,-0.30733 -1.135894,-0.23991 -0.642941,0.0625 -1.037853,0.45108 -0.395916,0.37841 -0.33842,0.97033 0.0436,0.44904 0.305115,0.70177 0.261491,0.25275 0.622357,0.36193 0.371066,0.1082 0.989051,0.21296 0.712802,0.12643 1.160268,0.27875 0.446463,0.14206 0.780101,0.50111 0.333625,0.35906 0.397079,1.0122 0.04862,0.50008 -0.173148,0.97489 -0.221725,0.4748 -0.715431,0.80091 -0.493706,0.32611 -1.218279,0.39649 z m 7.989993,-7.1615 -1.467273,8.75637 -0.730862,0.16151 0.48603,-2.8376 -3.444013,-4.94088 0.770906,-0.17036 2.893207,4.25403 0.771157,-5.06378 z m 4.994464,4.31768 q -0.911038,0.31457 -1.636457,0.0985 -0.719064,-0.229 -1.037906,-0.93248 l 0.697821,-0.24094 q 0.202397,0.4291 0.667738,0.583 0.471696,0.14086 1.101677,-0.0766 0.55243,-0.19074 0.772227,-0.55952 0.229467,-0.37211 0.09565,-0.7598 -0.09367,-0.27137 -0.328393,-0.38558 -0.234685,-0.11428 -0.539523,-0.11745 -0.298496,-0.0163 -0.794183,0.0247 -0.644751,0.049 -1.066588,0.0211 -0.421837,-0.0279 -0.787261,-0.238 -0.359083,-0.22312 -0.536445,-0.73681 -0.133856,-0.38767 -0.01506,-0.79751 0.11877,-0.40984 0.478342,-0.75093 0.359519,-0.34107 0.902265,-0.52849 0.852895,-0.29449 1.526856,-0.0391 0.670605,0.24575 0.970396,0.98833 l -0.678426,0.23426 q -0.189715,-0.45518 -0.625978,-0.61912 -0.429922,-0.17698 -1.011443,0.0238 -0.513669,0.17736 -0.749847,0.53009 -0.236165,0.35274 -0.112296,0.71134 0.107143,0.31014 0.361514,0.45009 0.260764,0.12696 0.581997,0.14616 0.317877,0.009 0.839631,-0.0188 0.625369,-0.0424 1.014786,-0.0141 0.389416,0.0283 0.728761,0.22565 0.339345,0.1974 0.509665,0.65927 0.147253,0.42645 0.03171,0.84599 -0.118769,0.40984 -0.468657,0.74757 -0.349822,0.33775 -0.892568,0.52515 z m 2.791969,-6.58435 1.449649,3.15919 q 0.213798,0.46596 0.472119,0.56177 0.258307,0.0958 0.705628,-0.10939 l 0.596424,-0.27367 0.256577,0.55914 -0.698931,0.32072 q -0.689629,0.31645 -1.170507,0.15354 -0.485158,-0.17224 -0.822971,-0.90845 l -1.449649,-3.15919 -0.708258,0.325 -0.252296,-0.54984 0.708258,-0.32499 -0.585842,-1.27673 0.661661,-0.3036 0.585842,1.27671 1.397874,-0.64142 0.252296,0.54983 z m 8.244892,-2.3446 q 0.189186,0.31695 0.271439,0.49474 l -3.988292,2.38071 q 0.352253,0.53009 0.821201,0.77559 0.468962,0.24547 0.977213,0.21674 0.503007,-0.0375 0.960818,-0.31083 0.598683,-0.35737 0.830251,-0.88967 0.240366,-0.53754 0.07808,-1.1094 l 0.651515,-0.3889 q 0.244343,0.80944 -0.0687,1.60531 -0.309501,0.78181 -1.181116,1.3021 -0.677925,0.40467 -1.39366,0.4259 -0.720993,0.0119 -1.360235,-0.35827 -0.635688,-0.38478 -1.082401,-1.13314 -0.446701,-0.74835 -0.483719,-1.49051 -0.03699,-0.74214 0.321365,-1.36207 0.35837,-0.61993 1.045093,-1.02985 0.686736,-0.40992 1.376062,-0.4154 0.698124,-0.0106 1.275867,0.33699 0.581297,0.33367 0.949179,0.94996 z m -0.635609,0.35553 q -0.311773,-0.54231 -0.766678,-0.78425 -0.446079,-0.24719 -0.949086,-0.20965 -0.502994,0.0375 -0.960818,0.31084 -0.686723,0.40992 -0.908184,1.13918 -0.221448,0.72925 0.203969,1.56196 z m 5.597309,-7.6364 q 0.748459,-0.63931 1.622466,-0.56331 0.875156,0.0616 1.640988,0.95815 l 2.131048,2.49485 -0.537964,0.4595 -2.077754,-2.43248 q -0.592698,-0.69388 -1.240937,-0.77395 -0.648238,-0.0801 -1.225175,0.41273 -0.600322,0.51278 -0.61932,1.21673 -0.01902,0.70396 0.626969,1.46021 l 1.971204,2.30774 -0.53795,0.4595 -2.077767,-2.43248 q -0.592685,-0.69388 -1.240937,-0.77396 -0.648239,-0.0801 -1.232971,0.4194 -0.600321,0.51278 -0.619319,1.21673 -0.01902,0.70395 0.626969,1.4602 l 1.971204,2.30774 -0.545745,0.46616 -3.636079,-4.25684 0.545746,-0.46616 0.62599,0.73286 q -0.136922,-0.57076 0.06421,-1.09312 0.194418,-0.53017 0.654409,-0.92307 0.553553,-0.47282 1.193178,-0.5607 0.647432,-0.0946 1.27407,0.2602 -0.261345,-0.65328 -0.07451,-1.2713 0.18793,-0.63249 0.718087,-1.08533 z m 8.428304,-0.54905 q -0.624855,0.73383 -1.359389,0.91641 -0.735685,0.16812 -1.367726,-0.27578 l 0.478605,-0.56209 q 0.392349,0.26673 0.871351,0.16285 0.477827,-0.11837 0.909902,-0.62578 0.3789,-0.44498 0.380842,-0.87428 0.0079,-0.4371 -0.303701,-0.703 -0.218581,-0.18612 -0.478764,-0.16525 -0.26017,0.0209 -0.52437,0.17299 -0.265349,0.13766 -0.671451,0.42481 -0.530394,0.36985 -0.907906,0.56016 -0.3775,0.1903 -0.798993,0.19501 -0.422643,-0.009 -0.836407,-0.36204 -0.312276,-0.2659 -0.418164,-0.67927 -0.105955,-0.41337 0.03039,-0.88982 0.13634,-0.47644 0.508595,-0.91362 0.58497,-0.687 1.295222,-0.80944 0.702458,-0.12907 1.337974,0.35819 l -0.465315,0.54647 q -0.394661,-0.29564 -0.853714,-0.21519 -0.460215,0.0661 -0.859051,0.53443 -0.352319,0.41375 -0.376509,0.83755 -0.02418,0.42382 0.264662,0.66976 0.249813,0.21272 0.540065,0.20398 0.289076,-0.0231 0.575537,-0.16981 0.278639,-0.15328 0.71366,-0.44274 0.517091,-0.35425 0.86686,-0.52778 0.349755,-0.17353 0.742329,-0.17592 0.392587,-0.003 0.773957,0.30887 0.343494,0.29248 0.457204,0.7125 0.105954,0.41338 -0.02378,0.88201 -0.129735,0.46864 -0.50195,0.90582 z"
       id="text3553"
       aria-label="Lighting Systems" /></g></svg>
