<?xml version="1.0" encoding="UTF-8" standalone="no"?>
<!-- Created with Inkscape (http://www.inkscape.org/) -->

<svg
   width="178.6194mm"
   height="178.6194mm"
   viewBox="0 0 178.6194 178.6194"
   version="1.1"
   id="svg1"
   xml:space="preserve"
   inkscape:version="1.4.2 (ebf0e94, 2025-05-08)"
   sodipodi:docname="typoVLogo.svg"
   xmlns:inkscape="http://www.inkscape.org/namespaces/inkscape"
   xmlns:sodipodi="http://sodipodi.sourceforge.net/DTD/sodipodi-0.dtd"
   xmlns="http://www.w3.org/2000/svg"
   xmlns:svg="http://www.w3.org/2000/svg"><sodipodi:namedview
     id="namedview1"
     pagecolor="#ffffff"
     bordercolor="#000000"
     borderopacity="0.25"
     inkscape:showpageshadow="2"
     inkscape:pageopacity="0.0"
     inkscape:pagecheckerboard="0"
     inkscape:deskcolor="#d1d1d1"
     inkscape:document-units="mm"
     inkscape:zoom="0.90509668"
     inkscape:cx="336.42815"
     inkscape:cy="482.26892"
     inkscape:window-width="1920"
     inkscape:window-height="1048"
     inkscape:window-x="0"
     inkscape:window-y="0"
     inkscape:window-maximized="1"
     inkscape:current-layer="layer1" /><defs
     id="defs1" /><g
     inkscape:label="Layer 1"
     inkscape:groupmode="layer"
     id="layer1"
     transform="translate(312.92758,-71.410004)"><g
       id="g65"
       transform="translate(0,0.18623807)"><g
         id="g64"
         transform="matrix(0.63864519,0,0,0.63864519,-90.429036,53.612499)"
         style="stroke-width:1.56582"><path
           id="path33"
           style="fill:#8c7826;fill-opacity:1;fill-rule:evenodd;stroke:none;stroke-width:3.13163;stroke-linecap:round"
           d="m -235.18689,112.87243 c -2.13252,0 -4.15362,0.45994 -5.97002,1.28645 l 0.78683,1.02531 c 1.50969,-1.27823 3.04108,-1.72049 5.18319,-1.72049 4.80323,0 8.67012,3.86679 8.67012,8.67 v 3.39191 c -2.40663,-1.8182 -5.40806,-2.89449 -8.67012,-2.89449 -7.95999,0 -14.36821,6.40831 -14.36821,14.36829 v 8.63862 c 0,7.95999 6.40822,14.36809 14.36821,14.36809 3.26132,0 6.26214,-1.07564 8.66847,-2.89306 -0.0279,1.44338 -0.40322,2.45002 -0.40322,2.45002 h 6.5078 c 0,0 -0.40487,-1.08596 -0.40487,-2.61926 v -29.70953 c 0,-7.957 -6.41034,-14.36186 -14.36818,-14.36186 z m 0,10.35015 c 4.80323,0 8.67012,3.86679 8.67012,8.67002 v 4.54674 2.91898 11.38652 c 0,4.80324 -3.86689,8.67002 -8.67012,8.67002 -4.80322,0 -8.67002,-3.86678 -8.67002,-8.67002 V 131.8926 c 0,-4.80323 3.8668,-8.67002 8.67002,-8.67002 z"
           sodipodi:nodetypes="sccsscsssscccsssssccsssss" /><path
           id="path34"
           style="fill:#8c7826;fill-opacity:1;fill-rule:evenodd;stroke:none;stroke-width:3.13163;stroke-linecap:round"
           d="m -292.10508,112.87243 c -3.44756,0 -6.60406,1.20201 -9.07486,3.21161 0,-0.58056 0.0489,-1.76553 0.40485,-2.76858 h -6.10294 c 0,0 0.40487,1.08594 0.40487,2.61926 l -1.1e-4,41.05199 c -0.007,1.5106 -0.40465,2.57637 -0.40465,2.57637 h 6.50767 c 0,0 -0.40484,-1.08596 -0.40484,-2.61926 V 122.1337 c 0,-4.80321 3.86678,-8.67 8.67001,-8.67 4.80323,0 8.67012,3.86679 8.67012,8.67 v 34.82928 c -0.003,1.52316 -0.40474,2.6001 -0.40474,2.6001 h 6.50768 c 0,0 -0.40474,-1.08596 -0.40474,-2.61926 V 122.1337 c 0,-4.80321 3.86676,-8.67 8.66999,-8.67 4.80324,0 8.67014,3.86679 8.67014,8.67 v 34.81012 c 0,1.53332 -0.40486,2.61926 -0.40486,2.61926 h 0.40486 5.69807 0.40485 c 0,0 -0.40485,-1.07697 -0.40485,-2.6001 v -29.72245 c 0,-7.96 -6.40823,-14.36821 -14.36821,-14.36821 -4.72512,0 -8.9034,2.25804 -11.5191,5.75836 -2.61568,-3.50032 -6.79409,-5.75836 -11.51921,-5.75836 z"
           sodipodi:nodetypes="scccscccsssscccsssssccccssscss" /><path
           id="path35"
           style="fill:#8c7826;fill-opacity:1;fill-rule:evenodd;stroke:none;stroke-width:3.13163;stroke-linecap:round"
           d="m -199.23878,112.87243 c -7.95998,0 -14.36821,6.40812 -14.36821,14.3681 v 18.3974 c 0,7.95998 6.40823,14.36819 14.36821,14.36819 3.26207,0 6.2635,-1.07619 8.67013,-2.89437 v 2.89437 c 0,5.62698 -4.70749,8.67751 -8.67013,8.67001 -0.15916,0 -0.27184,-0.042 -0.27184,-0.042 v 0.67549 c 0,0 0.11268,-0.042 0.27184,-0.042 7.95783,0 14.36819,-6.40465 14.36819,-14.36165 v -38.97125 c 0,-1.53329 0.40487,-2.61926 0.40487,-2.61926 h -6.5078 c 0,0 0.37529,1.00675 0.40321,2.45015 -2.40632,-1.81742 -5.40712,-2.89318 -8.66847,-2.89318 z m 0,0.59127 c 4.80324,0 8.67013,3.86677 8.67013,8.67 v 28.61114 c 0,4.80322 -3.86689,8.66991 -8.67013,8.66991 -4.80321,0 -8.67001,-3.86669 -8.67001,-8.66991 V 122.1337 c 0,-4.80323 3.8668,-8.67 8.67001,-8.67 z"
           sodipodi:nodetypes="sssscssccssscccssssssss" /><path
           id="path36"
           style="fill:#8c7826;fill-opacity:1;fill-rule:evenodd;stroke:none;stroke-width:3.13163;stroke-linecap:round"
           d="m -176.87314,126.86011 c 0,0 0.40485,1.08594 0.40485,2.61926 v 27.46441 c 0,1.53332 -0.40485,2.61926 -0.40485,2.61926 h 6.50779 c 0,0 -0.40485,-1.08596 -0.40485,-2.61926 v -27.46441 c 0,-1.53329 0.40485,-2.61926 0.40485,-2.61926 z"
           sodipodi:nodetypes="cssccsscc" /><path
           id="path37"
           style="fill:#8c7826;fill-opacity:1;fill-rule:evenodd;stroke:none;stroke-width:3.13163;stroke-linecap:round"
           d="m -148.94607,112.87238 c -7.96,0 -14.36821,6.40821 -14.36821,14.36821 v 18.3974 c 0,7.95998 6.40821,14.36819 14.36821,14.36819 3.22517,0 6.19563,-1.05201 8.58828,-2.833 l -0.954,-2.30313 c -1.46248,2.71082 -4.32637,4.54477 -7.63428,4.54477 -4.80326,0 -8.67004,-3.86678 -8.67004,-8.67002 v -28.61104 c 0,-4.80321 3.86678,-8.67001 8.67004,-8.67001 3.30791,0 6.1718,1.83397 7.63428,4.54476 l 0.954,-2.30311 c -2.39265,-1.78099 -5.36311,-2.83302 -8.58828,-2.83302 z" /><path
           id="path38"
           style="fill:#c8ab37;fill-opacity:1;fill-rule:evenodd;stroke-width:3.13163;stroke-linecap:round"
           inkscape:transform-center-y="7.7582497"
           d="m -173.61927,110.57599 c -0.86505,3.22834 -3.13096,5.64781 -6.56904,6.56904 3.43808,0.92123 5.70399,3.3407 6.56904,6.56904 0.86505,-3.22834 3.13097,-5.64781 6.56905,-6.56904 -3.43808,-0.92123 -5.704,-3.3407 -6.56905,-6.56904 z"
           sodipodi:nodetypes="ccccc" /></g><g
         id="g63"
         transform="matrix(0.63864519,0,0,0.63864519,-376.76317,94.566934)"
         style="fill:#ffffff;stroke-width:1.56582"><path
           id="rect16"
           style="opacity:1;fill:#ffffff;fill-opacity:1;fill-rule:evenodd;stroke:none;stroke-width:0.391455;stroke-linejoin:round;stroke-opacity:1"
           d="m 155.78978,113.15268 c -7.9341,0 -14.32177,6.38699 -14.32161,14.32109 v 7.29154 1.3193 9.72757 c 1.6e-4,7.93401 6.3876,14.32161 14.32161,14.32161 2.53406,0 4.91036,-0.65185 6.97115,-1.79731 l -0.3421,-0.82631 h -5.2e-4 c -1.88492,1.28406 -4.16599,2.03399 -6.62853,2.03399 -6.51473,0 -11.75942,-5.24476 -11.75949,-11.75949 v -3.50366 c 2.58324,3.70753 6.87869,6.12521 11.75949,6.12521 7.93401,0 14.32145,-6.3876 14.3216,-14.32161 v -8.61084 c 1.6e-4,-7.9341 -6.3875,-14.32109 -14.3216,-14.32109 z m 0,0.58911 c 6.51481,0 11.75956,5.24468 11.75949,11.75949 v 12.55582 c -8e-5,6.51473 -5.24476,11.75949 -11.75949,11.75949 -6.51473,0 -11.75942,-5.24476 -11.75949,-11.75949 v -3.29179 -9.26403 c -7e-5,-6.51481 5.24468,-11.75949 11.75949,-11.75949 z" /><path
           id="path19"
           style="opacity:1;fill:#ffffff;fill-opacity:1;fill-rule:evenodd;stroke:none;stroke-width:0.391455;stroke-linejoin:round;stroke-opacity:1"
           d="m 175.09403,108.16329 c 0.25025,0.83231 0.37729,1.69549 0.37723,2.56315 v 35.08522 c 1.6e-4,7.93401 6.3876,14.32161 14.32161,14.32161 v -0.58963 c -6.51473,0 -11.75942,-5.24476 -11.75949,-11.75949 v -37.05771 c -5e-5,-0.86764 0.12699,-1.73086 0.37724,-2.56315 z"
           sodipodi:nodetypes="ccccccccc" /><path
           id="path20"
           style="opacity:1;fill:#ffffff;fill-opacity:1;fill-rule:evenodd;stroke:none;stroke-width:0.391455;stroke-linejoin:round;stroke-opacity:1"
           d="m 205.80899,113.15268 c -7.9341,0 -14.32176,6.38699 -14.3216,14.32109 v 7.29154 1.3193 9.72757 c 1.6e-4,7.93401 6.38759,14.32161 14.3216,14.32161 2.53406,0 4.91036,-0.65185 6.97115,-1.79731 l -0.34209,-0.82631 h -5.2e-4 c -1.88492,1.28406 -4.166,2.03399 -6.62854,2.03399 -6.51473,0 -11.75942,-5.24476 -11.75949,-11.75949 v -3.50366 c 2.58324,3.70753 6.87869,6.12521 11.75949,6.12521 7.93401,0 14.32145,-6.3876 14.32161,-14.32161 v -8.61084 c 1.6e-4,-7.9341 -6.38751,-14.32109 -14.32161,-14.32109 z m 0,0.58911 c 6.51481,0 11.75956,5.24468 11.75949,11.75949 v 12.55582 c -7e-5,6.51473 -5.24476,11.75949 -11.75949,11.75949 -6.51473,0 -11.75942,-5.24476 -11.75949,-11.75949 v -3.29179 -9.26403 c -7e-5,-6.51481 5.24468,-11.75949 11.75949,-11.75949 z" /><path
           id="path22"
           style="opacity:1;fill:#ffffff;fill-opacity:1;fill-rule:evenodd;stroke:none;stroke-width:0.391455;stroke-linejoin:round;stroke-opacity:1"
           d="m 239.09845,113.15268 c -7.9341,0 -14.3216,6.38699 -14.3216,14.32109 v 18.33789 c 0,7.9341 6.3875,14.32161 14.3216,14.32161 3.21468,0 6.17531,-1.04839 8.5602,-2.8236 l -0.42323,-1.02113 c -2.10948,2.01849 -4.97325,3.2551 -8.13697,3.2551 -6.51481,0 -11.75949,-5.24468 -11.75949,-11.75949 v -22.28287 c 0,-6.51481 5.24468,-11.75949 11.75949,-11.75949 3.16379,0 6.02799,1.23704 8.13749,3.25561 l 0.42271,-1.02112 c -2.3849,-1.77514 -5.3455,-2.8236 -8.5602,-2.8236 z" /><path
           id="path23"
           style="opacity:1;fill:#ffffff;fill-opacity:1;fill-rule:evenodd;stroke:none;stroke-width:0.391455;stroke-linejoin:round;stroke-opacity:1"
           d="m 254.69801,108.16329 c 0.25026,0.83231 0.3773,1.69549 0.37724,2.56315 h 5.2e-4 v 10.71201 h -5.60069 v 0.58911 h 5.60069 v 23.7841 c 1.6e-4,7.93401 6.38759,14.32161 14.32161,14.32161 v -0.58963 c -6.51474,0 -11.75942,-5.24476 -11.75949,-11.75949 v -25.75659 h 5.60017 v -0.58911 h -5.60017 v -10.71201 h -5.2e-4 c -6e-5,-0.86764 0.12699,-1.73086 0.37724,-2.56315 z"
           sodipodi:nodetypes="ccccccccccccccccccc" /><path
           id="path25"
           style="opacity:1;fill:#ffffff;fill-opacity:1;fill-rule:evenodd;stroke:none;stroke-width:0.391455;stroke-linejoin:round;stroke-opacity:1"
           d="m 289.40444,113.15216 c -4.89719,0 -9.20544,2.43369 -11.78584,6.16241 v -3.15743 c -6e-5,-0.86763 0.12698,-1.73086 0.37723,-2.56315 h -3.31659 c 0.25026,0.83231 0.3773,1.69549 0.37724,2.56315 l 0.0263,43.5343 h 2.53577 v -21.17029 h 0.0263 v -13.01987 c 7e-5,-6.51473 5.24476,-11.75949 11.75949,-11.75949 2.46254,0 4.74362,0.74992 6.62854,2.03398 h 5.1e-4 l 0.3421,-0.8263 c -2.06079,-1.14546 -4.43709,-1.79731 -6.97115,-1.79731 z" /><path
           style="baseline-shift:baseline;display:inline;overflow:visible;opacity:1;vector-effect:none;fill:#ffffff;fill-rule:evenodd;stroke-width:1.56582;stroke-linecap:round;enable-background:accumulate;stop-color:#000000;stop-opacity:1"
           d="m 304.42969,114.68195 -0.16156,0.60681 c -0.56816,2.12038 -2.04007,3.69363 -4.29887,4.29887 l -0.6068,0.16155 0.6068,0.16287 c 2.2588,0.60524 3.73071,2.17849 4.29887,4.29887 l 0.16156,0.60549 0.16286,-0.60549 c 0.56817,-2.12038 2.04008,-3.69363 4.29887,-4.29887 l 0.60549,-0.16287 -0.60549,-0.16155 c -2.25879,-0.60524 -3.7307,-2.17849 -4.29887,-4.29887 z m 0,1.09541 c 0.63045,1.87954 1.99536,3.3074 3.97839,3.97182 -1.98298,0.66425 -3.34776,2.09254 -3.97839,3.97182 -0.63069,-1.8791 -1.99423,-3.30761 -3.97708,-3.97182 1.9829,-0.66438 3.34657,-2.09244 3.97708,-3.97182 z"
           id="path49"
           sodipodi:nodetypes="cccccccccccccccccc" /><path
           id="path59"
           style="opacity:1;fill:#ffffff;fill-opacity:1;fill-rule:evenodd;stroke:none;stroke-width:0.391455;stroke-linejoin:round;stroke-opacity:1"
           d="m 302.7721,126.99679 c 0.25026,0.83231 0.3773,1.69549 0.37724,2.56315 l 0.0263,27.56835 h -0.0263 c 6e-5,0.86766 -0.12698,1.73084 -0.37724,2.56315 h 3.31659 c -0.25026,-0.83231 -0.3773,-1.69549 -0.37723,-2.56315 v -27.56835 c -6e-5,-0.86763 0.12698,-1.73086 0.37723,-2.56315 z" /><path
           id="path63"
           style="opacity:1;fill:#ffffff;fill-opacity:1;fill-rule:evenodd;stroke:none;stroke-width:0.391455;stroke-linejoin:round;stroke-opacity:1"
           d="m 329.56593,113.15268 c -7.9341,0 -14.32161,6.38699 -14.32161,14.32109 v 18.33789 c 0,7.9341 6.38751,14.32161 14.32161,14.32161 3.21467,0 6.17531,-1.04839 8.5602,-2.8236 l -0.42323,-1.02113 c -2.10948,2.01849 -4.97326,3.2551 -8.13697,3.2551 -6.51481,0 -11.75949,-5.24468 -11.75949,-11.75949 v -22.28287 c 0,-6.51481 5.24468,-11.75949 11.75949,-11.75949 3.16378,0 6.02799,1.23704 8.13749,3.25561 l 0.42271,-1.02112 c -2.3849,-1.77514 -5.3455,-2.8236 -8.5602,-2.8236 z" /></g></g></g></svg>
